   <svg width="auto" height="auto" viewBox="0 0 172 172" fill="none" xmlns="http://www.w3.org/2000/svg"><mask id="mask0_19_181" maskUnits="userSpaceOnUse" x="0" y="0" width="172" height="172"><path d="M172 0H0V172H172V0Z" fill="white"></path></mask><g mask="url(#mask0_19_181)"><path d="M8.78101 151.115H160.939V152.557H8.78101V151.115Z" fill="#070808" stroke="black" stroke-width="0.75" stroke-miterlimit="10"></path><path d="M32.4951 152.183H14.5142V124.449H15.9562V150.742H31.0701V104.687H15.9562V118.7H14.5142V103.262H32.4951V152.183ZM55.1752 93.899H56.6171V101.43H55.1752V93.899Z" fill="#070808" stroke="black" stroke-width="0.75" stroke-miterlimit="10"></path><path d="M51.1998 152.183H31.0698V93.9H32.4949V150.743H51.2048L51.1998 152.183ZM55.1699 117.257H56.6119V145.687H55.1699V117.257ZM113.098 117.257H114.54V145.687H113.1L113.098 117.257ZM138.998 152.54H113.098V151.827L113.811 151.81V151.115H137.559V93.9H139.001L138.998 152.54ZM113.1 93.9H114.542V101.431H113.1V93.9Z" fill="#070808" stroke="black" stroke-width="0.75" stroke-miterlimit="10"></path><path d="M142.059 94.611H110.05V87.978H142.059V94.611ZM111.526 93.186H140.634V89.369H111.475L111.526 93.186ZM155.2 152.54H137.559V103.262H155.2V118.7H153.759V104.687H139.001V151.115H153.759V124.449H155.2V152.54ZM59.834 94.611H27.83V87.978H59.839L59.834 94.611ZM29.301 93.186H58.41V89.369H29.267L29.301 93.186ZM32.354 125.161H11.8459V117.969H32.354V125.161ZM13.288 123.736H30.913V119.411H13.288V123.736Z" fill="#070808" stroke="black" stroke-width="0.75" stroke-miterlimit="10"></path><path d="M158.293 125.161H137.784V117.969H158.293V125.161ZM139.226 123.736H156.851V119.411H139.226V123.736ZM27.3 152.268H20.125V131.048C20.2002 130.148 20.6107 129.31 21.2751 128.698C21.9396 128.087 22.8096 127.748 23.7125 127.748C24.6154 127.748 25.4853 128.087 26.1498 128.698C26.8143 129.31 27.2249 130.148 27.3 131.048V152.268ZM21.567 150.826H25.859V131.048C25.8126 130.511 25.5664 130.011 25.1691 129.646C24.7717 129.282 24.2522 129.079 23.713 129.079C23.1738 129.079 22.6543 129.282 22.257 129.646C21.8596 130.011 21.6134 130.511 21.567 131.048V150.826ZM150.18 152.268H143.005V131.048C143.08 130.148 143.491 129.31 144.155 128.698C144.82 128.087 145.69 127.748 146.593 127.748C147.495 127.748 148.365 128.087 149.03 128.698C149.694 129.31 150.105 130.148 150.18 131.048V152.268ZM144.48 150.826H148.771V131.048C148.723 130.512 148.477 130.013 148.079 129.65C147.682 129.287 147.164 129.085 146.625 129.085C146.087 129.085 145.569 129.287 145.172 129.65C144.774 130.013 144.528 130.512 144.48 131.048V150.826ZM119.222 117.969H50.488V110.421H119.222V117.969ZM51.9301 116.527H117.78V111.862H51.9301V116.527ZM119.222 152.527H50.488V144.961H119.222V152.527ZM51.9301 151.085H117.78V146.4H51.9301V151.085Z" fill="#070808" stroke="black" stroke-width="0.75" stroke-miterlimit="10"></path><path d="M122.993 111.862H46.6592L54.9202 100.701H114.732L122.993 111.862ZM49.5771 110.421H120.126L113.951 102.143H55.7172L49.5771 110.421ZM62.9102 79.48H106.81V80.922H62.9102V79.48Z" fill="#070808" stroke="black" stroke-width="0.75" stroke-miterlimit="10"></path><path d="M107.522 102.143H62.1802V87.47H63.6221V100.7H106.081V86.486H107.522V102.143Z" fill="#070808" stroke="black" stroke-width="0.75" stroke-miterlimit="10"></path><path d="M107.166 88.47H62.5201L60.3821 79.497H109.337L107.166 88.47ZM63.6221 87.029H106.03L107.489 80.905H62.2001L63.6221 87.029ZM14.5142 99.988H15.9562V104.382H14.5142V99.988ZM25.3031 99.988H26.7451V104.382H25.3002L25.3031 99.988ZM142.958 99.988H144.4V104.382H142.958V99.988ZM153.764 99.988H155.205V104.382H153.764V99.988ZM90.9331 102.177H78.7001V93.542H81.2112C81.2031 93.4178 81.2031 93.2932 81.2112 93.169C81.2308 92.2192 81.62 91.3146 82.2963 90.6474C82.9725 89.9802 83.8823 89.6032 84.8323 89.5964C85.7822 89.5896 86.6974 89.9537 87.3831 90.6111C88.0688 91.2686 88.471 92.1676 88.5042 93.117V93.169C88.5122 93.2875 88.5122 93.4064 88.5042 93.525H91.0651L90.9331 102.177ZM80.1442 100.667H89.5082V94.9H86.4202L86.8451 93.917C86.9827 93.5898 87.0375 93.2337 87.0049 92.8803C86.9722 92.5268 86.8531 92.1868 86.658 91.8904C86.4628 91.5939 86.1976 91.35 85.8859 91.1803C85.5741 91.0105 85.2254 90.9202 84.8705 90.9171C84.5155 90.9141 84.1653 90.9985 83.8507 91.1629C83.5361 91.3274 83.2668 91.5667 83.0667 91.8598C82.8665 92.1529 82.7416 92.4909 82.703 92.8437C82.6644 93.1966 82.7131 93.5535 82.8451 93.883L83.2521 94.883H80.1821L80.1442 100.667ZM49.7802 137.167H37.1802V119.954H49.7802V137.167ZM38.6191 135.725H48.3391V121.4H38.6191V135.725ZM132.356 137.167H119.756V119.954H132.356V137.167ZM121.195 135.725H130.914V121.4H121.195V135.725Z" fill="#070808" stroke="black" stroke-width="0.75" stroke-miterlimit="10"></path><path d="M98.5 74.968H71.224C69.2697 74.9681 67.3944 74.1964 66.0061 72.8209C64.6178 71.4453 63.829 69.5772 63.811 67.623C63.811 61.957 68.391 58.056 72.835 54.29C74.243 53.09 75.566 51.949 76.754 50.762L76.974 50.562H92.75L92.95 50.762C94.256 52.068 95.715 53.323 97.123 54.527C101.449 58.191 105.91 62.008 105.91 67.627C105.891 69.58 105.102 71.4466 103.715 72.8212C102.327 74.1958 100.453 74.9673 98.5 74.968ZM77.568 51.949C76.38 53.103 75.0569 54.239 73.7679 55.342C69.5779 58.904 65.287 62.585 65.287 67.572C65.2912 69.1543 65.9217 70.6706 67.0405 71.7895C68.1594 72.9083 69.6757 73.5388 71.2581 73.543H98.5C100.073 73.5386 101.582 72.9151 102.699 71.8073C103.817 70.6995 104.453 69.1963 104.471 67.623C104.471 62.67 100.451 59.243 96.193 55.613C94.836 54.46 93.428 53.255 92.156 52L77.568 51.949Z" fill="#070808" stroke="black" stroke-width="0.75" stroke-miterlimit="10"></path><path d="M100.873 80.9H68.8472V73.351H100.873V80.9ZM70.3401 79.475H99.4312V74.8H70.2891L70.3401 79.475ZM93.3071 51.758H74.9371V46.007H93.3071V51.758ZM76.3441 50.316H91.9001V47.449H76.4001L76.3441 50.316Z" fill="#070808" stroke="black" stroke-width="0.75" stroke-miterlimit="10"></path><path d="M87.438 47.454H80.433C80.0761 47.3461 79.7503 47.154 79.4831 46.894C79.3857 46.8029 79.3164 46.6859 79.2832 46.5568C79.2501 46.4276 79.2546 46.2917 79.2961 46.165C79.1985 46.0293 79.1351 45.8721 79.1114 45.7067C79.0877 45.5413 79.1044 45.3726 79.1601 45.215C79.2041 45.126 79.2552 45.0407 79.313 44.96V44.86C79.2767 44.7488 79.2484 44.6352 79.2281 44.52C79.1841 44.184 79.2213 43.8423 79.3365 43.5235C79.4516 43.2048 79.6414 42.9183 79.8901 42.688L80.1441 42.434C80.3338 42.2633 80.4943 42.0626 80.6191 41.84C80.7641 41.2694 80.698 40.6657 80.433 40.14L80.0251 38.868C79.8462 38.4157 79.7879 37.9246 79.856 37.443C79.3951 37.0419 78.9914 36.5796 78.656 36.069C78.5524 35.9419 78.4958 35.783 78.4958 35.619C78.4958 35.455 78.5524 35.2961 78.656 35.169L79.4201 34.354C79.7791 33.9284 80.232 33.5919 80.7431 33.371C81.0506 33.2299 81.3913 33.1769 81.7271 33.218C81.7725 32.9068 81.9291 32.6225 82.168 32.418C82.2756 32.337 82.4001 32.2812 82.5321 32.2548C82.6642 32.2283 82.8005 32.2318 82.9311 32.265L83.219 32.146C83.7075 32.0109 84.2236 32.0109 84.7121 32.146H85.1191C85.1631 32.3435 85.2525 32.528 85.3799 32.6852C85.5074 32.8423 85.6695 32.9677 85.8537 33.0515C86.0378 33.1354 86.2389 33.1754 86.4411 33.1683C86.6433 33.1613 86.8412 33.1074 87.0191 33.011C87.3052 33.0112 87.5818 33.1137 87.799 33.3C88.5602 33.776 89.19 34.435 89.631 35.217C89.8193 35.5152 89.8873 35.8738 89.8212 36.2202C89.7551 36.5666 89.5599 36.875 89.2751 37.083L89.0551 37.201C88.9106 37.427 88.6864 37.5904 88.427 37.659C88.486 38.0585 88.486 38.4645 88.427 38.864C88.3397 39.2425 88.2322 39.616 88.105 39.983C87.8405 40.5079 87.7568 41.1056 87.867 41.683C88.0015 41.9444 88.1793 42.1811 88.393 42.383L88.699 42.722C89.08 43.1306 89.3341 43.6412 89.4303 44.1915C89.5266 44.7419 89.4608 45.3083 89.241 45.822C89.0611 46.1289 88.832 46.4042 88.563 46.637C88.4205 46.7548 88.2949 46.8917 88.19 47.044C88.186 47.0836 88.186 47.1234 88.19 47.163C88.1055 47.2783 87.9899 47.3669 87.8566 47.4185C87.7233 47.4701 87.5781 47.4824 87.438 47.454ZM80.907 46.012H87.065C87.201 45.842 87.3531 45.712 87.4721 45.571C87.6347 45.4445 87.7726 45.2893 87.8791 45.113C87.9581 44.8524 87.9635 44.575 87.8947 44.3115C87.8259 44.048 87.6855 43.8086 87.4891 43.62L87.235 43.332C86.9005 42.9991 86.6294 42.6081 86.4351 42.178C86.1837 41.3004 86.2546 40.3618 86.6351 39.532C86.7523 39.2353 86.843 38.9287 86.906 38.616C87.0082 38.035 86.9128 37.4365 86.6351 36.916C86.5653 36.7796 86.5393 36.6249 86.5606 36.4732C86.5819 36.3214 86.6494 36.1799 86.7541 36.068C86.8615 35.9621 86.999 35.8922 87.1479 35.8679C87.2967 35.8435 87.4494 35.8659 87.585 35.932L88.026 36.153C88.1039 36.0785 88.1961 36.0206 88.297 35.983C87.983 35.4674 87.5534 35.0319 87.042 34.711C86.9547 34.7894 86.858 34.8566 86.7541 34.911C86.4582 35.063 86.1146 35.0931 85.7968 34.9947C85.479 34.8964 85.2123 34.6775 85.054 34.385C84.9602 34.1659 84.9198 33.9277 84.9361 33.69C84.7452 33.674 84.557 33.634 84.376 33.571H84.24C84.0073 33.505 83.7607 33.505 83.528 33.571C83.3869 33.642 83.2393 33.699 83.0871 33.741L82.934 34.47C82.906 34.6137 82.8337 34.7451 82.7271 34.8455C82.6205 34.946 82.4852 35.0105 82.34 35.03C82.196 35.0546 82.048 35.0355 81.915 34.975C81.782 34.9146 81.6702 34.8157 81.594 34.691C81.5487 34.6707 81.4996 34.6603 81.45 34.6603C81.4004 34.6603 81.3514 34.6707 81.3061 34.691C81.0113 34.8456 80.7512 35.059 80.542 35.318L80.1861 35.709L80.407 35.98C80.5756 35.913 80.7635 35.913 80.932 35.98C81.166 36.078 81.3568 36.2572 81.469 36.4847C81.5813 36.7122 81.6076 36.9726 81.543 37.218C81.4979 37.3692 81.4412 37.5166 81.3731 37.659V37.759C81.3648 37.9996 81.4113 38.239 81.5091 38.459L81.933 39.748C82.3334 40.5946 82.3823 41.5654 82.069 42.448C81.8789 42.8257 81.6202 43.1649 81.3061 43.448L81.106 43.668C80.9295 43.8269 80.8155 44.0436 80.7841 44.279V44.448C80.9231 44.7849 80.9231 45.1631 80.7841 45.5C80.8382 45.5719 80.8768 45.6543 80.8973 45.7419C80.9177 45.8296 80.9197 45.9205 80.903 46.009L80.907 46.012ZM35.922 97.172H37.3641V101.142H35.922V97.172ZM43.1141 97.172H44.5561V101.142H43.1141V97.172ZM50.3061 97.172H51.7481V101.142H50.3061V97.172ZM118.141 97.172H119.583V101.142H118.141V97.172ZM125.334 97.172H126.775V101.142H125.334V97.172ZM132.526 97.172H133.968V101.142H132.526V97.172ZM66.1501 146.4H60.382L60.755 116.528H65.844L66.1501 146.4ZM61.841 144.958H64.7591L64.419 117.97H62.1801L61.841 144.958ZM80.5511 146.4H74.767L75.157 116.528H80.157L80.5511 146.4ZM76.226 144.958H79.0921L78.7531 117.97H76.6331L76.226 144.958ZM94.9361 146.4H89.168L89.542 116.528H94.631L94.9361 146.4ZM90.627 144.958H93.4771L93.138 117.97H90.9671L90.627 144.958ZM109.337 146.4H103.553L103.943 116.528H108.943L109.337 146.4ZM105.012 144.958H107.879L107.539 117.97H105.351L105.012 144.958ZM56.8371 89.3C56.7475 89.316 56.6557 89.316 56.5661 89.3C56.3889 89.2251 56.2483 89.0833 56.1751 88.9054C56.1019 88.7275 56.1019 88.5279 56.1751 88.35C56.7056 87.0406 56.9772 85.6408 56.975 84.228C56.9709 83.0567 56.6889 81.9032 56.152 80.8622C55.6152 79.8212 54.8389 78.9225 53.887 78.24C51.7091 76.6804 49.7023 74.8948 47.9001 72.913C46.3638 71.2389 44.984 69.4276 43.778 67.502C41.1535 71.7198 37.7309 75.3847 33.7021 78.291C32.7942 78.97 32.0517 79.8455 31.5301 80.852C30.983 81.8993 30.6979 83.0635 30.699 84.245C30.6938 85.6594 30.9705 87.0607 31.513 88.367C31.5809 88.5473 31.5765 88.7468 31.5007 88.9239C31.4248 89.101 31.2834 89.2418 31.106 89.317C31.0193 89.352 30.9265 89.3696 30.8329 89.3688C30.7394 89.3679 30.647 89.3487 30.561 89.3121C30.4749 89.2755 30.3967 89.2223 30.3312 89.1555C30.2657 89.0888 30.214 89.0098 30.179 88.923L30.173 88.909C29.5679 87.429 29.262 85.8438 29.273 84.245C29.2672 82.841 29.5989 81.4561 30.24 80.207C30.8671 79.0038 31.7605 77.9597 32.8521 77.154C37.053 74.1252 40.5635 70.2397 43.152 65.754L43.763 64.668L44.3901 65.754C45.6866 67.9793 47.2162 70.0603 48.953 71.962C50.698 73.8561 52.637 75.5617 54.7381 77.051C55.8735 77.8687 56.7989 78.9438 57.4388 80.1882C58.0786 81.4325 58.4144 82.8108 58.419 84.21C58.4251 85.8103 58.1139 87.3959 57.5031 88.875C57.4478 89.0047 57.3546 89.1146 57.2358 89.1904C57.1169 89.2663 56.978 89.3044 56.8371 89.3Z" fill="#070808" stroke="black" stroke-width="0.75" stroke-miterlimit="10"></path><path d="M30.833 87.86H56.833V89.3H30.833V87.86ZM139.057 89.302C138.967 89.318 138.875 89.318 138.785 89.302C138.608 89.2269 138.468 89.085 138.395 88.9072C138.322 88.7293 138.322 88.5298 138.395 88.352C138.925 87.0425 139.197 85.6427 139.195 84.23C139.191 83.0588 138.909 81.9053 138.372 80.8643C137.836 79.8233 137.06 78.9246 136.108 78.242C133.93 76.6821 131.923 74.8966 130.12 72.915C128.582 71.2244 127.202 69.396 125.998 67.453C123.374 71.6711 119.951 75.336 115.922 78.242C115.014 78.9253 114.267 79.7995 113.734 80.803C113.192 81.8515 112.913 83.0158 112.92 84.196C112.918 85.6087 113.19 87.0085 113.72 88.318C113.793 88.4958 113.793 88.6953 113.72 88.8732C113.647 89.051 113.507 89.1929 113.33 89.268C113.155 89.3385 112.958 89.3366 112.785 89.2628C112.611 89.1889 112.473 89.0491 112.402 88.874L112.397 88.861C111.786 87.3818 111.475 85.7963 111.481 84.196C111.481 82.7909 111.818 81.4064 112.465 80.159C113.091 78.9552 113.985 77.9105 115.077 77.105C119.276 74.0795 122.78 70.193 125.357 65.705L125.984 64.619L126.612 65.705C129.205 70.174 132.735 74.0289 136.959 77.005C138.091 77.8255 139.015 78.9012 139.654 80.1449C140.294 81.3886 140.632 82.7655 140.64 84.164C140.646 85.7643 140.335 87.3499 139.724 88.829C139.674 88.9663 139.584 89.0852 139.465 89.1694C139.345 89.2537 139.203 89.2992 139.057 89.3V89.302Z" fill="#070808" stroke="black" stroke-width="0.75" stroke-miterlimit="10"></path><path d="M113.052 87.86H139.057V89.3H113.052V87.86ZM90.8521 74.76C90.7627 74.782 90.6693 74.782 90.58 74.76C90.405 74.6888 90.2655 74.551 90.192 74.3771C90.1185 74.2031 90.1171 74.007 90.188 73.832V73.827C90.4033 73.2856 90.5185 72.7096 90.528 72.127C90.5265 71.6471 90.4121 71.1743 90.1939 70.7469C89.9756 70.3195 89.6598 69.9496 89.272 69.667C88.2389 68.9362 87.2889 68.0945 86.439 67.157C85.8297 66.515 85.262 65.835 84.739 65.121C83.5492 66.8898 82.0562 68.4346 80.329 69.684C79.9596 69.9688 79.6532 70.327 79.429 70.736C79.2053 71.1655 79.0887 71.6427 79.089 72.127C79.0979 72.7096 79.2131 73.2857 79.429 73.827C79.4646 73.9139 79.4829 74.0069 79.4825 74.1008C79.4822 74.1947 79.4635 74.2876 79.4272 74.3743C79.391 74.4609 79.3381 74.5395 79.2715 74.6057C79.2049 74.6719 79.1258 74.7243 79.0389 74.76C78.9521 74.7956 78.859 74.8138 78.7651 74.8135C78.6712 74.8132 78.5783 74.7944 78.4917 74.7582C78.4051 74.722 78.3264 74.6691 78.2603 74.6025C78.1941 74.5359 78.1416 74.4568 78.106 74.37C77.8028 73.6446 77.6471 72.8662 77.648 72.08C77.6526 71.3653 77.8271 70.662 78.157 70.028C78.4665 69.4189 78.9137 68.8903 79.463 68.484C81.3533 67.1337 82.9371 65.3996 84.111 63.395L84.721 62.309L85.349 63.395C85.9383 64.3985 86.6318 65.337 87.418 66.195C88.2027 67.0516 89.074 67.8248 90.0179 68.502C90.5822 68.9015 91.0459 69.4266 91.3727 70.0359C91.6994 70.6451 91.8803 71.3219 91.901 72.013C91.899 72.7973 91.749 73.5742 91.459 74.303C91.4101 74.429 91.3271 74.539 91.2191 74.6204C91.1112 74.7018 90.9827 74.7516 90.848 74.764L90.8521 74.76Z" fill="#070808" stroke="black" stroke-width="0.75" stroke-miterlimit="10"></path><path d="M78.855 73.322H90.848V74.764H78.855V73.322Z" fill="#070808" stroke="black" stroke-width="0.75" stroke-miterlimit="10"></path></g></svg>