<svg width="auto" height="auto" viewBox="0 0 172 172" fill="none" xmlns="http://www.w3.org/2000/svg"><mask id="mask0_19_118" maskUnits="userSpaceOnUse" x="0" y="0" width="172" height="172"><path d="M172 0H0V172H172V0Z" fill="white"></path></mask><g mask="url(#mask0_19_118)"><path d="M145.05 127.33V121.8H142.25V94.657L144.539 94.557V86.6H141.013V78.777H139.703C134.723 78.777 129.742 78.756 124.762 78.797C124.429 78.8533 124.087 78.7778 123.809 78.5864C123.531 78.3951 123.338 78.103 123.271 77.772C118.895 65.1353 114.505 52.502 110.101 39.872C109.832 39.0804 109.692 38.2509 109.684 37.415C109.646 32.586 109.665 27.756 109.665 22.927V19.327H108.065V21.861H64.438V19.508H62.816C62.816 25.293 62.816 31.078 62.783 36.863C62.7777 37.6266 62.6504 38.3845 62.406 39.108C58 52.006 53.584 64.8997 49.158 77.789C49.1017 78.104 48.9248 78.3846 48.6649 78.5714C48.405 78.7581 48.0825 78.8361 47.766 78.789C42.273 78.751 36.78 78.769 31.287 78.769H30.014V86.354H27.114V94.362H29.966V121.832H27.125V127.385H29.986V150.4H27.222C27.231 150.843 27.241 151.326 27.25 151.833H144.831C144.831 151.352 144.828 150.866 144.823 150.375H142.291V127.33H145.05ZM123.814 80.4H139.432V86.3H123.814V80.4ZM143 88.3V93.011H118.029V88.3H143ZM140.578 94.644V109.152H136.84V94.647L140.578 94.644ZM135.172 94.65V109.112H126.52V94.653L135.172 94.65ZM105.1 120.412C104.797 120.511 104.538 120.712 104.366 120.981C104.195 121.25 104.122 121.569 104.16 121.886C104.23 124.294 104.185 126.704 104.185 129.186H68.794V121.176L48.688 111.076L48.749 110.887H124.021C123.46 111.197 123.161 111.375 122.85 111.531C116.937 114.498 111.021 117.459 105.1 120.412ZM105.709 122.68H113.309V129.185H105.709V122.68ZM47.486 109.1V94.461H51.222V109.1H47.486ZM62.158 90.063C62.319 88.404 62.466 86.886 62.618 85.325H111.389C111.553 86.904 111.713 88.449 111.879 90.063H62.158ZM106.744 91.815V109.083H103.114V91.814L106.744 91.815ZM78.798 95.755V109.155H71.443V91.7H101.324V109.137H95.285V95.754L78.798 95.755ZM93.583 97.3V109H80.37V97.3H93.583ZM66.023 92.058H69.767V109.017H66.023V92.058ZM121.106 109.072V94.672H124.759V109.072H121.106ZM64.5 23.592H108.04V37.849L64.5 37.434V23.592ZM50.77 77.814C55.112 65.17 59.4507 52.5243 63.786 39.877C63.8408 39.5621 64.0177 39.2816 64.2781 39.0965C64.5386 38.9113 64.8616 38.8364 65.177 38.888C79.197 39.088 93.2173 39.266 107.238 39.422C107.913 39.43 108.338 39.507 108.612 40.29C112.959 52.856 117.331 65.413 121.728 77.961C121.809 78.196 121.867 78.439 121.961 78.768H108.076V67.194H105.237V58.154L102.443 58V50.287L100.643 50.187V43.855H72.283V50.148L70.383 50.312V58H67.683V67.127H64.412V78.744H50.512C50.6 78.415 50.666 78.109 50.767 77.814H50.77ZM80.708 71.86V78.728H66.011V68.865H106.384V78.751H91.684V71.86H80.708ZM89.998 73.366V78.723H82.298V73.366H89.998ZM100.829 51.85V57.561H72.051V51.85H100.829ZM73.872 50.093V45.311H98.972V50.093H73.872ZM102.383 59.584C103.539 59.579 103.82 59.928 103.759 61.01C103.67 62.578 103.695 64.156 103.753 65.726C103.783 66.555 103.502 66.777 102.689 66.774C95.697 66.745 88.705 66.757 81.713 66.757H69.292V59.613H70.533C81.149 59.613 91.765 59.632 102.38 59.584H102.383ZM50.368 80.444H122.076V86.58H116.524V94.572H119.362V109.125H108.592V91.69H113.682C113.393 88.953 113.119 86.365 112.839 83.711H61.192C60.925 86.295 60.657 88.89 60.373 91.635H64.332V109.15H52.923V94.393H55.143V86.353H50.365L50.368 80.444ZM31.585 80.394H48.508V86.206H31.582L31.585 80.394ZM28.733 92.694V88H53.652V92.7L28.733 92.694ZM45.807 94.414V109.14H37.088V94.418L45.807 94.414ZM35.41 94.4V108.712H31.657V94.4H35.41ZM28.725 125.679V123.392H52.441V125.679H28.725ZM48.531 147.196C48.626 148.205 48.552 149.23 48.552 150.316H31.682V127.373H53.982V121.827H31.712V111.17C36.194 111.17 40.586 111.164 44.979 111.183C45.3419 111.202 45.696 111.301 46.016 111.473C52.0607 114.505 58.101 117.546 64.137 120.596C64.2927 120.702 64.4413 120.818 64.582 120.943H56.759V130.78H66.051C65.551 131.246 65.285 131.505 65.006 131.746C59.8513 136.191 54.6913 140.63 49.526 145.065C49.1833 145.296 48.9097 145.616 48.7345 145.991C48.5593 146.366 48.489 146.781 48.531 147.192V147.196ZM67.053 122.662V129.202H58.289V122.662H67.053ZM53.66 146.992C53.708 148.077 53.672 149.166 53.672 150.316H50.122C50.122 149.171 50.097 148.083 50.142 146.998C50.1912 146.719 50.3401 146.467 50.561 146.289C55.911 141.637 61.2676 136.993 66.631 132.357C66.7433 132.285 66.8622 132.224 66.986 132.174V137.274C65.469 137.274 63.947 137.34 62.434 137.252C61.355 137.189 61.002 137.561 61.107 138.61C61.191 139.437 61.124 140.28 61.124 141.253H56.71V145.931C55.977 145.931 55.362 145.965 54.753 145.922C53.955 145.869 53.624 146.172 53.66 146.992ZM115.821 149.978C115.806 150.102 115.202 150.228 114.87 150.23C111.941 150.249 109.012 150.241 106.083 150.241C89.5337 150.241 72.985 150.247 56.437 150.26C55.555 150.26 55.13 150.087 55.227 149.127C55.307 148.332 54.967 147.365 56.398 147.472C57.01 147.518 57.628 147.521 58.252 147.515C58.252 146.549 58.252 145.264 58.262 144.443C58.2385 144.241 58.2265 144.039 58.226 143.836C58.187 143.144 58.341 142.729 59.17 142.736C60.329 142.748 61.488 142.744 62.647 142.748C62.647 142.187 62.647 141.648 62.647 141.566C62.647 141.484 62.647 140.861 62.647 140.256C62.647 140.245 62.647 140.236 62.647 140.224C62.647 139.592 62.657 138.977 62.668 138.977C62.715 138.977 62.761 138.989 62.807 138.994V138.987C63.169 138.971 63.556 138.939 63.943 138.939H68.768C68.762 138.586 68.756 138.298 68.756 138.239C68.756 138.062 68.716 136.197 68.756 135.75C68.75 135.022 68.747 134.113 68.749 133.34H68.723V131.15H104.06V133.277H104C104.005 133.717 104.01 134.344 104.012 135H104.102V137.165H104.073C104.068 137.814 104.048 138.519 104.048 138.624C104.048 138.655 104.048 138.753 104.048 138.876H108.772V141.117H108.712C108.733 141.7 108.763 142.367 108.783 142.979H109.744C111.615 142.979 111.324 142.794 111.344 144.521C111.344 144.913 111.344 145.306 111.344 145.831H111.326C111.319 146.391 111.31 146.981 111.301 147.502H114.43C114.903 147.502 115.724 147.602 115.782 147.819C115.929 148.53 115.943 149.262 115.821 149.978ZM122.721 150.318H117.493C117.493 149.134 117.46 148.008 117.505 146.885C117.533 146.161 117.248 145.907 116.546 145.926C115.387 145.958 114.227 145.935 112.946 145.935C112.946 144.742 112.882 143.687 112.965 142.643C113.048 141.599 112.634 141.249 111.65 141.376C111.269 141.4 110.886 141.402 110.505 141.383C110.505 140.299 110.477 139.29 110.514 138.283C110.542 137.526 110.245 137.238 109.483 137.266C108.283 137.31 107.076 137.278 105.783 137.278V132.072C106.13 132.339 106.415 132.533 106.673 132.759C111.681 137.144 116.673 141.55 121.706 145.899C122.073 146.158 122.363 146.513 122.543 146.925C122.723 147.336 122.787 147.789 122.728 148.235C122.687 148.929 122.685 149.624 122.721 150.318ZM140.552 150.298H124.319C124.319 149.357 124.249 148.382 124.338 147.422C124.38 146.994 124.308 146.562 124.127 146.171C123.947 145.781 123.665 145.445 123.312 145.2C118.081 140.676 112.884 136.112 107.678 131.56C107.486 131.393 107.303 131.215 106.957 130.894H114.917V121.021H107.753C108.243 120.696 108.453 120.527 108.68 120.41C114.555 117.445 120.432 114.486 126.311 111.532C126.624 111.345 126.973 111.228 127.336 111.191C131.722 111.168 136.107 111.176 140.56 111.176V121.762H118.26V127.322H140.56L140.552 150.298ZM119.8 125.688V123.413H143.463V125.688H119.8Z" fill="black" stroke="black" stroke-miterlimit="10"></path><path d="M57.5 146.5H111.5" stroke="black" stroke-width="3" stroke-miterlimit="10"></path><path d="M60.5 141.5H108.5" stroke="black" stroke-width="3" stroke-miterlimit="10"></path><path d="M69 135.5H105" stroke="black" stroke-width="3" stroke-miterlimit="10"></path><path d="M110.408 50.46V51.891H105.364V50.46H110.408Z" fill="black" stroke="black" stroke-miterlimit="10"></path><path d="M62.481 50.455H67.4719V51.889H62.481V50.455Z" fill="black" stroke="black" stroke-miterlimit="10"></path><path d="M104 59.731V58H116V59.731H104Z" fill="black" stroke="black" stroke-miterlimit="10"></path><path d="M68.721 43.782V45.168H63.678V43.782H68.721Z" fill="black" stroke="black" stroke-miterlimit="10"></path><path d="M109.206 43.786V45.162H104.183V43.786H109.206Z" fill="black" stroke="black" stroke-miterlimit="10"></path><path d="M67.9999 58.3V59.7H56.4829V58.3H67.9999Z" fill="black" stroke="black" stroke-miterlimit="10"></path><path d="M35.4389 118.735H33.9839V114.575H35.4389V118.735Z" fill="black" stroke="black" stroke-miterlimit="10"></path><path d="M37.851 118.721C37.8011 117.505 37.8197 116.288 37.907 115.074C37.941 114.779 38.668 114.564 39.316 114.166V118.721H37.851Z" fill="black" stroke="black" stroke-miterlimit="10"></path><path d="M43.2661 114.558V118.735H41.8521V114.558H43.2661Z" fill="black" stroke="black" stroke-miterlimit="10"></path><path d="M134.1 114.575V118.721H132.635V114.575H134.1Z" fill="black" stroke="black" stroke-miterlimit="10"></path><path d="M130.157 118.743H128.748V114.552H130.157V118.743Z" fill="black" stroke="black" stroke-miterlimit="10"></path><path d="M136.573 118.737V114.555H137.986V118.737H136.573Z" fill="black" stroke="black" stroke-miterlimit="10"></path><path d="M73.6421 35.239V33.839H96.4791V35.239H73.6421Z" fill="black" stroke="black" stroke-miterlimit="10"></path><path d="M99.282 27H100.657V31.188H99.282V27Z" fill="black" stroke="black" stroke-miterlimit="10"></path><path d="M91.427 27.017H92.827V31.193H91.427V27.017Z" fill="black" stroke="black" stroke-miterlimit="10"></path><path d="M83.5459 27.016H84.9459V31.174H83.5459V27.016Z" fill="black" stroke="black" stroke-miterlimit="10"></path><path d="M77.056 31.2H75.6479V27.008H77.056V31.2Z" fill="black" stroke="black" stroke-miterlimit="10"></path><path d="M70.056 31.2H68.6479V27.008H70.056V31.2Z" fill="black" stroke="black" stroke-miterlimit="10"></path></g></svg>