<svg width="auto" height="auto" viewBox="0 0 173 173" fill="none" xmlns="http://www.w3.org/2000/svg"><mask id="mask0_19_22" maskUnits="userSpaceOnUse" x="0" y="0" width="173" height="173"><path d="M172.5 0.5H0.5V172.5H172.5V0.5Z" fill="white"></path></mask><g mask="url(#mask0_19_22)"><path d="M14 148.5H162" stroke="black" stroke-width="3" stroke-miterlimit="10"></path><path d="M74.163 148.5V135.992C74.1138 132.094 75.3874 128.294 77.776 125.213L86.848 114L95.848 125.127C98.592 128.666 100.056 133.031 100 137.509V148.5H74.163Z" stroke="black" stroke-width="3" stroke-miterlimit="10"></path><path d="M111.5 102.5H62.5V148.5H111.5V102.5Z" stroke="black" stroke-width="3" stroke-miterlimit="10"></path><path d="M132.5 110.5H111.5V148.5H132.5V110.5Z" stroke="black" stroke-width="3" stroke-miterlimit="10"></path><path d="M157 148.5H141L143.286 71H154.715L157 148.5Z" stroke="black" stroke-width="3" stroke-linejoin="round"></path><path d="M127.5 102.5H111.5V110.5H127.5V102.5Z" stroke="black" stroke-width="3" stroke-miterlimit="10"></path><path d="M40.5 148.5H61.5L61.5 110.5H40.5V148.5Z" stroke="black" stroke-width="3" stroke-miterlimit="10"></path><path d="M45.5 110.5H61.5V102.5H45.5V110.5Z" stroke="black" stroke-width="3" stroke-miterlimit="10"></path><path d="M106.5 93.5H67.5V102.5H106.5V93.5Z" stroke="black" stroke-width="3" stroke-miterlimit="10"></path><path d="M113 80.5C113 80.5 113 85.5 106 93.5H67.5C60.5 85.5 60.5 80.5 60.5 80.5C57.73 60.2 82.63 51.11 86.5 49.82C86.585 49.7948 86.6685 49.7648 86.75 49.73C86.8316 49.7648 86.9151 49.7948 87 49.82C90.87 51.11 115.77 60.2 113 80.5Z" stroke="black" stroke-width="3" stroke-miterlimit="10"></path><path d="M154.949 66.43C154.949 66.43 154.949 67.611 153.296 69.5H144.2C142.547 67.611 142.547 66.43 142.547 66.43C141.892 61.636 147.773 59.489 148.687 59.184C148.704 59.1704 148.724 59.1629 148.746 59.1629C148.768 59.1629 148.788 59.1704 148.805 59.184C149.723 59.489 155.6 61.636 154.949 66.43Z" stroke="black" stroke-width="3" stroke-miterlimit="10"></path><path d="M45.5 102.5C45.5 102.5 28.673 87.244 61.586 73.372" stroke="black" stroke-width="3" stroke-miterlimit="10"></path><path d="M128.286 102.5C128.286 102.5 145.113 87.244 112.199 73.372" stroke="black" stroke-width="3" stroke-miterlimit="10"></path><path d="M86.5 49.5V36.5" stroke="black" stroke-width="3" stroke-miterlimit="10" stroke-linecap="round"></path><path d="M148.5 59.5V51.5" stroke="black" stroke-width="3" stroke-miterlimit="10" stroke-linecap="round"></path><path d="M122.5 122.5V129.5" stroke="black" stroke-width="3" stroke-miterlimit="10" stroke-linecap="round"></path><path d="M122.5 122.5V129.5" stroke="black" stroke-width="3" stroke-miterlimit="10" stroke-linecap="round"></path><path d="M148.5 121.5V128.5" stroke="black" stroke-width="3" stroke-miterlimit="10" stroke-linecap="round"></path><path d="M148.5 94.5V101.5" stroke="black" stroke-width="3" stroke-miterlimit="10" stroke-linecap="round"></path><path d="M141.5 85.5H156.5" stroke="black" stroke-width="3" stroke-miterlimit="10" stroke-linecap="round"></path><path d="M139.5 108.5H159.5" stroke="black" stroke-width="3" stroke-miterlimit="10" stroke-linecap="round"></path><path d="M33 148.5H17L19.286 71H30.715L33 148.5Z" stroke="black" stroke-width="3" stroke-linejoin="round"></path><path d="M30.949 66.43C30.949 66.43 30.949 67.611 29.296 69.5H20.2C18.547 67.611 18.547 66.43 18.547 66.43C17.892 61.636 23.773 59.489 24.687 59.184C24.7036 59.1704 24.7245 59.1629 24.746 59.1629C24.7675 59.1629 24.7884 59.1704 24.805 59.184C25.723 59.489 31.6 61.636 30.949 66.43Z" stroke="black" stroke-width="3" stroke-miterlimit="10"></path><path d="M24.5 59.5V51.5" stroke="black" stroke-width="3" stroke-miterlimit="10" stroke-linecap="round"></path><path d="M24.5 121.5V128.5" stroke="black" stroke-width="3" stroke-miterlimit="10" stroke-linecap="round"></path><path d="M24.5 94.5V101.5" stroke="black" stroke-width="3" stroke-miterlimit="10" stroke-linecap="round"></path><path d="M17.5 85.5H32.5" stroke="black" stroke-width="3" stroke-miterlimit="10" stroke-linecap="round"></path><path d="M15.5 108.5H35.5" stroke="black" stroke-width="3" stroke-miterlimit="10" stroke-linecap="round"></path><path d="M52.5 121.5V128.5" stroke="black" stroke-width="3" stroke-miterlimit="10" stroke-linecap="round"></path><path d="M52.5 121.5V128.5" stroke="black" stroke-width="3" stroke-miterlimit="10" stroke-linecap="round"></path></g></svg>