<svg width="auto" height="auto" viewBox="0 0 172 172" fill="none" xmlns="http://www.w3.org/2000/svg"><mask id="mask0_19_287" maskUnits="userSpaceOnUse" x="0" y="0" width="172" height="172"><path d="M172 0H0V172H172V0Z" fill="white"></path></mask><g mask="url(#mask0_19_287)"><path d="M25.8441 69.868H21.7351V65.614H34.6001V57.02H38.9512V65.492H43.2511V61.329H47.6022V65.465H51.9531V52.65H56.2532V65.55H69.2291V69.85H65.0452V87.7L73.5381 89.831V48.272H65.0381V35.311H75.7792V26.611H80.0911V18H84.4071V26.551H88.7131V35.223H99.5342V48.184H91.0402V68.609C92.7952 67.609 94.4451 66.519 96.2201 65.697C98.3771 64.697 100.62 63.874 102.865 63.074C103.207 63.0157 103.513 62.8266 103.719 62.5466C103.924 62.2667 104.012 61.9179 103.965 61.574C103.92 55.76 103.942 49.945 103.942 43.982H108.248V35.3H116.881V26.65H121.195V18.019H125.509V26.565H129.864V35.189H138.544V43.868H142.832V113.29C149.168 115.715 151.748 120.555 151.503 126.89C151.282 132.618 148.632 136.944 142.951 138.99V147.79H151.496V152.052H17.4341V147.841H21.8661C21.4976 145.948 21.6376 143.99 22.2717 142.169C22.9059 140.347 24.0115 138.726 25.4761 137.471C25.78 137.166 25.9585 136.759 25.9761 136.329C25.9941 114.323 25.9941 92.3167 25.9761 70.31C25.9463 70.1588 25.9021 70.0108 25.8441 69.868ZM112.495 140.168V65.678C95.9421 66.587 83.2601 78.624 79.7761 91.328C79.9697 91.4243 80.1756 91.4936 80.3881 91.534C81.9791 91.609 82.3431 92.413 82.3341 93.971C82.2581 106.503 82.2921 119.036 82.2921 131.571V133.201C82.8581 132.876 83.2341 132.655 83.6151 132.444C85.6569 131.266 87.9589 130.613 90.3151 130.544C93.1268 130.399 95.9226 131.05 98.3812 132.422C100.84 133.794 102.862 135.831 104.215 138.3C104.43 138.703 104.789 139.011 105.22 139.161C107.631 139.546 110.061 139.839 112.495 140.164V140.168ZM108.331 61.586L117.031 61.155V115.686C119.573 113.721 122.191 112.77 125.254 113.399C128.254 114.014 130.332 115.911 132.074 118.299C134.69 115.161 134.827 115.057 138.526 113.379V48.323H108.334L108.331 61.586ZM77.9171 95.386L47.7251 87.849V133.141C48.1501 132.899 48.4502 132.725 48.7532 132.555C51.4912 130.932 54.6794 130.235 57.845 130.567C61.0105 130.899 63.9848 132.243 66.3262 134.399C67.7262 135.692 68.8261 136.463 70.5901 135.347C70.9086 135.171 71.2696 135.086 71.6332 135.102C73.7142 135.142 75.7941 135.219 77.9171 135.285V95.386ZM43.3171 82.286L60.5502 86.574V70H30.4031V135C32.289 134.66 34.2309 134.816 36.0385 135.453C37.846 136.09 39.4571 137.185 40.7141 138.631C41.6211 139.631 42.5961 139.47 43.0831 138.231C43.2602 137.683 43.3364 137.107 43.3081 136.531C43.3188 119.036 43.3218 101.542 43.3171 84.048V82.286ZM101.904 144.186C101.661 143.517 101.459 142.978 101.268 142.435C99.7131 138.007 96.5991 135.362 91.9521 134.927C87.3051 134.492 83.7521 136.527 81.4021 140.58C80.9801 141.306 80.5691 142.039 80.0651 142.922C75.7321 137.899 71.4241 138.015 67.0991 142.977C64.7501 137.648 61.1211 134.397 55.2991 134.933C49.6161 135.455 46.6051 139.156 45.3751 144.374C43.8282 143.975 42.2491 143.714 40.6561 143.594C40.1027 143.681 39.536 143.589 39.0377 143.333C38.5394 143.078 38.1353 142.67 37.8832 142.17C37.1245 140.925 35.9566 139.982 34.5792 139.503C33.2019 139.024 31.7009 139.038 30.3331 139.544C28.9866 140.028 27.8356 140.94 27.0562 142.14C26.2767 143.34 25.9118 144.762 26.0171 146.189C26.1171 147.189 26.2901 147.874 27.6641 147.872C56.2501 147.826 84.8358 147.814 113.421 147.835C113.755 147.835 114.088 147.793 114.684 147.754C111.074 143.626 106.823 142.737 101.907 144.181L101.904 144.186ZM78.0201 83.741C78.3711 83.141 78.5721 82.822 78.7551 82.49C80.6127 79.0808 82.9694 75.9685 85.7471 73.256C86.0441 72.9928 86.2783 72.6663 86.4325 72.3007C86.5867 71.935 86.6569 71.5394 86.6381 71.143C86.6051 63.976 86.6211 56.808 86.6171 49.643C86.6171 49.209 86.5781 48.775 86.5581 48.359H78.0201V83.741ZM138.478 147.771V138.884C135.822 138.084 133.544 136.352 132.065 134.005C130.601 136.372 128.322 138.122 125.657 138.927V147.771H138.478ZM142.916 134.286C143.319 134.061 143.71 133.816 144.088 133.552C148.288 130.193 148.271 122.106 144.061 118.758C143.069 117.914 141.795 117.479 140.494 117.538C139.193 117.598 137.964 118.15 137.054 119.081C133.318 122.54 133.319 129.818 137.072 133.255C137.576 133.655 138.103 134.025 138.651 134.362V126.25H142.916V134.286ZM125.563 134.323C126.132 133.96 126.485 133.779 126.787 133.536C130.981 130.153 130.941 122.071 126.721 118.742C125.744 117.917 124.494 117.486 123.216 117.535C121.938 117.584 120.724 118.109 119.813 119.007C115.957 122.462 115.979 129.957 119.868 133.365C120.34 133.726 120.832 134.06 121.342 134.365V126.265H125.563V134.323ZM95.2172 39.687H69.4052V43.857H95.2172V39.687ZM134.181 43.869V39.67H112.7V43.864L134.181 43.869ZM116.931 136.814C116.931 137.65 116.974 138.373 116.923 139.089C116.731 141.817 116.773 144.468 119.015 146.508C119.108 146.606 119.177 146.726 119.215 146.856C119.567 147.883 120.265 148.04 121.223 147.694V139.116L116.931 136.814ZM121.319 35.169H125.483V31H121.319V35.169ZM80.1871 35.19H84.3671V31.03H80.1871V35.19Z" fill="black" stroke="white" stroke-miterlimit="10"></path><path d="M104.042 113.253H108.2V117.414H104.042V113.253Z" fill="black" stroke="white" stroke-miterlimit="10"></path><path d="M99.5649 78.665V82.8H95.356V78.663L99.5649 78.665Z" fill="black" stroke="white" stroke-miterlimit="10"></path><path d="M108.209 78.634V82.787H104.032V78.634H108.209Z" fill="black" stroke="white" stroke-miterlimit="10"></path><path d="M86.687 91.47V87.317H90.864V91.47H86.687Z" fill="black" stroke="white" stroke-miterlimit="10"></path><path d="M99.519 91.484H95.353V87.323H99.519V91.484Z" fill="black" stroke="white" stroke-miterlimit="10"></path><path d="M104.042 87.275H108.2V91.436H104.042V87.275Z" fill="black" stroke="white" stroke-miterlimit="10"></path><path d="M99.5002 100.176H95.3862V95.967H99.5002V100.176Z" fill="black" stroke="white" stroke-miterlimit="10"></path><path d="M108.249 95.96V100.1H104.039V95.96H108.249Z" fill="black" stroke="white" stroke-miterlimit="10"></path><path d="M86.6812 108.767V104.609H90.8431V108.767H86.6812Z" fill="black" stroke="white" stroke-miterlimit="10"></path><path d="M95.311 108.777V104.646H99.511V108.777H95.311Z" fill="black" stroke="white" stroke-miterlimit="10"></path><path d="M108.209 104.626V108.8H104.047V104.628L108.209 104.626Z" fill="black" stroke="white" stroke-miterlimit="10"></path><path d="M86.6711 117.416V113.279H90.8801V117.416H86.6711Z" fill="black" stroke="white" stroke-miterlimit="10"></path><path d="M99.519 117.462H95.353V113.3H99.519V117.462Z" fill="black" stroke="white" stroke-miterlimit="10"></path><path d="M90.8802 100.145H86.7192V95.961H90.8802V100.145Z" fill="black" stroke="white" stroke-miterlimit="10"></path><path d="M90.844 126.135H86.707V121.926H90.844V126.135Z" fill="black" stroke="white" stroke-miterlimit="10"></path><path d="M99.5402 126.123H95.3801V121.939H99.5402V126.123Z" fill="black" stroke="white" stroke-miterlimit="10"></path><path d="M108.209 126.131H104.032V121.931H108.209V126.131Z" fill="black" stroke="white" stroke-miterlimit="10"></path><path d="M129.953 82.8V78.669H134.153V82.8H129.953Z" fill="black" stroke="white" stroke-miterlimit="10"></path><path d="M121.32 82.786V78.634H125.53V82.786H121.32Z" fill="black" stroke="white" stroke-miterlimit="10"></path><path d="M116.863 56.849H112.7V52.663H116.863V56.849Z" fill="black" stroke="white" stroke-miterlimit="10"></path><path d="M125.539 87.285V91.454H121.345V87.285H125.539Z" fill="black" stroke="white" stroke-miterlimit="10"></path><path d="M130.034 87.265H134.171V91.474H130.034V87.265Z" fill="black" stroke="white" stroke-miterlimit="10"></path><path d="M121.33 74.136V69.965H125.492V74.136H121.33Z" fill="black" stroke="white" stroke-miterlimit="10"></path><path d="M121.359 95.938H125.525V100.1H121.359V95.938Z" fill="black" stroke="white" stroke-miterlimit="10"></path><path d="M134.195 95.949V100.109H130.01V95.949H134.195Z" fill="black" stroke="white" stroke-miterlimit="10"></path><path d="M125.494 108.809H121.342V104.6H125.494V108.809Z" fill="black" stroke="white" stroke-miterlimit="10"></path><path d="M134.2 104.6V108.768H130.007V104.6H134.2Z" fill="black" stroke="white" stroke-miterlimit="10"></path><path d="M130 61.3H134.154V65.477H130V61.3Z" fill="black" stroke="white" stroke-miterlimit="10"></path><path d="M125.566 61.352V65.465H121.356V61.352H125.566Z" fill="black" stroke="white" stroke-miterlimit="10"></path><path d="M129.99 52.632H134.167V56.832H129.99V52.632Z" fill="black" stroke="white" stroke-miterlimit="10"></path><path d="M125.515 56.841H121.369V52.671H125.515V56.841Z" fill="black" stroke="white" stroke-miterlimit="10"></path><path d="M134.187 74.171H130.018V69.978H134.187V74.171Z" fill="black" stroke="white" stroke-miterlimit="10"></path><path d="M52.0452 95.929H56.2222V100.129H52.0452V95.929Z" fill="black" stroke="white" stroke-miterlimit="10"></path><path d="M60.7002 100.137V95.968H64.8932V100.137H60.7002Z" fill="black" stroke="white" stroke-miterlimit="10"></path><path d="M69.3601 100.108V95.95H73.5221V100.108H69.3601Z" fill="black" stroke="white" stroke-miterlimit="10"></path><path d="M52.042 108.771V104.606H56.204V108.771H52.042Z" fill="black" stroke="white" stroke-miterlimit="10"></path><path d="M60.7122 104.6H64.8751V108.786H60.7122V104.6Z" fill="black" stroke="white" stroke-miterlimit="10"></path><path d="M69.3701 104.592H73.5391V108.784H69.3701V104.592Z" fill="black" stroke="white" stroke-miterlimit="10"></path><path d="M56.2812 113.308V117.421H52.0713V113.308H56.2812Z" fill="black" stroke="white" stroke-miterlimit="10"></path><path d="M60.7173 113.259H64.8702V117.436H60.7173V113.259Z" fill="black" stroke="white" stroke-miterlimit="10"></path><path d="M69.3633 117.43V113.265H73.5253V117.43H69.3633Z" fill="black" stroke="white" stroke-miterlimit="10"></path><path d="M52.0781 121.912H56.2361V126.074H52.0781V121.912Z" fill="black" stroke="white" stroke-miterlimit="10"></path><path d="M64.9001 126.119H60.7451V121.942H64.9001V126.119Z" fill="black" stroke="white" stroke-miterlimit="10"></path><path d="M73.5271 126.132H69.3821V121.923H73.5271V126.132Z" fill="black" stroke="white" stroke-miterlimit="10"></path><path d="M38.9161 78.5H34.7551V74.316H38.9161V78.5Z" fill="black" stroke="white" stroke-miterlimit="10"></path><path d="M43.3911 74.287H47.5541V78.474H43.3911V74.287Z" fill="black" stroke="white" stroke-miterlimit="10"></path><path d="M56.245 74.319V78.49H52.083V74.319H56.245Z" fill="black" stroke="white" stroke-miterlimit="10"></path><path d="M38.9281 82.96V87.12H34.7432V82.96H38.9281Z" fill="black" stroke="white" stroke-miterlimit="10"></path><path d="M34.688 95.762V91.649H38.8979V95.762H34.688Z" fill="black" stroke="white" stroke-miterlimit="10"></path><path d="M38.8843 104.484H34.7402V100.275H38.8843V104.484Z" fill="black" stroke="white" stroke-miterlimit="10"></path><path d="M38.8752 113.165H34.7622V108.956H38.8752V113.165Z" fill="black" stroke="white" stroke-miterlimit="10"></path><path d="M38.9122 121.789H34.7593V117.612H38.9122V121.789Z" fill="black" stroke="white" stroke-miterlimit="10"></path><path d="M38.937 126.288V130.432H34.728V126.288H38.937Z" fill="black" stroke="white" stroke-miterlimit="10"></path></g></svg>