<svg width="auto" height="auto" viewBox="0 0 172 172" fill="none" xmlns="http://www.w3.org/2000/svg"><mask id="mask0_19_263" maskUnits="userSpaceOnUse" x="0" y="0" width="172" height="172"><path d="M172 0H0V172H172V0Z" fill="white"></path></mask><g mask="url(#mask0_19_263)"><path d="M37.8271 151.952L37.8601 140.216C37.8601 139.922 37.8601 139.628 37.8601 139.263C38.2171 139.245 38.5061 139.219 38.7961 139.219C46.0741 139.219 53.3521 139.219 60.6301 139.219C61.8941 139.219 61.7671 139.362 61.7671 138.119C61.7671 118.328 61.7648 98.5373 61.7601 78.746C61.7806 78.3526 61.7022 77.9603 61.5321 77.605C60.4594 75.7541 59.797 73.6942 59.59 71.565C59.3829 69.4358 59.6361 67.2869 60.3322 65.264C61.5561 61.7246 63.3093 58.3911 65.5321 55.377C71.0818 47.3829 78.3033 40.6909 86.6962 35.765C92.6591 32.1833 98.978 29.2307 105.551 26.955C105.834 26.9009 106.085 26.739 106.25 26.5035C106.416 26.2681 106.484 25.9774 106.439 25.693C106.408 20.683 106.422 15.673 106.423 10.663C106.423 10.463 106.441 10.269 106.454 10.004H108.794V25.804L112.506 24.688C115.566 32.2995 116.375 40.6299 114.837 48.688C116.219 49.149 117.537 49.581 118.85 50.032C119.129 50.1401 119.397 50.274 119.65 50.432C121.728 51.619 122.114 53.58 120.368 55.223C119.048 56.352 117.626 57.3563 116.121 58.223C115.86 58.3388 115.639 58.5312 115.49 58.7747C115.34 59.0182 115.267 59.3014 115.281 59.587C115.304 79.105 115.31 98.6227 115.299 118.14V119.056H133.376C133.403 119.374 133.436 119.589 133.436 119.804C133.436 130.323 133.436 140.842 133.436 151.362C133.436 151.562 133.41 151.762 133.396 151.962L37.8271 151.952ZM98.2692 40.636C98.0052 40.6975 97.7447 40.7737 97.4891 40.864C96.3461 41.358 95.1821 41.813 94.0721 42.372C88.4504 45.2351 83.0824 48.5711 78.0261 52.344C73.2279 55.8005 69.3542 60.3851 66.7471 65.693C65.038 69.1133 64.1453 72.8834 64.1392 76.707C64.2032 95.278 64.1681 113.849 64.1681 132.42C64.1681 132.594 64.1821 132.77 64.1681 132.943C64.1281 133.37 64.3252 133.517 64.7372 133.506C65.4341 133.471 66.1324 133.474 66.8291 133.513C67.5081 133.567 67.6741 133.296 67.6671 132.656C67.6381 129.89 67.6552 127.123 67.6552 124.356V123.394H73.7031V116.619H80.0471V101.251H86.4921C86.5071 100.951 86.5272 100.727 86.5292 100.507C86.5452 97.617 86.5911 94.726 86.5531 91.836C86.5421 91.046 86.7921 90.876 87.5231 90.903C88.9921 90.957 90.4642 90.919 91.9352 90.919H93.4921V90.019C93.4921 88.519 93.5182 87.027 93.4822 85.532C93.4682 84.963 93.6581 84.809 94.2081 84.818C96.0271 84.847 97.8471 84.811 99.6661 84.84C100.217 84.849 100.406 84.688 100.396 84.123C100.364 82.453 100.405 80.782 100.374 79.113C100.364 78.564 100.516 78.367 101.086 78.381C102.581 78.415 104.077 78.395 105.572 78.391C105.835 78.391 106.097 78.361 106.342 78.346C106.377 78.2507 106.402 78.1522 106.417 78.052C106.422 70.2747 106.428 62.4973 106.433 54.72C106.433 54.22 106.189 54.145 105.777 54.171C104.583 54.246 103.389 54.307 102.195 54.371C100.91 54.437 99.6251 54.497 98.2711 54.562L98.2692 40.636ZM115.359 121.552V149.479H131.009V134.43H121.709V132.061H122.574C125.166 132.061 127.758 132.061 130.349 132.061C130.649 132.061 131.06 132.176 131.065 131.661C131.075 130.498 131.065 129.334 131.065 128.085H130.086C127.519 128.085 124.952 128.095 122.386 128.067C122.142 128.067 121.713 127.843 121.692 127.682C121.639 127.014 121.627 126.344 121.658 125.675H123.594C125.862 125.675 128.13 125.684 130.394 125.657C130.617 125.657 131.025 125.432 131.03 125.298C131.08 124.063 131.06 122.825 131.06 121.559L115.359 121.552ZM112.91 149.5V148.525C112.91 119.143 112.922 89.7607 112.945 60.378C113.027 59.7757 112.927 59.1626 112.656 58.6186C112.384 58.0745 111.956 57.6248 111.425 57.328C110.539 56.7409 109.689 56.1004 108.881 55.41V149.5H112.91ZM100.383 149.494V148.324C100.383 128.408 100.383 108.492 100.383 88.575C100.383 88.35 100.364 88.124 100.383 87.902C100.434 87.397 100.255 87.186 99.7151 87.202C98.7201 87.239 97.7201 87.255 96.7261 87.202C96.0771 87.166 95.8611 87.343 95.8751 88.02C95.9181 90.062 95.8911 92.105 95.8911 94.147C95.8911 112.318 95.8911 130.489 95.8911 148.661C95.8911 148.926 95.9171 149.192 95.9321 149.494H100.383ZM106.426 149.494V148.558C106.426 126.477 106.426 104.396 106.426 82.315C106.426 81.991 106.407 81.666 106.426 81.344C106.454 80.916 106.266 80.774 105.853 80.786C105.081 80.806 104.305 80.833 103.536 80.778C102.883 80.732 102.75 80.999 102.759 81.593C102.79 83.71 102.772 85.827 102.772 87.944C102.772 108.18 102.772 128.416 102.772 148.653C102.772 148.92 102.796 149.187 102.81 149.494H106.426ZM89.0161 93.38V149.48H93.4252V93.38H89.0161ZM62.0001 71.558C62.1311 71.433 62.1602 71.419 62.1652 71.399C62.2712 71.016 62.3731 70.632 62.4791 70.249C64.5944 62.8823 68.9833 56.3724 75.0192 51.649C79.3716 48.2283 83.9857 45.1546 88.8191 42.456C91.5 40.8173 94.341 39.4563 97.2981 38.394C98.3635 37.9519 99.528 37.8038 100.67 37.965V41.4H106.356V29.236C106.012 29.348 105.756 29.424 105.5 29.517C100.295 31.394 95.2508 33.6892 90.4161 36.38C81.4391 41.439 73.6462 47.843 67.7642 56.4C65.7822 59.1217 64.1432 62.0774 62.8842 65.2C62.1055 67.2234 61.803 69.3989 62.0001 71.558ZM82.4331 149.534C83.5731 149.534 84.6161 149.477 85.6501 149.552C86.4431 149.61 86.5882 149.318 86.5872 148.586C86.5672 134.085 86.5621 119.585 86.5721 105.086C86.5721 104.812 86.5511 104.536 86.5771 104.264C86.6221 103.793 86.4051 103.664 85.9661 103.67C84.9941 103.691 84.0211 103.698 83.0511 103.67C82.5441 103.654 82.4071 103.856 82.4261 104.329C82.4611 105.175 82.4531 106.023 82.4531 106.87C82.4471 120.699 82.4404 134.528 82.4331 148.356V149.534ZM61.7201 141.667H40.3002V149.486H61.7191L61.7201 141.667ZM76.0851 149.477H79.9601V119.017C78.8741 119.017 77.8531 119.049 76.8341 119.005C76.2411 118.979 76.0651 119.173 76.0731 119.764C76.1031 122.029 76.0851 124.295 76.0851 126.564V149.48V149.477ZM73.6511 149.489V125.845H70.0931V149.489H73.6511ZM113.151 43.089C113.433 37.8586 112.718 32.6223 111.044 27.659C110.449 27.8234 109.864 28.0186 109.289 28.244C109.171 28.3061 109.069 28.3945 108.99 28.5023C108.911 28.6101 108.858 28.7345 108.835 28.866C108.809 32.9993 108.809 37.1353 108.835 41.274C108.84 41.3867 108.871 41.4967 108.926 41.5952C108.981 41.6937 109.059 41.7779 109.152 41.841C110.433 42.27 111.739 42.654 113.147 43.085L113.151 43.089ZM112.915 45.531C111.095 44.8538 109.225 44.3155 107.323 43.921C105.263 43.7545 103.194 43.7372 101.132 43.869C100.977 43.869 100.693 44.087 100.691 44.207C100.661 45.716 100.671 47.225 100.671 48.797C101.15 48.758 101.517 48.712 101.886 48.697C104.918 48.597 107.949 48.467 110.986 48.442C112.399 48.431 112.402 48.53 112.667 47.084C112.747 46.6 112.817 46.106 112.911 45.527L112.915 45.531ZM67.5552 149.5C67.5933 149.41 67.621 149.316 67.6381 149.22C67.6441 144.941 67.6542 140.663 67.6282 136.384C67.6282 136.219 67.2921 135.932 67.0951 135.915C66.4031 135.856 65.7012 135.928 65.0082 135.88C64.3742 135.835 64.1461 136.013 64.1521 136.697C64.1851 140.702 64.1671 144.707 64.1711 148.712C64.1711 148.973 64.2021 149.234 64.2181 149.5H67.5552ZM107.495 50.678C105.412 50.843 103.328 50.995 101.249 51.192C101.041 51.212 100.859 51.504 100.666 51.67C100.866 51.781 101.075 51.997 101.273 51.989C103.236 51.911 105.2 51.816 107.16 51.679C107.416 51.6509 107.675 51.6744 107.921 51.748C108.168 51.8217 108.397 51.9441 108.595 52.108C110.294 53.45 112.009 54.771 113.741 56.071C113.953 56.231 114.361 56.427 114.505 56.335C115.925 55.433 117.32 54.4933 118.691 53.516C119.162 53.178 119.003 52.772 118.507 52.545C117.864 52.2225 117.2 51.9422 116.52 51.706C113.576 50.9348 110.537 50.59 107.495 50.682V50.678Z" fill="black" stroke="black" stroke-width="0.47" stroke-miterlimit="10"></path></g></svg>