<svg width="auto" height="auto" viewBox="0 0 172 172" fill="none" xmlns="http://www.w3.org/2000/svg"><mask id="mask0_19_58" maskUnits="userSpaceOnUse" x="0" y="0" width="172" height="172"><path d="M172 0H0V172H172V0Z" fill="white"></path></mask><g mask="url(#mask0_19_58)"><path d="M151.5 81.5H19.5V150.5H151.5V81.5Z" stroke="black" stroke-width="3" stroke-miterlimit="10" stroke-linecap="round"></path><path d="M50.5 81.5H19.5V150.5H50.5V81.5Z" stroke="black" stroke-width="3" stroke-miterlimit="10" stroke-linecap="round"></path><path d="M151.5 81.5H123.5V150.5H151.5V81.5Z" stroke="black" stroke-width="3" stroke-miterlimit="10" stroke-linecap="round"></path><path d="M104.5 81.5H68.5V150.5H104.5V81.5Z" stroke="black" stroke-width="3" stroke-miterlimit="10" stroke-linecap="round"></path><path d="M104.5 89.5H68.5V101.5H104.5V89.5Z" stroke="black" stroke-width="3" stroke-miterlimit="10" stroke-linecap="round"></path><path d="M123.5 89.5H104.5V114.5H123.5V89.5Z" stroke="black" stroke-width="3" stroke-miterlimit="10" stroke-linecap="round"></path><path d="M151.5 89.5H123.5V114.5H151.5V89.5Z" stroke="black" stroke-width="3" stroke-miterlimit="10" stroke-linecap="round"></path><path d="M151.5 114.5H123.5V124.5H151.5V114.5Z" stroke="black" stroke-width="3" stroke-miterlimit="10" stroke-linecap="round"></path><path d="M50.5 114.5H66.5V89.5H50.5V114.5Z" stroke="black" stroke-width="3" stroke-miterlimit="10" stroke-linecap="round"></path><path d="M19.5 114.5H50V89.5H19.5L19.5 114.5Z" stroke="black" stroke-width="3" stroke-miterlimit="10" stroke-linecap="round"></path><path d="M19.5 124.5H50V114.5H19.5V124.5Z" stroke="black" stroke-width="3" stroke-miterlimit="10" stroke-linecap="round"></path><path d="M94.9091 148.138V136.868C94.9091 131.364 93.7346 126.022 91.6868 122.214L86.5611 112.681L81.3753 122.325C79.6218 125.586 78.6161 130.169 78.6161 134.899V148.138H94.9091ZM95.5221 151.138H78.0041C76.6851 151.138 75.6161 150.069 75.6161 148.751V134.899C75.6161 129.65 76.7371 124.616 78.7331 120.904L84.4581 110.257C85.3591 108.581 87.7631 108.581 88.6641 110.257L94.3291 120.793C96.6211 125.056 97.9091 130.839 97.9091 136.868V148.751C97.9091 150.069 96.8401 151.138 95.5221 151.138Z" fill="black"></path><path d="M114.5 123.5V139.5" stroke="black" stroke-width="3" stroke-miterlimit="10" stroke-linecap="round"></path><path d="M60.5 123.5V139.5" stroke="black" stroke-width="3" stroke-miterlimit="10" stroke-linecap="round"></path><path d="M59.5 97.5V106.5" stroke="black" stroke-width="3" stroke-miterlimit="10" stroke-linecap="round"></path><path d="M39.5 100.5V106.5" stroke="black" stroke-width="3" stroke-miterlimit="10" stroke-linecap="round"></path><path d="M30.5 100.5V106.5" stroke="black" stroke-width="3" stroke-miterlimit="10" stroke-linecap="round"></path><path d="M113.5 97.5V106.5" stroke="black" stroke-width="3" stroke-miterlimit="10" stroke-linecap="round"></path><path d="M142.5 100.5V106.5" stroke="black" stroke-width="3" stroke-miterlimit="10" stroke-linecap="round"></path><path d="M133.5 100.5V106.5" stroke="black" stroke-width="3" stroke-miterlimit="10" stroke-linecap="round"></path><path d="M128.5 72.5H44.5V81.5H128.5V72.5Z" stroke="black" stroke-width="3" stroke-miterlimit="10" stroke-linecap="round"></path><path d="M44.5 59.5H26.5V81.5H44.5V59.5Z" stroke="black" stroke-width="3" stroke-miterlimit="10" stroke-linecap="round"></path><path d="M49.5 50.5H21.5V59.5H49.5V50.5Z" stroke="black" stroke-width="3" stroke-miterlimit="10" stroke-linecap="round"></path><path d="M41.5 48.5H29.46C25.46 46.5 20.46 40.5 27.88 32.21C34.14 25.21 35.26 21.22 35.46 20.15C35.47 20.11 35.47 20.07 35.48 20.04C35.49 20.07 35.49 20.11 35.5 20.15C35.7 21.22 36.81 25.21 43.08 32.21C50.5 40.5 45.5 46.5 41.5 48.5Z" stroke="black" stroke-width="3" stroke-miterlimit="10"></path><path d="M146.5 59.5H128.5V81.5H146.5V59.5Z" stroke="black" stroke-width="3" stroke-miterlimit="10" stroke-linecap="round"></path><path d="M151.5 50.5H123.5V59.5H151.5V50.5Z" stroke="black" stroke-width="3" stroke-miterlimit="10" stroke-linecap="round"></path><path d="M143.5 48.5H131.46C127.46 46.5 122.46 40.5 129.88 32.21C136.14 25.21 137.26 21.22 137.46 20.15C137.47 20.11 137.47 20.07 137.48 20.04C137.49 20.07 137.49 20.11 137.5 20.15C137.7 21.22 138.81 25.21 145.08 32.21C152.5 40.5 147.5 46.5 143.5 48.5Z" stroke="black" stroke-width="3" stroke-miterlimit="10"></path></g></svg>