<svg width="auto" height="auto" viewBox="0 0 172 172" fill="none" xmlns="http://www.w3.org/2000/svg"><mask id="mask0_19_202" maskUnits="userSpaceOnUse" x="0" y="0" width="172" height="172"><path d="M172 0H0V172H172V0Z" fill="white"></path></mask><g mask="url(#mask0_19_202)"><path d="M23.824 152.265L23.731 150.358H27.6V136.858H23.834V134.458H27.494V123.018H23.811V120.628H27.517V108.687H23.8V106.344H27.473V93.757L23.8199 93.587V91.315H27.52V77.891H23.833V75.546H27.509V63.146H23.809V60.775H27.623V52.123L25.5229 51.938V46.326H31.045C31.595 42.199 32.577 40.858 34.855 40.926C37.032 40.995 38.006 42.401 38.416 46.205H43.9399V51.932L41.91 52.105V56.455H47.292C47.9088 54.9868 48.6421 53.5702 49.485 52.219C49.7899 51.9631 50.1437 51.7719 50.5248 51.6569C50.9059 51.5419 51.3064 51.5055 51.702 51.55C53.829 51.614 54.8211 53.095 55.1071 56.437H73.031V51.537H70V45.801H72.6851C72.7551 43.201 73.263 40.847 76.178 40.753C79.299 40.653 80.014 43.008 79.983 45.888L80.495 45.712C80.495 44.46 80.531 43.212 80.486 41.957C80.4096 41.2208 80.5324 40.4777 80.8414 39.8051C81.1505 39.1326 81.6346 38.5555 82.243 38.134C82.621 37.7275 82.8241 37.1889 82.809 36.634C82.847 33.803 82.795 30.971 82.79 28.134C82.79 27.449 82.85 26.764 82.89 25.989H92.963V34.165H85.1C85.1 35.283 85.054 36.219 85.125 37.144C85.1476 37.3254 85.2062 37.5005 85.2976 37.6589C85.389 37.8173 85.5112 37.9557 85.657 38.066C86.328 38.4842 86.8662 39.0848 87.2085 39.7976C87.5508 40.5103 87.6831 41.3058 87.59 42.091C87.5341 43.2809 87.5964 44.4734 87.776 45.651C88.132 42.83 88.889 40.493 92.17 40.738C94.096 40.881 94.962 42.238 95.433 45.738H97.9709V51.471H95.033V56.5H112.433C112.968 55.0669 113.633 53.6861 114.421 52.375C114.732 52.0897 115.096 51.8695 115.493 51.7271C115.89 51.5847 116.312 51.5232 116.733 51.546C118.842 51.519 119.86 52.99 120.295 56.453H125.982V52.126L123.934 51.953V46.347H129.505C129.505 43.489 130.019 41.082 133.186 40.954C135.323 40.869 136.098 42.046 136.874 46.275H142.385V51.934L140.317 52.108V60.652H144.155V63.087H140.329V75.439H144.166V77.815H140.335V91.243H144.168V93.618H140.334V106.273H144.183V108.626H140.338V120.586H144.158V122.937H140.358V134.437H144.197V136.793H140.318V150.343H144.241V152.265H23.824ZM93.297 150.227H105.723V123.1H62.189V150.229H74.089V148.512C74.089 144.936 74.077 141.36 74.089 137.785C74.111 132.567 78.026 128.118 82.83 127.827C84.0875 127.72 85.3538 127.864 86.5554 128.25C87.7571 128.636 88.8704 129.256 89.8308 130.075C90.7912 130.894 91.5798 131.895 92.1509 133.02C92.722 134.146 93.0643 135.373 93.158 136.632C93.448 139.983 93.271 143.379 93.297 146.755C93.305 147.888 93.3 149.022 93.3 150.227H93.297ZM105.754 77.989H62.224V91.205H105.754V77.989ZM105.754 108.812H62.239V120.512H105.754V108.812ZM137.931 136.912H108.223V150.13H137.931V136.912ZM30.059 150.137H59.731V136.925H30.059V150.137ZM93.515 106.249C93.515 104.323 93.442 102.54 93.543 100.767C93.5616 99.6872 93.7779 98.6199 94.181 97.618C94.6366 96.7091 95.3903 95.9842 96.3163 95.5644C97.2422 95.1447 98.2842 95.0556 99.2679 95.312C100.264 95.5747 101.148 96.1555 101.784 96.9661C102.42 97.7767 102.774 98.7728 102.792 99.803C102.851 101.92 102.805 104.041 102.805 106.185H105.718V93.777H62.233V106.212H65.09C65.09 105.135 65.074 104.151 65.09 103.168C65.0543 101.831 65.1041 100.492 65.239 99.161C65.3808 98.0595 65.9196 97.0475 66.7544 96.315C67.5892 95.5825 68.6627 95.1798 69.7733 95.1824C70.8839 95.1849 71.9553 95.5926 72.7867 96.329C73.6181 97.0654 74.1523 98.0798 74.2889 99.182C74.4243 100.862 74.4681 102.549 74.42 104.234C74.431 104.9 74.42 105.567 74.42 106.246L93.515 106.249ZM93.53 75.421C93.53 73.144 93.471 71.063 93.545 68.987C93.5073 67.9057 93.8462 66.8449 94.5039 65.9858C95.1616 65.1267 96.0973 64.5227 97.151 64.277C100.239 63.656 102.737 65.74 102.802 69.042C102.844 71.152 102.81 73.263 102.81 75.41H105.731V63.2H62.196V75.372H65.09V72.29C65.09 71.247 65.0639 70.204 65.0959 69.162C65.1799 66.468 66.796 64.501 69.13 64.207C72.03 63.842 74.321 65.893 74.41 69.015C74.47 71.126 74.421 73.24 74.421 75.415L93.53 75.421ZM90.879 150.244C90.879 145.588 91.14 141.019 90.8 136.501C90.6992 135.572 90.4161 134.672 89.9668 133.853C89.5175 133.034 88.9109 132.311 88.1818 131.727C87.4527 131.142 86.6155 130.708 85.718 130.448C84.8206 130.188 83.8806 130.107 82.952 130.211C81.132 130.447 79.4595 131.336 78.2456 132.713C77.0317 134.089 76.3588 135.86 76.3521 137.695C76.3111 141.117 76.343 144.541 76.343 147.964V150.244H90.879ZM59.772 77.98H41.8719V91.196H59.772V77.98ZM108.178 77.963V91.177H125.997V77.96L108.178 77.963ZM41.8929 108.757V120.496H59.757V108.754L41.8929 108.757ZM108.211 108.757V120.523H125.972V108.751L108.211 108.757ZM41.911 93.77V106.223H59.77V93.764L41.911 93.77ZM108.237 93.77V106.185H126.037V93.768L108.237 93.77ZM59.7791 63.211H41.879V75.391H59.7791V63.211ZM108.179 63.172V75.365H125.998V63.17L108.179 63.172ZM44.528 134.377V129.064H46.781V134.314H50.139V129.069H52.368V134.335H55.725V129.035H58V134.335H59.7629V123.115H41.9V134.374L44.528 134.377ZM124.328 134.326H126V123.076H108.23V134.355H110.93V129.086H113.208V134.3H116.578V129.093H118.821V134.342H122.058V129.071H124.32L124.328 134.326ZM137.928 91.201V77.972H128.419V91.2L137.928 91.201ZM39.46 77.989H30.139V91.215H39.46V77.989ZM128.409 106.174H137.932V93.774H128.409V106.174ZM128.476 63.162V75.409H137.887V63.16L128.476 63.162ZM30.1 106.226H39.4091V93.777H30.1V106.226ZM30.1071 63.197V75.382H39.462V63.2L30.1071 63.197ZM137.891 120.533V108.814H128.451V120.533H137.891ZM30.0909 120.533H39.443V108.803H30.0909V120.533ZM128.415 134.26H137.872V123.1H128.415V134.26ZM39.437 134.333V123.073H30.17V134.338L39.437 134.333ZM92.578 51.694H75.525V56.452H92.578V51.694ZM137.918 52.149H128.452V60.649H137.918V52.149ZM39.464 52.149H30.071V60.626H39.464V52.149ZM41.838 60.606H73.1639L73.071 59.056H41.838V60.606ZM126.029 59.016H95.0291V60.649H126.029V59.016ZM100.535 75.41C100.535 73.105 100.59 70.984 100.515 68.868C100.53 68.2771 100.312 67.704 99.9098 67.2712C99.5073 66.8384 98.9513 66.5803 98.361 66.552C97.151 66.523 96.0611 67.079 95.9611 68.364C95.7861 70.689 95.912 73.039 95.912 75.41H100.535ZM72.1429 75.396C72.1429 73.109 72.208 70.981 72.12 68.859C72.1203 68.5537 72.0602 68.2513 71.9432 67.9693C71.8263 67.6872 71.6548 67.431 71.4386 67.2155C71.2224 66.9999 70.9656 66.8291 70.6832 66.7131C70.4008 66.597 70.0983 66.5378 69.793 66.539C69.4877 66.529 69.1835 66.5799 68.8981 66.6888C68.6127 66.7976 68.3518 66.9622 68.1307 67.173C67.9096 67.3838 67.7327 67.6364 67.6104 67.9163C67.488 68.1962 67.4226 68.4976 67.418 68.803C67.31 70.964 67.389 73.135 67.389 75.396H72.1429ZM67.374 106.105H72.16C72.16 103.979 72.208 102.047 72.145 100.12C72.1772 99.481 71.9554 98.8552 71.5278 98.3791C71.1003 97.9031 70.5018 97.6154 69.863 97.579C69.5471 97.5696 69.2324 97.6228 68.9371 97.7356C68.6419 97.8485 68.3719 98.0187 68.1428 98.2365C67.9137 98.4542 67.7301 98.7152 67.6024 99.0043C67.4747 99.2935 67.4056 99.605 67.399 99.921C67.3 101.99 67.371 104.061 67.371 106.111L67.374 106.105ZM100.508 106.212C100.508 103.969 100.603 101.803 100.472 99.651C100.452 99.0818 100.206 98.544 99.7896 98.1557C99.3729 97.7674 98.8192 97.5603 98.25 97.58C97.983 97.5414 97.711 97.557 97.4502 97.6258C97.1894 97.6947 96.945 97.8154 96.7319 97.9809C96.5188 98.1463 96.3413 98.3529 96.2098 98.5885C96.0784 98.8241 95.9958 99.0838 95.967 99.352C95.799 101.632 95.918 103.934 95.918 106.212H100.508ZM75.493 60.65H92.552V59.035H75.49L75.493 60.65ZM83.8929 49.116C87.4869 49.116 91.081 49.127 94.675 49.099C95.0448 49.0299 95.4006 48.9001 95.728 48.715C95.372 48.527 95.017 48.176 94.66 48.174C87.5667 48.142 80.4733 48.142 73.38 48.174C73.002 48.174 72.624 48.491 72.246 48.66C72.6011 48.871 72.9897 49.0194 73.395 49.099C76.888 49.138 80.388 49.123 83.887 49.122L83.8929 49.116ZM90.754 28.279C89.031 28.279 87.441 28.249 85.854 28.311C85.6943 28.3615 85.55 28.4516 85.4346 28.573C85.3192 28.6944 85.2364 28.843 85.194 29.005C85.112 29.905 85.163 30.824 85.163 31.705H90.7531L90.754 28.279ZM126.073 49.265C126.234 49.365 126.379 49.545 126.525 49.546C130.871 49.566 135.217 49.577 139.563 49.557C139.791 49.557 140.019 49.277 140.369 49.048C138.558 48.328 126.763 48.537 126.067 49.271L126.073 49.265ZM27.764 48.789L27.714 49.352C28.1131 49.4631 28.5214 49.5377 28.934 49.575C32.809 49.592 36.684 49.599 40.559 49.566C40.9675 49.4859 41.3593 49.3361 41.717 49.123C41.3664 48.9053 40.9802 48.751 40.576 48.667C36.701 48.632 32.826 48.641 28.951 48.65C28.5509 48.6748 28.1525 48.7232 27.7581 48.795L27.764 48.789ZM85.311 45.728C85.3777 44.2968 85.3579 42.8629 85.252 41.434C85.1602 41.1431 84.9986 40.879 84.7812 40.6649C84.5639 40.4509 84.2973 40.2933 84.005 40.206C83.671 40.141 82.879 40.87 82.833 41.306C82.7382 42.7777 82.7192 44.2534 82.776 45.727L85.311 45.728ZM36.326 46.191C36.0692 45.2843 35.7404 44.3995 35.343 43.545C35.237 43.353 34.226 43.376 34.115 43.585C33.7432 44.4272 33.4422 45.2989 33.215 46.191H36.326ZM134.726 46.207C134.465 45.289 134.13 44.3935 133.726 43.529C133.626 43.342 132.585 43.391 132.476 43.609C132.13 44.4505 131.858 45.3205 131.662 46.209L134.726 46.207ZM93.28 45.707C93.0399 44.8737 92.71 44.069 92.296 43.307C92.0804 43.2111 91.8437 43.172 91.6088 43.1938C91.3738 43.2155 91.1483 43.2972 90.954 43.431C90.6272 44.1563 90.3921 44.9195 90.254 45.703L93.28 45.707ZM118.127 56.48C117.918 55.6863 117.63 54.9157 117.266 54.18C117.086 54.0663 116.88 54.0009 116.668 53.9902C116.456 53.9795 116.244 54.0239 116.054 54.119C115.633 54.8709 115.282 55.6603 115.006 56.477L118.127 56.48ZM53.0811 56.505C52.7772 55.6706 52.3986 54.8654 51.95 54.099C51.817 53.911 50.874 53.999 50.75 54.233C50.4314 54.9632 50.1901 55.7246 50.03 56.505H53.0811ZM77.842 45.688C77.6481 44.8794 77.3616 44.0959 76.988 43.353C76.7783 43.2472 76.5449 43.1971 76.3103 43.2075C76.0757 43.2178 75.8475 43.2882 75.6479 43.412C75.3088 44.1375 75.06 44.9019 74.907 45.688H77.842Z" fill="black"></path><path d="M99.521 130.5H101.557V134.7H99.521V130.5Z" fill="black"></path><path d="M65.7251 134.752V130.552H67.8052V134.752H65.7251Z" fill="black"></path><path d="M99.5 87.4V83.168H101.58V87.4H99.5Z" fill="black"></path><path d="M67.8398 83.2V87.426H65.7559V83.2H67.8398Z" fill="black"></path><path d="M101.59 112.495V116.695H99.5161V112.495H101.59Z" fill="black"></path><path d="M65.7349 112.425H67.8138V116.673H65.7349V112.425Z" fill="black"></path></g></svg>