<svg width="auto" height="auto" viewBox="0 0 172 172" fill="none" xmlns="http://www.w3.org/2000/svg"><mask id="mask0_19_224" maskUnits="userSpaceOnUse" x="0" y="0" width="172" height="172"><path d="M172 0H0V172H172V0Z" fill="white"></path></mask><g mask="url(#mask0_19_224)"><path d="M13 153.463V149.763H19.142V147.49C19.142 127 19.144 106.51 19.148 86.021C19.1261 85.1888 19.1803 84.3563 19.31 83.534C20.203 78.762 24.183 76.291 28.871 77.559C29.262 77.665 29.651 77.779 30.277 77.959C29.797 74.24 30.154 70.936 33.484 68.659C36.66 66.49 39.908 66.498 43.522 68.22V62.587H55.644V57.957C55.6026 55.8652 56.3672 53.8376 57.7795 52.294C59.1919 50.7504 61.1438 49.8091 63.231 49.665C65.2312 49.5807 67.2132 50.0755 68.939 51.09C70.5341 52.1987 72.4649 52.7183 74.401 52.56C75.159 52.503 75.925 52.551 76.645 52.551C77.928 46.906 81.668 43.816 86.562 44.209C88.7068 44.4001 90.7176 45.3338 92.2475 46.8491C93.7774 48.3644 94.7304 50.3661 94.942 52.509C97.53 52.244 100.068 53.2 102.633 51.167C106.957 47.738 113.854 49.886 115.974 55.03C116.216 55.882 116.306 56.7698 116.242 57.653C116.281 59.192 116.253 60.732 116.253 62.489H128.769V68.189C132.327 66.516 135.585 66.489 138.769 68.612C142.069 70.812 142.754 74.012 142.169 77.825C143.26 77.625 144.046 77.425 144.844 77.333C145.863 77.1647 146.907 77.2183 147.904 77.4903C148.9 77.7623 149.827 78.2462 150.619 78.9089C151.412 79.5717 152.052 80.3977 152.496 81.3305C152.94 82.2633 153.177 83.281 153.192 84.314C153.231 84.967 153.22 85.624 153.22 86.279C153.22 106.65 153.22 127.021 153.22 147.391V149.676H161V153.46L13 153.463ZM116.371 66.495V122.818H124.871V66.495H116.371ZM47.5 66.449V122.773H55.487V66.449H47.5ZM30.183 122.833V121.612C30.183 109.58 30.1807 97.5467 30.176 85.512C30.1872 84.9782 30.1277 84.4452 29.999 83.927C29.331 81.519 27.21 80.427 25.028 81.414C23.309 82.193 23.018 83.766 23.018 85.458C23.024 97.43 23.0264 109.402 23.025 121.375C23.025 121.835 23.087 122.295 23.125 122.829L30.183 122.833ZM149.283 122.812C149.328 122.257 149.399 121.797 149.399 121.338C149.405 109.44 149.405 97.5423 149.399 85.645C149.405 85.0505 149.35 84.457 149.233 83.874C149.12 83.0668 148.708 82.3317 148.078 81.8144C147.448 81.2972 146.647 81.0358 145.833 81.082C145.021 81.0614 144.229 81.3384 143.606 81.8609C142.984 82.3834 142.574 83.1154 142.454 83.919C142.322 84.6808 142.261 85.453 142.271 86.226C142.26 97.886 142.26 109.546 142.271 121.205C142.271 121.72 142.348 122.234 142.394 122.812H149.283ZM76.825 122.823V56.523H73.058V122.823H76.825ZM94.964 56.468V122.768H99V120.309C99 100.176 98.9947 80.0397 98.984 59.901C98.973 56.038 99.77 56.274 94.959 56.468H94.964ZM30.1 126.91H23.159V149.6H30.1V126.91ZM90.961 122.854V110.064C91.037 108.819 90.6468 107.589 89.8663 106.616C89.0859 105.642 87.9712 104.994 86.739 104.797C84.257 104.169 80.375 106.63 80.639 109.685C80.966 113.409 80.712 117.185 80.722 120.938C80.722 121.561 80.789 122.184 80.828 122.854H90.961ZM149.281 126.871H142.364V149.546H149.281V126.871ZM90.961 65.463C90.961 61.108 90.961 57.129 90.961 53.15C91.0131 52.0542 90.6865 50.9739 90.0361 50.0905C89.3856 49.2071 88.4509 48.5745 87.389 48.299C86.6352 48.0393 85.8305 47.9625 85.0412 48.075C84.2519 48.1875 83.5007 48.4861 82.8495 48.946C82.1983 49.406 81.6657 50.0142 81.2958 50.7204C80.9259 51.4267 80.7292 52.2108 80.722 53.008C80.718 56.2747 80.718 59.5433 80.722 62.814V65.459C82.2559 64.4936 84.0316 63.9817 85.8441 63.9824C87.6565 63.9831 89.4319 64.4964 90.965 65.463H90.961ZM90.961 102.385C90.961 98.217 90.961 94.359 90.961 90.502C90.9905 89.2602 90.5646 88.0505 89.7636 87.1011C88.9627 86.1517 87.842 85.5281 86.613 85.348C83.94 84.848 80.319 87.319 80.649 90.379C80.8376 93.4622 80.8616 96.5533 80.721 99.639V102.3C82.2757 101.384 84.0503 100.908 85.8548 100.923C87.6593 100.938 89.4257 101.443 90.965 102.385H90.961ZM80.821 149.569H90.821V134.739H80.821V149.569ZM116.369 134.7V149.561H124.844V134.7H116.369ZM128.969 134.714V149.591H138.311V134.711L128.969 134.714ZM102.9 149.558H112.24V134.786H102.9V149.558ZM68.938 149.633V134.774H59.638V149.633H68.938ZM55.489 149.627V134.744H47.5V149.627H55.489ZM138.434 87.547C138.434 83.278 138.439 79.304 138.434 75.329C138.359 74.0867 137.81 72.9205 136.9 72.071C135.99 71.2215 134.79 70.7533 133.545 70.763C132.329 70.7564 131.158 71.2246 130.282 72.0681C129.407 72.9116 128.894 74.0636 128.855 75.279C128.851 78.1903 128.851 81.1017 128.855 84.013V87.469C130.315 86.6274 131.972 86.1909 133.657 86.2046C135.342 86.2183 136.992 86.6817 138.438 87.547H138.434ZM69.084 122.847C69.084 119.147 68.966 115.647 69.126 112.161C69.2008 111.21 68.9654 110.26 68.455 109.453C67.9447 108.647 67.1868 108.028 66.295 107.688C65.4433 107.243 64.4739 107.075 63.5222 107.208C62.5704 107.34 61.6838 107.766 60.986 108.427C60.4865 108.796 60.0866 109.283 59.8223 109.845C59.558 110.407 59.4376 111.026 59.472 111.646C59.562 115.365 59.503 119.087 59.503 122.846L69.084 122.847ZM112.384 122.833C112.384 119.204 112.384 115.711 112.384 112.219C112.459 111.034 112.083 109.864 111.333 108.944C110.583 108.023 109.513 107.42 108.337 107.254C106.137 106.825 102.978 108.524 102.886 110.519C102.699 114.591 102.83 118.677 102.83 122.833H112.384ZM43.384 149.62V134.745H34.158V149.623L43.384 149.62ZM90.955 82.965C90.955 78.983 90.961 75.351 90.945 71.72C90.9476 71.3675 90.8689 71.0191 90.715 70.702C90.0999 69.6738 89.1862 68.8573 88.0956 68.3611C87.0051 67.8649 85.7893 67.7124 84.61 67.924C83.4377 68.1615 82.3936 68.8214 81.6759 69.7782C80.9582 70.735 80.6169 71.9221 80.717 73.114C80.717 74.0674 80.717 75.0207 80.717 75.974V82.935C82.2572 81.9822 84.0336 81.4802 85.8447 81.486C87.6558 81.4918 89.429 82.0052 90.963 82.968L90.955 82.965ZM102.838 69.589C104.292 68.7562 105.941 68.3221 107.617 68.3305C109.293 68.3389 110.937 68.7896 112.383 69.637C112.383 65.637 112.383 61.951 112.383 58.263C112.463 57.2539 112.191 56.2482 111.615 55.4161C111.039 54.5839 110.193 53.9763 109.22 53.696C106.52 52.688 102.984 54.455 102.882 57.075C102.729 61.159 102.846 65.25 102.846 69.592L102.838 69.589ZM69.014 69.625C69.014 65.487 69.065 61.625 68.996 57.761C68.968 57.1401 68.8136 56.5315 68.5424 55.9723C68.2712 55.4131 67.8888 54.915 67.4186 54.5086C66.9483 54.1022 66.4002 53.796 65.8076 53.6087C65.215 53.4213 64.5904 53.3568 63.972 53.419C62.7824 53.4314 61.6457 53.9122 60.8083 54.7572C59.971 55.6023 59.5005 56.7434 59.499 57.933C59.499 60.491 59.499 63.049 59.499 65.607V69.607C60.9474 68.7709 62.591 68.3325 64.2633 68.3362C65.9357 68.3399 67.5773 68.7855 69.022 69.628L69.014 69.625ZM43.451 87.471C43.451 83.122 43.496 79.027 43.434 74.933C43.399 72.625 41.076 70.692 38.609 70.758C37.4192 70.7594 36.277 71.2252 35.4255 72.0562C34.574 72.8871 34.0805 74.0176 34.05 75.207C34.05 78.121 34.072 81.034 34.082 83.948C34.082 85.033 34.082 86.118 34.082 87.448C35.5069 86.6204 37.1263 86.1867 38.774 86.1913C40.4218 86.1958 42.0387 86.6385 43.459 87.474L43.451 87.471ZM138.431 122.802C138.431 119.322 138.431 115.951 138.431 112.579C138.472 111.512 138.143 110.463 137.5 109.61C136.856 108.757 135.938 108.153 134.9 107.9C132.488 107.231 129.021 108.915 128.924 111.056C128.747 114.949 128.874 118.856 128.874 122.8L138.431 122.802ZM112.383 104.702C112.383 100.802 112.383 97.228 112.383 93.657C112.461 92.6472 112.189 91.6414 111.614 90.808C111.038 89.9746 110.194 89.3642 109.222 89.079C106.542 88.079 102.922 89.895 102.84 92.441C102.715 96.414 102.807 100.393 102.807 104.627C104.27 103.796 105.927 103.366 107.61 103.38C109.292 103.394 110.942 103.852 112.391 104.707L112.383 104.702ZM69.083 104.67C69.083 100.83 69.083 97.222 69.083 93.614C69.1314 92.5722 68.8217 91.5452 68.2053 90.7039C67.5889 89.8626 66.703 89.2578 65.695 88.99C63.141 88.18 59.609 89.984 59.539 92.303C59.419 96.328 59.506 100.359 59.506 104.678C62.751 102.836 65.832 103.061 69.088 104.675L69.083 104.67ZM43.543 122.857C43.543 119.252 43.55 115.817 43.543 112.382C43.5409 111.762 43.4147 111.149 43.1718 110.579C42.9289 110.009 42.5742 109.493 42.1288 109.063C41.6833 108.632 41.1561 108.295 40.5782 108.071C40.0003 107.847 39.3834 107.741 38.764 107.76C38.1441 107.724 37.5235 107.818 36.9421 108.036C36.3606 108.253 35.8311 108.591 35.3876 109.025C34.9441 109.46 34.5964 109.982 34.3667 110.559C34.137 111.136 34.0305 111.755 34.054 112.375C34.05 114.635 34.05 116.895 34.054 119.155V122.855L43.543 122.857ZM128.856 105.216C132.093 103.36 135.177 103.548 138.434 105.235C138.434 101.601 138.434 98.235 138.434 94.861C138.438 93.5815 137.937 92.3521 137.04 91.4396C136.143 90.5271 134.922 90.0052 133.643 89.987C131.521 89.943 128.928 91.761 128.885 93.533C128.8 97.331 128.861 101.128 128.861 105.221L128.856 105.216ZM34.056 105.157C35.5019 104.333 37.1382 103.901 38.8024 103.905C40.4667 103.909 42.101 104.348 43.543 105.179C43.543 101.557 43.543 98.233 43.543 94.909C43.5935 93.7183 43.1903 92.5528 42.4148 91.6477C41.6393 90.7427 40.5494 90.1656 39.365 90.033C37.001 89.661 34.118 91.584 34.077 93.693C34.009 97.383 34.061 101.071 34.061 105.162L34.056 105.157ZM112.386 86.049C112.386 83.049 112.386 80.086 112.386 77.122C112.45 75.9366 112.064 74.7707 111.306 73.8572C110.548 72.9438 109.473 72.3502 108.296 72.195C106.102 71.786 102.983 73.526 102.879 75.512C102.698 78.973 102.829 82.45 102.829 85.974C106.591 84.971 106.352 84.119 112.391 86.054L112.386 86.049ZM69.086 86.306C69.086 83.02 69.086 80.056 69.086 77.092C69.1248 75.8745 68.6999 74.6877 67.8973 73.7714C67.0946 72.8552 65.974 72.2778 64.762 72.156C62.715 71.876 59.672 73.572 59.58 75.364C59.399 78.88 59.527 82.412 59.527 86.177C60.9899 85.3513 62.6459 84.9286 64.3256 84.9522C66.0054 84.9757 67.6488 85.4446 69.088 86.311L69.086 86.306ZM73.049 134.722V149.54H76.819V134.727L73.049 134.722ZM94.957 134.74V149.558H98.897V134.745L94.957 134.74ZM90.82 130.687V126.869H80.836V130.687H90.82ZM69.007 126.9H59.637V130.637H69.007V126.9ZM128.96 126.855V130.67H138.325V126.855H128.96ZM112.294 130.678V126.927H102.915V130.678H112.294ZM43.44 126.9H34.187V130.683H43.44V126.9ZM124.929 126.874H116.355V130.651H124.929V126.874ZM47.481 130.662H55.515V126.927H47.481V130.662ZM72.999 130.672H76.823V126.882H73L72.999 130.672ZM98.847 130.689V126.87H94.941V130.689H98.847Z" fill="black" stroke="white" stroke-width="0.75" stroke-miterlimit="10"></path><path d="M84.2151 113.464H87.73V118.464H84.2151V113.464Z" fill="black" stroke="white" stroke-width="0.75" stroke-miterlimit="10"></path><path d="M87.76 59.015H84.223V53.992H87.76V59.015Z" fill="black" stroke="white" stroke-width="0.75" stroke-miterlimit="10"></path><path d="M84.179 139.692H87.7719V144.622H84.179V139.692Z" fill="black" stroke="white" stroke-width="0.75" stroke-miterlimit="10"></path><path d="M135.551 139.7V144.6H131.819V139.7H135.551Z" fill="black" stroke="white" stroke-width="0.75" stroke-miterlimit="10"></path><path d="M109.473 139.74V144.632H105.817V139.74H109.473Z" fill="black" stroke="white" stroke-width="0.75" stroke-miterlimit="10"></path><path d="M62.4551 144.618V139.748H66.1611V144.618H62.4551Z" fill="black" stroke="white" stroke-width="0.75" stroke-miterlimit="10"></path><path d="M135.542 76.275V81.253H131.865V76.275H135.542Z" fill="black" stroke="white" stroke-width="0.75" stroke-miterlimit="10"></path><path d="M62.4871 113.459H66.1561V118.408H62.4871V113.459Z" fill="black" stroke="white" stroke-width="0.75" stroke-miterlimit="10"></path><path d="M109.477 113.48V118.457H105.817V113.48H109.477Z" fill="black" stroke="white" stroke-width="0.75" stroke-miterlimit="10"></path><path d="M37.056 139.69H40.662V144.608H37.056V139.69Z" fill="black" stroke="white" stroke-width="0.75" stroke-miterlimit="10"></path><path d="M105.808 59.1H109.448V64.113H105.808V59.1Z" fill="black" stroke="white" stroke-width="0.75" stroke-miterlimit="10"></path><path d="M66.161 64.127H62.48V59.147H66.161V64.127Z" fill="black" stroke="white" stroke-width="0.75" stroke-miterlimit="10"></path><path d="M37.015 81.238V76.261H40.658V81.238H37.015Z" fill="black" stroke="white" stroke-width="0.75" stroke-miterlimit="10"></path><path d="M135.526 113.47V118.459H131.851V113.47H135.526Z" fill="black" stroke="white" stroke-width="0.75" stroke-miterlimit="10"></path><path d="M37.069 113.459H40.646V118.487H37.069V113.459Z" fill="black" stroke="white" stroke-width="0.75" stroke-miterlimit="10"></path></g></svg>