<svg width="auto" height="auto" viewBox="0 0 172 172" fill="none" xmlns="http://www.w3.org/2000/svg"><mask id="mask0_19_215" maskUnits="userSpaceOnUse" x="0" y="0" width="172" height="172"><path d="M172 0H0V172H172V0Z" fill="white"></path></mask><g mask="url(#mask0_19_215)"><path d="M155.16 150.06H154.3C153.873 150.06 153.447 150.017 153.034 149.994V100.43C153.969 100.296 155.045 100.399 155.04 98.791C155.035 97.183 153.94 97.332 152.968 97.176C152.968 96.517 152.968 95.916 152.968 95.315C152.945 91.883 153.443 90.901 150.023 91.03C149.992 91.03 149.96 90.971 149.779 90.787V89.46C149.779 87.007 149.79 84.554 149.771 82.101C149.745 78.671 148.929 75.525 146.782 73.379C145.136 71.734 143.882 70.197 144.272 67.298C144.325 66.905 143.462 65.869 143.165 65.951C142.87 66.0986 142.61 66.3079 142.403 66.5649C142.196 66.8218 142.046 67.1202 141.965 67.44C141.869 68.2974 141.843 69.1613 141.886 70.023C141.879 70.4855 141.722 70.9332 141.439 71.299C137.6 74.374 136.195 78.85 136.468 84.399C136.574 86.571 136.485 88.759 136.485 91.02C135.975 91.051 135.619 91.085 135.262 91.092C133.562 91.126 133.31 91.449 133.304 93.618C133.304 94.818 133.304 96.018 133.304 97.229C132.219 97.263 131.241 97.279 131.211 98.761C131.178 100.441 132.364 100.261 133.218 100.441V107.677H114.463C114.463 104.495 114.482 101.436 114.463 98.377C114.435 94.629 113.363 91.347 110.928 89.217C109.29 87.787 108.211 86.446 108.606 83.773C108.74 82.862 108.152 82.073 107.421 82.306C107.129 82.4682 106.875 82.69 106.674 82.9571C106.474 83.2241 106.332 83.5304 106.258 83.856C106.167 84.766 106.142 85.6814 106.184 86.595C106.158 87.0542 106.002 87.4964 105.732 87.869C104.804 88.929 103.814 89.902 102.798 90.96C102.269 90.085 101.313 89.196 101.189 88.152C101.033 85.907 101.007 83.655 101.111 81.407C101.551 81.365 101.946 81.472 102.172 81.275C102.692 80.9187 103.085 80.4064 103.294 79.812C103.359 79.391 102.668 78.312 102.416 78.364C100.778 78.681 100.716 77.21 100.422 75.911C100.235 75.076 100.022 74.245 99.768 73.441C98.108 68.247 95.693 63.919 91.35 61.75C90.9775 61.379 90.7668 60.8757 90.764 60.35C90.717 58.676 90.672 56.867 89.623 55.803C88.131 54.29 88.072 52.428 88.179 50.37C88.208 49.81 88.189 49.246 88.179 48.684C88.161 47.67 87.799 46.978 86.944 46.997C86.089 47.016 85.753 47.749 85.744 48.742C85.73 50.071 85.819 51.411 85.704 52.724C85.5872 53.4452 85.3466 54.1407 84.993 54.78C84.522 55.78 83.51 56.746 83.548 57.673C83.686 60.967 81.921 61.893 80.108 63.278C76.521 66.019 74.721 70.504 73.534 75.411C73.313 76.324 73.134 77.255 72.934 78.186C71.945 78.343 70.664 77.886 70.597 79.703C70.53 81.503 71.818 81.219 72.884 81.453C72.477 84.743 73.897 88.461 71.023 90.871C70.7311 90.4724 70.4001 90.1039 70.035 89.771C69.0951 89.1142 68.3705 88.1941 67.9521 87.1265C67.5338 86.0589 67.4405 84.8915 67.684 83.771C67.809 82.859 67.231 82.096 66.484 82.304C66.2015 82.4427 65.9524 82.6407 65.7536 82.8846C65.5547 83.1285 65.4109 83.4124 65.332 83.717C65.252 84.5745 65.2209 85.4359 65.239 86.297C65.1963 86.8277 64.9749 87.3283 64.611 87.717C61.047 90.34 59.343 94.193 59.471 99.391C59.538 102.132 59.483 104.878 59.483 107.717H40.683V100.448C41.598 100.289 42.698 100.424 42.731 98.848C42.767 97.148 41.545 97.397 40.614 97.134C40.614 96.417 40.614 95.761 40.614 95.104C40.604 91.051 40.87 91.197 37.433 91.004C37.433 87.962 37.439 85.012 37.433 82.061C37.425 78.555 36.515 75.414 34.344 73.237C32.753 71.637 31.605 70.137 31.961 67.368C32.014 66.952 31.228 66.026 30.75 65.922C30.035 65.767 29.609 66.537 29.598 67.501C29.589 68.268 29.544 69.04 29.604 69.801C29.6627 70.1734 29.6147 70.5548 29.4655 70.901C29.3163 71.2472 29.072 71.544 28.761 71.757C27.3664 72.8732 26.2366 74.2846 25.453 75.8898C24.6694 77.4949 24.2513 79.2539 24.229 81.04C24.146 82.516 24.187 84.002 24.182 85.484C24.176 87.308 24.182 89.132 24.182 91.036C23.667 91.066 23.311 91.102 22.955 91.104C21.236 91.117 21.005 91.404 20.996 93.61C20.991 94.81 20.996 96.01 20.996 97.244C19.938 97.305 18.933 97.226 18.891 98.744C18.843 100.473 20.036 100.253 20.914 100.484V150.073H18.581C18.581 150.465 18.586 150.858 18.586 151.251C18.586 151.88 18.579 152.51 18.579 153.14H20.387L155.171 153.149C155.163 152.163 155.161 151.121 155.16 150.06ZM143.872 144.282C143.217 144.282 142.562 144.282 141.907 144.274V144.34H135.842V132.793H150.442V144.341H144.358V144.28L143.872 144.282ZM142.365 129.447C142.398 129.447 141.912 129.472 141.645 129.456H135.824V117.951H150.4V129.5H144.35V129.453C143.692 129.455 143.028 129.454 142.365 129.447ZM135.827 114.684V100.433H150.449V114.684H135.827ZM142.603 74.084C142.734 74.0003 142.886 73.9545 143.041 73.9519C143.197 73.9492 143.35 73.9898 143.484 74.069C144.543 74.8229 145.424 75.799 146.066 76.929C146.708 78.059 147.095 79.3156 147.201 80.611H139.058C139.334 78.0556 140.607 75.7122 142.6 74.089L142.603 74.084ZM139.041 83.872H147.258V91H144.358C144.358 90.032 144.366 89.087 144.358 88.143C144.348 87.16 144.03 86.381 143.189 86.343C142.276 86.307 141.927 87.1 141.914 88.155C141.903 89.066 141.914 89.976 141.914 91.034H139.05L139.041 83.872ZM135.78 94.3H150.422V97.148H135.78V94.3ZM114.554 111.017H133.248V114.692H114.554V111.017ZM125.141 124.8C125.03 124.582 124.861 124.398 124.653 124.269C124.446 124.139 124.207 124.068 123.962 124.064C123.717 124.059 123.476 124.121 123.264 124.243C123.052 124.365 122.876 124.542 122.757 124.756C121.848 125.956 121.1 127.337 120.231 128.583C119.938 129.002 119.498 129.495 119.105 129.524C117.618 129.634 116.123 129.568 114.557 129.568V117.928H133.19V129.567C131.569 129.567 129.99 129.61 128.423 129.528C128.14 129.513 127.831 129.028 127.609 128.684C126.776 127.4 126.034 126.017 125.141 124.8ZM125.318 129.438H122.573C123.055 128.658 123.404 128.091 123.88 127.32L125.318 129.438ZM114.524 132.766H133.214V144.42C131.551 144.42 129.9 144.436 128.249 144.398C128.199 144.392 128.151 144.372 128.113 144.339H127.63C126.918 144.339 126.206 144.336 125.493 144.33C125.531 144.33 125.472 144.33 125.376 144.33V144.337H124.339C124.069 144.379 123.796 144.394 123.523 144.382C122.743 144.416 121.941 144.358 121.176 144.358C120.691 144.358 120.176 144.326 119.659 144.304C119.47 144.418 119.249 144.471 119.029 144.453C117.576 144.383 116.12 144.432 114.52 144.432L114.524 132.766ZM107.272 90.352C107.357 90.3011 107.453 90.2699 107.552 90.2606C107.651 90.2512 107.751 90.264 107.844 90.298C109.607 90.844 111.712 94.439 111.729 96.998H103.537C103.668 95.6934 104.068 94.43 104.711 93.2872C105.353 92.1444 106.225 91.1468 107.272 90.357V90.352ZM103.508 100.243H111.952V114.643H103.508V100.243ZM111.695 144.326C111.695 144.317 111.671 144.312 111.659 144.305H109.659C108.339 144.464 107.007 144.478 105.684 144.348H103.521V132.781H111.955V144.31H111.695V144.326ZM103.495 117.926H111.93V129.5H110.945C110.918 129.726 107.078 129.467 105.536 129.454H105.377C105.09 129.454 104.905 129.467 104.901 129.5C104.901 129.484 104.901 129.469 104.901 129.454H103.5L103.495 117.926ZM96.235 112.467C96.226 111.167 96.545 110.767 97.545 110.86C98.626 110.96 99.716 110.883 100.923 110.883V144.374C99.492 144.374 98.091 144.415 96.695 144.319C96.533 144.308 96.283 143.544 96.278 143.125C96.242 140.111 96.258 137.096 96.258 134.081C96.262 126.88 96.288 119.675 96.239 112.471L96.235 112.467ZM85.823 120.085C86.5958 119.842 87.4262 119.854 88.192 120.118C91.618 121.327 93.792 125.061 93.806 129.565C93.815 133.956 93.806 138.347 93.806 142.739V144.333H80.153C80.132 143.76 80.099 143.263 80.098 142.767C80.09 138.376 80.0863 133.985 80.087 129.593C80.089 125.1 82.38 121.234 85.827 120.089L85.823 120.085ZM80.165 121.013V111.013H93.74V120.979C89.186 115.418 84.71 115.428 80.169 121.017L80.165 121.013ZM73.059 107.713V103.879H100.822V107.713H73.059ZM87.059 94.558C88.62 96.094 88.699 98.068 88.491 100.275H85.6C85 97.789 85.476 95.9 87.061 94.561L87.059 94.558ZM100.859 100.583H91.1V97.083H100.859V100.583ZM86.85 56.871C87.4612 57.2871 87.916 57.8954 88.1422 58.5994C88.3685 59.3033 88.3532 60.0626 88.099 60.757H85.752C85.5738 60.0701 85.5816 59.3482 85.7746 58.6653C85.9676 57.9824 86.3387 57.3631 86.85 56.871ZM85.641 63.911C91.871 63.138 97.585 69.556 98.276 78.175H75.77C75.331 72.3 80.718 64.521 85.641 63.911ZM98.541 81.441V87.026H94.753V81.441H98.541ZM92.183 86.333C92.175 86.589 91.822 87.027 91.614 87.041C90.533 87.113 89.447 87.075 88.231 87.075V81.438H92.209C92.211 83.108 92.237 84.722 92.185 86.333H92.183ZM85.683 81.433V86.972H81.84V81.433H85.683ZM75.351 81.393H79.223V86.993H75.351V81.393ZM76.307 90.169C78.133 90.112 79.961 90.149 81.788 90.149C86.988 90.149 92.182 90.133 97.378 90.158C99.42 90.168 100.614 91.484 100.764 93.899C97.276 93.899 93.795 93.926 90.316 93.856C89.971 93.849 89.596 93.297 89.299 92.919C87.478 90.595 86.541 90.535 84.753 92.892C84.5405 93.2276 84.2425 93.5006 83.8896 93.6828C83.5367 93.8651 83.1416 93.95 82.745 93.929C79.545 93.876 76.353 93.908 73.145 93.908C73.353 91.547 74.473 90.225 76.307 90.168V90.169ZM73.057 97.08H82.875V100.6H73.057V97.08ZM73.044 110.975H77.565V144.318H73.044V110.975ZM65.956 90.375C66.0823 90.3229 66.2192 90.3017 66.3553 90.313C66.4915 90.3243 66.623 90.3678 66.739 90.44C67.7597 91.2345 68.6114 92.2248 69.2444 93.3528C69.8773 94.4808 70.2787 95.7238 70.425 97.009H62.17C62.236 94.419 64.115 91.135 65.956 90.371V90.375ZM61.972 100.264H70.46V114.733H61.972V100.264ZM61.958 117.95H70.477V129.45H67.306V129.324C66.492 129.324 65.59 129.324 64.856 129.324V129.461H61.956L61.958 117.95ZM61.906 133.781C61.919 133.398 62.323 132.721 62.557 132.714C65.149 132.638 67.742 132.666 70.488 132.666V144.439C70.103 144.439 69.721 144.449 69.343 144.454V144.512C69.327 144.712 63.308 144.397 63.299 144.512C63.299 144.462 63.305 144.412 63.309 144.362H61.88V139.6C61.876 137.657 61.839 135.714 61.906 133.777V133.781ZM51.3 124.71C51.193 124.516 51.0365 124.353 50.8464 124.239C50.6562 124.124 50.4392 124.062 50.2173 124.059C49.9955 124.055 49.7766 124.11 49.583 124.219C49.3894 124.327 49.2279 124.485 49.115 124.676C48.176 125.904 47.385 127.309 46.482 128.583C46.182 129.001 45.751 129.502 45.359 129.53C43.832 129.64 42.297 129.575 40.69 129.575V117.935H59.316V129.573C57.736 129.573 56.201 129.627 54.673 129.527C54.373 129.507 54.063 128.927 53.812 128.549C52.967 127.276 52.2 125.908 51.3 124.71ZM51.524 129.443H48.846L50.181 127.291C50.67 128.075 51.024 128.642 51.524 129.443ZM59.334 132.789V144.435C58.165 144.435 56.942 144.347 55.734 144.461C55.356 144.519 54.9695 144.471 54.617 144.323C54.311 144.323 54.005 144.335 53.7 144.335C52.6885 144.428 51.671 144.437 50.658 144.363H50.47C49.948 144.425 47.77 144.363 47.563 144.363C47.428 144.363 46.409 144.344 45.59 144.333C45.2264 144.468 44.8354 144.512 44.451 144.461C43.245 144.353 42.028 144.437 40.671 144.437V132.789H59.334ZM40.653 111.011H59.33V114.683H40.652L40.653 111.011ZM30.408 74.1C30.5368 74.0138 30.687 73.9651 30.8419 73.9595C30.9968 73.9538 31.1502 73.9914 31.285 74.068C32.2866 74.8716 33.1184 75.8664 33.7319 76.9945C34.3455 78.1226 34.7286 79.3615 34.859 80.639H26.741C26.8385 79.3476 27.2172 78.0931 27.8506 76.9636C28.4841 75.834 29.3569 74.8566 30.408 74.1ZM26.708 83.9H34.908V91.014H32.036C32.036 89.969 32.049 89.014 32.036 88.06C32.018 87.043 31.604 86.36 30.786 86.367C29.949 86.374 29.595 87.088 29.604 88.108C29.612 89.022 29.604 89.935 29.604 90.983H26.714L26.708 83.9ZM23.5 94.284H38.1V97.166H23.5V94.284ZM23.507 100.46H38.06V114.66H23.509L23.507 100.46ZM23.521 117.909H38.075V129.469H32.032V129.433C31.323 129.438 30.422 129.441 29.587 129.439V129.461H23.521V117.909ZM23.527 132.719H38.066V144.308H33.419L33.411 144.331C33.311 144.571 30.686 144.361 30.389 144.361C30.289 144.361 29.876 144.339 29.384 144.318H27.39C27.381 144.318 27.369 144.326 27.367 144.331L27.372 144.318H23.527V132.719ZM150.462 149.942H23.537V147.613H150.464L150.462 149.942Z" fill="black" stroke="white" stroke-width="0.25" stroke-miterlimit="10"></path><path d="M143.128 105.2C143.679 105.259 144.185 105.532 144.537 105.961C144.889 106.389 145.059 106.938 145.011 107.49C145.05 107.774 145.033 108.064 144.96 108.341C144.886 108.619 144.758 108.879 144.584 109.107C144.409 109.335 144.19 109.526 143.941 109.668C143.692 109.811 143.417 109.903 143.132 109.938C142.581 109.88 142.074 109.608 141.722 109.18C141.369 108.752 141.199 108.203 141.247 107.651C141.207 107.366 141.224 107.076 141.297 106.798C141.37 106.52 141.498 106.259 141.673 106.031C141.848 105.802 142.067 105.611 142.317 105.469C142.567 105.326 142.842 105.235 143.128 105.2Z" fill="black" stroke="white" stroke-width="0.25" stroke-miterlimit="10"></path><path d="M32.7079 107.629C32.7312 107.913 32.6971 108.199 32.6076 108.47C32.5181 108.741 32.3751 108.991 32.1871 109.206C31.999 109.421 31.7698 109.595 31.5129 109.719C31.2561 109.844 30.9769 109.915 30.6919 109.929C30.1423 109.824 29.6524 109.516 29.3202 109.065C28.988 108.615 28.8379 108.056 28.8999 107.5C28.8771 107.216 28.9114 106.93 29.0008 106.66C29.0902 106.389 29.2329 106.14 29.4204 105.925C29.608 105.711 29.8366 105.536 30.0927 105.412C30.3489 105.287 30.6275 105.215 30.9119 105.2C31.4604 105.308 31.9487 105.617 32.281 106.066C32.6133 106.516 32.7656 107.073 32.7079 107.629Z" fill="black" stroke="white" stroke-width="0.25" stroke-miterlimit="10"></path></g></svg>