<svg width="auto" height="auto" viewBox="0 0 172 172" fill="none" xmlns="http://www.w3.org/2000/svg"><mask id="mask0_19_270" maskUnits="userSpaceOnUse" x="0" y="0" width="172" height="172"><path d="M172 0H0V172H172V0Z" fill="white"></path></mask><g mask="url(#mask0_19_270)"><path d="M10.85 152.843C10.7238 152.48 10.658 152.098 10.655 151.714C10.6608 151.566 10.6959 151.421 10.7584 151.287C10.821 151.152 10.9096 151.032 11.0192 150.933C11.1287 150.833 11.257 150.756 11.3966 150.707C11.5362 150.658 11.6842 150.637 11.832 150.645C13.182 150.665 14.5321 150.624 15.8831 150.663C16.5031 150.681 16.708 150.463 16.703 149.81C16.679 146.693 16.693 143.575 16.693 140.458V103.129C16.693 101.862 16.6931 101.863 15.5031 101.858C14.9781 101.858 14.452 101.876 13.929 101.841C13.7593 101.851 13.5895 101.823 13.4316 101.76C13.2738 101.697 13.1318 101.6 13.0156 101.476C12.8995 101.352 12.8121 101.204 12.7596 101.043C12.7072 100.881 12.6909 100.71 12.712 100.541C12.692 98.0523 12.692 95.5637 12.712 93.075C12.72 92.236 13.248 91.769 14.162 91.723C14.7615 91.6904 15.3625 91.6904 15.962 91.723C16.531 91.757 16.703 91.496 16.698 90.935C16.68 88.944 16.692 86.953 16.692 84.962C16.692 77.8633 16.692 70.7633 16.692 63.662C16.692 61.387 16.7 59.113 16.692 56.838C16.6543 56.5408 16.7172 56.2396 16.8707 55.9824C17.0243 55.7252 17.2595 55.5268 17.5389 55.419C18.2779 55.137 19.019 55.706 19.061 56.644C19.108 57.689 19.104 58.744 19.072 59.786C19.053 60.416 19.2379 60.667 19.8719 60.672C22.0909 60.691 22.089 60.712 22.092 58.364C22.0747 57.7637 22.0876 57.1629 22.131 56.564C22.1314 56.4035 22.1636 56.2447 22.2258 56.0968C22.288 55.9488 22.3789 55.8147 22.4933 55.7021C22.6077 55.5896 22.7434 55.5009 22.8923 55.4411C23.0413 55.3814 23.2005 55.3517 23.361 55.354C24.03 55.396 24.435 55.868 24.451 56.692C24.471 57.766 24.4727 58.84 24.4561 59.914C24.4471 60.444 24.63 60.687 25.156 60.665C25.756 60.64 26.3561 60.65 26.9561 60.665C27.4041 60.674 27.578 60.465 27.572 59.998C27.558 58.924 27.558 57.85 27.572 56.776C27.585 55.899 28.049 55.35 28.741 55.351C29.433 55.352 29.915 55.903 29.941 56.777C29.965 57.72 29.95 58.663 29.952 59.606C29.952 60.66 29.952 60.663 30.924 60.664C33.824 60.664 36.724 60.644 39.624 60.681C40.324 60.69 40.598 60.501 40.569 59.721C40.515 58.257 40.569 56.789 40.549 55.321C40.4634 53.3133 41.0649 51.3363 42.254 49.7164C43.4432 48.0964 45.1489 46.9301 47.09 46.41C47.2112 46.4007 47.3291 46.3654 47.4355 46.3067C47.542 46.2479 47.6346 46.1669 47.7072 46.0693C47.7797 45.9717 47.8305 45.8596 47.856 45.7407C47.8815 45.6218 47.8811 45.4988 47.855 45.38C47.8228 44.9361 47.8362 44.4901 47.895 44.049C47.9011 43.9008 47.938 43.7555 48.0033 43.6223C48.0686 43.4892 48.1609 43.3711 48.2743 43.2755C48.3877 43.1799 48.5198 43.109 48.6621 43.0673C48.8044 43.0255 48.9539 43.0138 49.101 43.033C49.761 43.048 50.083 43.462 50.191 44.105C50.1981 44.1304 50.2008 44.1567 50.199 44.183C49.847 45.857 50.783 46.283 52.108 46.783C53.6527 47.3227 54.998 48.3171 55.9672 49.6355C56.9363 50.9539 57.4838 52.5346 57.538 54.17C57.732 56.456 57.588 58.77 57.623 61.076C57.6175 61.2189 57.6407 61.3615 57.6912 61.4953C57.7417 61.6291 57.8184 61.7514 57.917 61.855C58.38 62.142 58.757 61.842 58.76 61.229C58.769 59.108 58.76 56.986 58.765 54.864C58.7531 52.9627 59.3644 51.1098 60.5054 49.5888C61.6464 48.0678 63.2543 46.9625 65.083 46.442C65.842 46.255 66.238 45.948 66.111 45.078C66.0666 44.7117 66.0784 44.3407 66.146 43.978C66.164 43.7051 66.2874 43.45 66.49 43.2664C66.6926 43.0828 66.9588 42.9851 67.2321 42.994C67.3661 42.9758 67.5024 42.9844 67.6331 43.0193C67.7637 43.0542 67.8861 43.1147 67.9932 43.1973C68.1003 43.2799 68.1899 43.383 68.2568 43.5005C68.3238 43.6181 68.3667 43.7477 68.3831 43.882C68.4563 44.3982 68.4861 44.9198 68.472 45.441C68.472 45.894 68.584 46.184 69.048 46.292C70.3717 46.6245 71.6123 47.2271 72.692 48.062C72.8371 48.1212 72.994 48.1456 73.1503 48.1335C73.3065 48.1213 73.4578 48.0729 73.592 47.992C76.901 45.9995 80.6965 44.9612 84.559 44.992C88.4452 44.9621 92.2611 46.0293 95.568 48.071C95.7468 48.1949 95.9617 48.2558 96.179 48.2443C96.3962 48.2327 96.6033 48.1492 96.7679 48.007C97.8045 47.4054 98.8807 46.8749 99.989 46.419C100.503 46.207 100.813 46.012 100.745 45.387C100.713 45.021 100.713 44.6529 100.745 44.287C100.737 44.12 100.763 43.9532 100.823 43.7971C100.883 43.641 100.975 43.4992 101.093 43.3806C101.211 43.2621 101.352 43.1695 101.508 43.1088C101.663 43.0481 101.83 43.0206 101.997 43.028C102.697 43.045 103.087 43.481 103.121 44.301C103.146 44.875 102.972 45.591 103.237 45.982C103.502 46.373 104.201 46.409 104.71 46.601C106.447 47.2496 107.939 48.4246 108.976 49.962C110.013 51.4994 110.543 53.3222 110.494 55.176C110.502 57.139 110.506 59.103 110.487 61.066C110.481 61.626 110.576 61.942 111.219 61.934C111.862 61.926 112.035 61.685 112.026 61.048C111.997 59.007 112.013 56.965 112.016 54.924C111.98 52.9839 112.6 51.0885 113.775 49.5447C114.951 48.0009 116.613 46.8992 118.493 46.418C119.113 46.27 119.405 45.978 119.32 45.29C119.286 44.924 119.288 44.5556 119.326 44.19C119.324 44.0361 119.352 43.8833 119.41 43.7406C119.468 43.598 119.554 43.4684 119.663 43.3597C119.772 43.2509 119.902 43.1651 120.044 43.1075C120.187 43.0498 120.34 43.0214 120.494 43.024C120.805 43.0205 121.104 43.1405 121.326 43.3577C121.548 43.5748 121.675 43.8713 121.679 44.182C121.684 44.2076 121.686 44.2339 121.684 44.26C121.395 45.771 122.137 46.278 123.433 46.746C125.134 47.3853 126.592 48.5412 127.603 50.0515C128.614 51.5618 129.126 53.3507 129.068 55.167C129.087 56.712 129.096 58.257 129.062 59.801C129.048 60.437 129.226 60.676 129.862 60.67C132.887 60.642 135.912 60.646 138.938 60.67C139.482 60.67 139.702 60.5 139.684 59.909C139.652 58.863 139.667 57.809 139.678 56.766C139.687 55.904 140.092 55.399 140.778 55.351C141.483 55.302 141.996 55.815 142.029 56.696C142.07 57.769 142.069 58.844 142.049 59.917C142.039 60.456 142.23 60.646 142.749 60.669C145.064 60.769 145.064 60.786 145.064 58.339C145.064 57.815 145.05 57.29 145.071 56.767C145.106 55.912 145.603 55.343 146.285 55.346C146.967 55.349 147.433 55.914 147.44 56.782C147.449 57.83 147.462 58.882 147.435 59.925C147.421 60.476 147.635 60.682 148.141 60.664C148.715 60.643 149.291 60.642 149.866 60.664C150.395 60.686 150.566 60.43 150.555 59.905C150.534 58.857 150.541 57.805 150.555 56.762C150.567 55.933 151.009 55.393 151.672 55.349C152.312 55.306 152.83 55.827 152.908 56.649C152.952 57.116 152.936 57.591 152.936 58.062C152.936 68.8773 152.936 79.6923 152.936 90.507C152.936 91.717 152.936 91.717 154.088 91.717H154.763C156.589 91.717 156.926 92.071 156.926 94.017C156.926 96.06 156.931 98.103 156.926 100.146C156.926 101.394 156.485 101.846 155.297 101.851C154.722 101.851 154.147 101.864 153.572 101.851C153.129 101.843 152.931 102.06 152.941 102.518C152.948 102.832 152.941 103.146 152.941 103.461C152.941 118.706 152.941 133.952 152.941 149.198C152.941 149.298 152.941 149.408 152.941 149.512C152.947 150.642 152.947 150.643 154.005 150.644C155.231 150.644 156.456 150.644 157.681 150.644C159.293 150.644 159.692 151.267 159.081 152.837L10.85 152.843ZM84.412 78.175C92.862 78.175 101.312 78.175 109.763 78.175C110.963 78.175 111.387 78.608 111.398 79.864C111.41 81.2 111.415 82.536 111.398 83.872C111.39 84.442 111.525 84.727 112.153 84.725C113.547 84.72 113.804 85.025 113.804 86.492C113.804 91.914 113.813 97.337 113.79 102.759C113.79 103.438 113.969 103.667 114.638 103.659C118.363 103.63 122.088 103.63 125.814 103.659C126.493 103.664 126.72 103.444 126.714 102.713C126.664 99.441 126.657 96.169 126.653 92.897C126.644 85.3803 126.639 77.8636 126.639 70.347C126.639 69.325 126.612 69.321 125.614 69.321C121.114 69.321 116.614 69.321 112.114 69.321C107.639 69.326 103.162 69.286 98.689 69.387C98.4104 69.4293 98.1255 69.3902 97.8687 69.2743C97.6118 69.1585 97.3939 68.971 97.2411 68.7342C97.0883 68.4975 97.0072 68.2216 97.0076 67.9398C97.0079 67.658 97.0897 67.3824 97.243 67.146C97.7789 65.8628 97.9728 64.4625 97.806 63.082C97.6589 61.4153 97.1119 59.8087 96.2113 58.3986C95.3107 56.9885 94.0833 55.8164 92.6331 54.982C90.3918 53.4935 87.783 52.6526 85.0944 52.5518C82.4057 52.4511 79.7414 53.0944 77.395 54.411C73.288 56.511 69.573 61.682 72.043 67.728C72.1049 67.9108 72.1231 68.1057 72.0959 68.2968C72.0688 68.4879 71.997 68.6699 71.8866 68.8283C71.7761 68.9866 71.6301 69.1168 71.4601 69.2082C71.2901 69.2997 71.1009 69.35 70.908 69.355C70.308 69.378 69.708 69.324 69.108 69.323C60.782 69.323 52.456 69.323 44.13 69.323C43.061 69.323 43.0611 69.323 43.0031 70.406C42.9841 70.746 42.953 71.086 42.953 71.426C42.953 81.8493 42.9474 92.273 42.936 102.697C42.936 103.482 43.197 103.667 43.891 103.662C47.367 103.633 50.842 103.628 54.317 103.662C55.031 103.669 55.191 103.421 55.188 102.719C55.164 97.319 55.175 91.927 55.176 86.531C55.176 84.989 55.4001 84.72 56.8521 84.719C57.4191 84.719 57.593 84.508 57.582 83.941C57.557 82.579 57.567 81.216 57.577 79.854C57.586 78.606 58.016 78.172 59.217 78.172L84.412 78.175ZM84.442 106.141H58.788C57.554 106.141 57.554 106.141 57.554 107.399V116.83C57.554 127.701 57.554 138.573 57.554 149.445C57.554 150.83 57.4661 150.645 58.7371 150.645C60.8121 150.653 62.888 150.645 64.963 150.645C66.012 150.645 66.015 150.645 66.015 149.527V111.727C66.015 110.027 66.315 109.709 67.939 109.709H101.17C102.87 109.709 103.131 109.979 103.131 111.736C103.131 124.389 103.126 137.042 103.117 149.695C103.117 150.462 103.338 150.678 104.053 150.664C106.177 150.621 108.303 150.649 110.428 150.648C111.42 150.648 111.422 150.648 111.422 149.612C111.422 135.518 111.422 121.424 111.422 107.33C111.422 106.143 111.422 106.14 110.247 106.14L84.442 106.141ZM68.4 131.386C68.4 137.516 68.411 143.646 68.386 149.776C68.386 150.47 68.569 150.688 69.23 150.665C70.579 150.616 71.93 150.611 73.28 150.665C74.013 150.694 74.2131 150.43 74.2061 149.681C74.1711 146.197 74.1641 142.713 74.2061 139.229C74.2139 138.29 74.3374 137.356 74.574 136.447C76.348 129.799 83.358 126.682 89.111 130.047C90.7095 130.95 92.0317 132.271 92.9354 133.869C93.8391 135.468 94.2901 137.282 94.24 139.117C94.3 142.679 94.264 146.242 94.24 149.805C94.24 150.455 94.4401 150.674 95.0601 150.66C96.6101 150.624 98.1601 150.649 99.7111 150.649C100.747 150.649 100.747 150.649 100.747 149.595C100.747 137.595 100.747 125.597 100.747 113.602C100.747 112.037 100.895 112.202 99.429 112.202C89.455 112.197 79.4803 112.197 69.505 112.202C68.405 112.202 68.405 112.188 68.405 113.388C68.4017 119.387 68.4 125.387 68.4 131.386ZM84.464 87.201C83.664 87.201 82.864 87.201 82.064 87.201C74.19 87.213 66.3149 87.238 58.4399 87.22C57.7549 87.22 57.54 87.356 57.54 88.103C57.5687 92.9743 57.5687 97.846 57.54 102.718C57.54 103.423 57.707 103.662 58.415 103.662C75.765 103.642 93.115 103.642 110.465 103.662C111.231 103.662 111.442 103.415 111.436 102.628C111.403 98.437 111.422 94.246 111.422 90.055C111.422 89.322 111.408 88.588 111.422 87.855C111.43 87.38 111.234 87.214 110.786 87.225C110.012 87.244 109.237 87.203 108.462 87.203C100.462 87.201 92.462 87.2 84.462 87.2L84.464 87.201ZM40.558 77.465H40.521C40.521 73.013 40.505 68.565 40.536 64.109C40.536 63.344 40.307 63.137 39.594 63.14C33.094 63.165 26.602 63.154 20.106 63.156C19.106 63.156 19.085 63.174 19.085 64.198C19.085 73.05 19.0799 81.9023 19.0699 90.755C19.0699 91.513 19.294 91.737 20.014 91.734C26.5634 91.71 33.112 91.71 39.66 91.734C40.406 91.734 40.576 91.472 40.572 90.74C40.542 86.318 40.556 81.892 40.556 77.465H40.558ZM129.119 77.39H129.083C129.083 81.869 129.094 86.348 129.072 90.827C129.072 91.497 129.234 91.737 129.913 91.735C136.487 91.7103 143.061 91.7103 149.635 91.735C150.36 91.735 150.572 91.503 150.57 90.751C150.549 81.8983 150.544 73.0453 150.555 64.192C150.555 63.177 150.532 63.152 149.529 63.158C146.629 63.175 143.735 63.218 140.837 63.216C137.237 63.216 133.637 63.196 130.037 63.139C129.31 63.128 129.096 63.357 129.101 64.113C129.132 68.538 129.117 72.964 129.117 77.39H129.119ZM126.694 128.481H126.645C126.645 125.811 126.639 123.141 126.645 120.47C126.657 116.02 126.662 111.57 126.706 107.12C126.713 106.37 126.499 106.12 125.773 106.129C122.074 106.16 118.374 106.16 114.673 106.129C113.95 106.122 113.79 106.407 113.791 107.092C113.803 121.338 113.803 135.584 113.791 149.83C113.791 150.491 113.991 150.67 114.609 150.666C118.309 150.64 122.009 150.654 125.709 150.654C126.693 150.654 126.694 150.654 126.694 149.618C126.693 142.571 126.693 135.526 126.692 128.481H126.694ZM55.17 128.389C55.17 121.294 55.1601 114.199 55.1851 107.104C55.1851 106.351 54.985 106.119 54.257 106.127C50.809 106.162 47.3607 106.162 43.912 106.127C43.164 106.12 42.924 106.35 42.929 107.152C42.962 111.913 42.946 116.675 42.946 121.437C42.946 130.889 42.9417 140.34 42.933 149.791C42.933 150.507 43.168 150.669 43.802 150.664C47.275 150.637 50.749 150.626 54.222 150.669C54.976 150.679 55.192 150.483 55.189 149.674C55.155 142.579 55.169 135.484 55.168 128.389H55.17ZM40.557 136.216C40.557 131.716 40.546 127.207 40.569 122.703C40.569 122.019 40.442 121.754 39.708 121.757C33.161 121.788 26.615 121.773 20.068 121.773C19.085 121.773 19.083 121.773 19.083 122.819V149.451C19.083 149.635 19.094 149.819 19.083 150.001C19.058 150.465 19.249 150.665 19.702 150.655C20.551 150.614 21.4015 150.618 22.25 150.667C23.033 150.733 23.2091 150.425 23.2061 149.646C23.1771 143.728 23.184 137.81 23.192 131.891C23.1981 130.377 23.6714 128.902 24.5474 127.667C25.4233 126.432 26.6592 125.497 28.0861 124.991C29.4662 124.557 30.9477 124.568 32.3214 125.022C33.6951 125.476 34.8913 126.35 35.741 127.521C36.7123 128.856 37.2246 130.47 37.201 132.121C37.201 137.961 37.201 143.801 37.201 149.64C37.201 150.65 37.201 150.651 38.192 150.653C38.6919 150.629 39.1926 150.633 39.692 150.665C40.404 150.746 40.575 150.436 40.571 149.731C40.544 145.224 40.5561 140.72 40.5551 136.216H40.557ZM129.082 136.184V142.627C129.082 145.036 129.099 147.446 129.072 149.855C129.064 150.474 129.248 150.709 129.845 150.655C130.393 150.6 130.945 150.6 131.493 150.655C132.258 150.748 132.461 150.455 132.456 149.66C132.423 143.82 132.421 137.98 132.45 132.14C132.454 131.359 132.55 130.581 132.736 129.822C133.186 128.137 134.254 126.683 135.727 125.749C137.2 124.816 138.97 124.47 140.686 124.782C144.319 125.651 146.454 128.482 146.45 132.393C146.444 138.18 146.458 143.968 146.436 149.756C146.436 150.431 146.6 150.704 147.277 150.656C148.076 150.6 148.878 150.6 149.677 150.656C150.377 150.705 150.577 150.44 150.577 149.72C150.557 140.711 150.557 131.702 150.577 122.692C150.577 121.972 150.377 121.749 149.687 121.751C143.115 121.774 136.543 121.774 129.97 121.751C129.215 121.751 129.07 122.021 129.07 122.746C129.095 127.227 129.08 131.706 129.08 136.184H129.082ZM84.182 150.65C86.432 150.65 88.682 150.624 90.931 150.666C91.642 150.679 91.884 150.466 91.876 149.698C91.842 146.268 91.889 142.837 91.845 139.407C91.8292 138.522 91.6971 137.643 91.452 136.793C90.9707 135.051 89.8845 133.538 88.3883 132.525C86.8922 131.512 85.0839 131.065 83.288 131.264C81.4363 131.557 79.7481 132.496 78.522 133.914C77.2958 135.332 76.6107 137.138 76.588 139.013C76.547 142.626 76.588 146.241 76.572 149.855C76.572 150.475 76.7801 150.668 77.3621 150.661C79.6311 150.635 81.9061 150.65 84.1801 150.65H84.182ZM113.25 66.824C117.4 66.824 121.55 66.829 125.701 66.815C125.98 66.815 126.486 66.715 126.501 66.609C126.6 65.9712 126.605 65.3225 126.518 64.683C126.495 64.539 125.879 64.423 125.536 64.422C118.336 64.408 111.136 64.4046 103.936 64.412C102.27 64.412 102.021 64.112 101.93 62.384C101.89 61.3931 101.74 60.4097 101.483 59.452C100.937 57.4492 99.9868 55.5792 98.6915 53.9569C97.3963 52.3346 95.7832 50.9942 93.951 50.018C91.0032 48.2472 87.6152 47.3448 84.1771 47.4147C80.739 47.4845 77.3904 48.5239 74.517 50.413C72.341 51.6574 70.5185 53.4362 69.2217 55.5814C67.9249 57.7265 67.1966 60.167 67.106 62.672C67.016 64.191 66.806 64.412 65.337 64.412C58.361 64.412 51.3854 64.412 44.41 64.412C42.974 64.412 42.999 64.412 42.995 65.92C42.995 66.59 43.201 66.847 43.864 66.838C46.114 66.806 48.364 66.826 50.615 66.826H68.3149C68.7469 66.826 69.15 66.912 69.042 66.143C68.5977 63.7375 68.8632 61.2547 69.8062 58.9976C70.7491 56.7404 72.3286 54.8066 74.3521 53.432C79.7311 49.532 85.6119 49.074 91.6219 51.597C97.2079 53.941 101.036 59.327 100.071 65.905C99.959 66.67 100.179 66.845 100.871 66.841C105 66.812 109.122 66.826 113.248 66.824H113.25ZM134.824 150.641C137.843 150.641 140.737 150.651 143.631 150.613C143.78 150.613 144.052 150.204 144.053 149.985C144.075 143.99 144.109 137.995 144.053 132.001C144.067 131.364 143.952 130.731 143.715 130.14C143.478 129.549 143.123 129.012 142.673 128.562C142.223 128.111 141.687 127.756 141.096 127.519C140.505 127.281 139.873 127.165 139.236 127.178C137.989 127.288 136.833 127.875 136.008 128.816C135.182 129.757 134.752 130.979 134.805 132.23C134.877 138.014 134.828 143.801 134.828 149.586L134.824 150.641ZM34.817 140.976C34.817 137.992 34.833 135.007 34.817 132.023C34.8485 131.396 34.7519 130.769 34.5331 130.18C34.3143 129.591 33.9778 129.053 33.5443 128.598C33.1108 128.144 32.5894 127.782 32.0116 127.536C31.4338 127.29 30.8119 127.163 30.1838 127.165C29.5557 127.167 28.9345 127.297 28.3582 127.546C27.7818 127.796 27.2622 128.16 26.8313 128.617C26.4004 129.074 26.067 129.614 25.8516 130.204C25.6361 130.794 25.543 131.422 25.578 132.049C25.564 137.965 25.578 143.881 25.563 149.797C25.563 150.434 25.727 150.67 26.363 150.663C28.937 150.633 31.5107 150.633 34.084 150.663C34.695 150.671 34.8411 150.449 34.8361 149.848C34.8001 146.892 34.8149 143.934 34.8149 140.976H34.817ZM29.8409 114.57C33.1409 114.57 36.4351 114.551 39.7321 114.585C40.4001 114.592 40.577 114.376 40.572 113.694C40.5434 110.058 40.5434 106.421 40.572 102.783C40.578 102.052 40.347 101.842 39.666 101.844C33.1233 101.866 26.5803 101.866 20.037 101.844C19.337 101.844 19.063 102.044 19.069 102.819C19.099 106.457 19.099 110.095 19.069 113.732C19.064 114.382 19.247 114.586 19.869 114.58C23.195 114.553 26.517 114.568 29.839 114.57H29.8409ZM129.082 114.506C129.4 114.535 129.596 114.568 129.791 114.568C136.466 114.568 143.142 114.572 149.818 114.58C150.429 114.58 150.571 114.34 150.567 113.747C150.546 110.105 150.54 106.464 150.567 102.822C150.574 102.054 150.314 101.842 149.604 101.845C143.08 101.867 136.555 101.856 130.031 101.857C129.096 101.857 129.081 101.872 129.081 102.886C129.081 106.475 129.081 110.064 129.081 113.653L129.082 114.506ZM84.444 80.677H70.875C67.475 80.677 64.075 80.689 60.675 80.666C60.12 80.666 59.911 80.826 59.942 81.419C59.982 82.176 59.95 82.937 59.952 83.696C59.952 84.711 59.957 84.712 60.959 84.712H107.74C107.89 84.7045 108.039 84.7045 108.189 84.712C108.789 84.776 109.064 84.53 109.027 83.865C108.989 83.165 109.02 82.452 109.02 81.745C109.02 80.68 109.02 80.678 107.98 80.678L84.444 80.677ZM154.553 96.825C154.553 96.249 154.517 95.67 154.563 95.098C154.619 94.387 154.316 94.168 153.686 94.211C152.986 94.258 152.286 94.275 151.586 94.273C144.319 94.259 137.053 94.2383 129.786 94.211C129.271 94.211 129.066 94.392 129.077 94.936C129.098 96.061 129.077 97.187 129.083 98.312C129.083 99.352 129.083 99.356 130.083 99.356C136.827 99.356 143.571 99.356 150.316 99.356C151.387 99.356 152.458 99.356 153.528 99.356C154.533 99.356 154.547 99.336 154.551 98.319C154.554 97.819 154.552 97.322 154.551 96.825H154.553ZM29.246 99.356C32.746 99.356 36.241 99.344 39.738 99.367C40.348 99.367 40.592 99.181 40.568 98.518C40.529 97.418 40.516 96.318 40.568 95.218C40.609 94.428 40.368 94.192 39.598 94.197C34.298 94.231 29.006 94.215 23.71 94.215C21.139 94.215 18.569 94.23 15.998 94.205C15.349 94.199 15.032 94.364 15.068 95.127C15.121 96.25 15.111 97.378 15.068 98.502C15.044 99.174 15.316 99.372 15.91 99.359C17.08 99.333 18.251 99.352 19.422 99.352L29.246 99.356ZM120.513 55.333C122.336 55.333 124.159 55.333 125.982 55.333C126.382 55.333 126.751 55.31 126.673 54.704C126.55 53.3528 126.048 52.0637 125.225 50.985C124.457 49.9921 123.396 49.2659 122.193 48.9093C120.989 48.5527 119.704 48.5837 118.519 48.998C117.426 49.4194 116.467 50.1307 115.748 51.0554C115.028 51.9802 114.573 53.0835 114.433 54.247C114.342 55.274 114.388 55.332 115.344 55.334C117.065 55.336 118.788 55.3357 120.511 55.333H120.513ZM49.142 55.333C50.942 55.333 52.742 55.321 54.535 55.34C55.035 55.345 55.251 55.191 55.235 54.622C55.1385 53.1315 54.5246 51.7214 53.4993 50.6352C52.4739 49.5491 51.1015 48.8551 49.619 48.673C47.9828 48.5781 46.3738 49.1233 45.1323 50.1934C43.8909 51.2636 43.1144 52.7746 42.967 54.407C42.867 55.081 43.0671 55.358 43.7531 55.345C45.5441 55.31 47.342 55.333 49.14 55.333H49.142ZM49.137 61.92C50.937 61.92 52.7321 61.909 54.5291 61.928C55.0291 61.933 55.261 61.775 55.243 61.213C55.213 60.299 55.2281 59.383 55.2371 58.467C55.2421 58.018 55.092 57.809 54.624 57.81C50.9574 57.824 47.2873 57.8257 43.614 57.815C43.145 57.815 42.932 58.015 42.943 58.515C42.962 59.351 42.98 60.19 42.938 61.025C42.902 61.725 43.187 61.937 43.819 61.925C45.589 61.9 47.362 61.921 49.135 61.92H49.137ZM120.529 61.92C122.304 61.92 124.079 61.905 125.854 61.929C126.464 61.937 126.721 61.701 126.7 61.055C126.672 60.218 126.679 59.379 126.7 58.541C126.712 58.041 126.528 57.819 126.046 57.82C122.371 57.828 118.697 57.828 115.022 57.82C114.554 57.82 114.4 58.026 114.405 58.476C114.414 59.34 114.436 60.206 114.396 61.069C114.366 61.712 114.577 61.946 115.205 61.934C116.976 61.9 118.752 61.922 120.527 61.922L120.529 61.92ZM139.8 117.064C136.5 117.064 133.208 117.083 129.913 117.048C129.244 117.042 128.992 117.261 129.08 117.942C129.102 118.124 129.102 118.308 129.08 118.49C129.006 119.13 129.303 119.285 129.866 119.284C136.483 119.27 143.1 119.257 149.717 119.294C150.709 119.299 150.525 118.686 150.567 118.07C150.614 117.37 150.467 117.037 149.687 117.047C146.39 117.091 143.094 117.067 139.8 117.066V117.064ZM29.813 119.275C32.934 119.275 36.056 119.284 39.178 119.275C40.655 119.268 40.541 119.549 40.567 117.789C40.575 117.25 40.411 117.048 39.882 117.059C38.534 117.089 37.1821 117.069 35.8361 117.069C30.5694 117.069 25.3004 117.071 20.0291 117.075C19.7431 117.075 19.229 117.135 19.21 117.235C19.1061 117.819 19.093 118.415 19.171 119.003C19.193 119.143 19.757 119.265 20.071 119.267C23.317 119.285 26.564 119.278 29.811 119.277L29.813 119.275ZM98.344 50.01C99.112 50.851 99.8441 51.567 100.477 52.369C101.11 53.171 101.625 54.069 102.236 54.895C102.324 55.0091 102.434 55.1044 102.559 55.1755C102.684 55.2466 102.822 55.292 102.965 55.309C104.465 55.348 105.959 55.322 107.457 55.333C107.974 55.333 108.157 55.117 108.113 54.568C107.832 50.897 104.395 48.061 100.944 48.731C99.9567 48.8513 99.0394 49.3029 98.342 50.012L98.344 50.01ZM63.89 55.333C64.614 55.333 65.3421 55.381 66.0601 55.31C66.3891 55.253 66.6863 55.079 66.897 54.82C68.079 53.38 69.189 51.873 70.397 50.461C70.852 49.931 70.778 49.713 70.249 49.427C69.5049 48.9809 68.6688 48.7106 67.8044 48.6366C66.94 48.5626 66.0701 48.6869 65.261 49C64.1455 49.4128 63.1699 50.1332 62.4471 51.0778C61.7243 52.0224 61.2839 53.1524 61.177 54.337C61.043 55.26 61.1429 55.331 62.0129 55.337C62.6389 55.337 63.2629 55.335 63.8879 55.335L63.89 55.333ZM105.873 57.818C105.373 57.818 104.873 57.846 104.373 57.811C103.75 57.766 103.554 58.001 103.739 58.638C103.913 59.238 104.049 59.849 104.178 60.461C104.486 61.916 104.478 61.918 105.952 61.915C108.122 61.915 108.132 61.915 108.119 59.666C108.106 57.501 108.374 57.848 106.396 57.815C106.221 57.818 106.046 57.82 105.871 57.82L105.873 57.818ZM65.436 57.831C64.078 57.831 62.793 57.815 61.509 57.857C61.386 57.857 61.181 58.219 61.173 58.42C61.138 59.385 61.173 60.353 61.151 61.32C61.143 61.761 61.317 61.928 61.728 61.92C62.551 61.905 63.374 61.932 64.196 61.902C64.381 61.895 64.696 61.755 64.72 61.624C64.976 60.416 65.185 59.194 65.434 57.833L65.436 57.831Z" fill="black" stroke="black" stroke-width="0.47" stroke-miterlimit="10"></path><path d="M53.518 96.5C53.518 97.7 53.526 98.908 53.518 100.111C53.508 101.254 53.0991 101.69 52.0351 101.695C50.2124 101.702 48.389 101.702 46.565 101.695C45.529 101.69 45.065 101.209 45.059 100.102C45.046 97.773 45.04 95.444 45.059 93.116C45.0263 92.533 45.1115 91.9494 45.3095 91.4C45.5074 90.8507 45.814 90.3468 46.211 89.9186C46.6079 89.4904 47.0871 89.1466 47.6199 88.9076C48.1527 88.6687 48.7282 88.5396 49.312 88.528C51.757 88.528 53.512 90.439 53.52 93.128C53.522 94.249 53.518 95.374 53.518 96.5ZM51.126 95.747C51.126 94.884 51.134 94.02 51.126 93.157C51.1542 92.9012 51.1306 92.6423 51.0567 92.3958C50.9827 92.1494 50.8598 91.9203 50.6953 91.7224C50.5309 91.5244 50.3282 91.3616 50.0995 91.2437C49.8708 91.1258 49.6207 91.0551 49.364 91.036C49.1005 91.0418 48.8409 91.1008 48.6007 91.2094C48.3606 91.3181 48.1448 91.4741 47.9664 91.6682C47.7881 91.8622 47.6507 92.0904 47.5626 92.3388C47.4746 92.5873 47.4376 92.8509 47.454 93.114C47.425 94.914 47.454 96.726 47.433 98.531C47.426 99.066 47.6481 99.213 48.1071 99.202C48.9071 99.185 49.707 99.179 50.507 99.202C51.013 99.219 51.152 98.985 51.138 98.492C51.107 97.579 51.126 96.662 51.126 95.746V95.747Z" fill="black" stroke="black" stroke-width="0.47" stroke-miterlimit="10"></path><path d="M124.4 96.443C124.4 97.751 124.408 99.059 124.4 100.367C124.393 101.239 124 101.681 123.165 101.69C121.218 101.71 119.271 101.71 117.323 101.69C116.469 101.681 116.04 101.213 116.036 100.318C116.026 97.754 116.005 95.19 116.036 92.627C116.075 91.5186 116.546 90.4695 117.348 89.7035C118.15 88.9376 119.22 88.5153 120.329 88.527C121.412 88.5568 122.442 89.006 123.201 89.78C123.959 90.5539 124.388 91.5922 124.396 92.676C124.406 93.931 124.4 95.187 124.4 96.443ZM122.022 95.681C122.022 94.74 122.044 93.798 122.016 92.857C122.013 92.3804 121.825 91.9237 121.491 91.5835C121.157 91.2433 120.704 91.0462 120.228 91.034C119.75 91.0523 119.297 91.2528 118.963 91.5944C118.628 91.936 118.437 92.3928 118.428 92.871C118.398 94.779 118.428 96.688 118.412 98.597C118.412 99.04 118.587 99.205 118.994 99.197C119.794 99.185 120.594 99.172 121.394 99.203C121.899 99.223 122.044 98.993 122.033 98.503C122 97.565 122.019 96.623 122.017 95.681H122.022Z" fill="black" stroke="black" stroke-width="0.47" stroke-miterlimit="10"></path><path d="M95.4659 124.655C94.6733 124.692 93.8879 124.49 93.2116 124.075C92.5354 123.66 91.9999 123.051 91.6745 122.327C91.3492 121.603 91.2491 120.799 91.3874 120.017C91.5258 119.236 91.8961 118.514 92.4502 117.946C93.0042 117.378 93.7163 116.99 94.494 116.832C95.2716 116.675 96.0788 116.754 96.8104 117.062C97.542 117.369 98.1643 117.889 98.5962 118.555C99.0281 119.22 99.2496 120.001 99.232 120.794C99.2556 121.299 99.175 121.804 98.9953 122.277C98.8157 122.749 98.5406 123.18 98.1875 123.542C97.8343 123.904 97.4105 124.19 96.9424 124.381C96.4742 124.573 95.9716 124.666 95.4659 124.655ZM96.847 120.727C96.8559 120.543 96.8281 120.359 96.7655 120.186C96.7028 120.013 96.6064 119.854 96.4819 119.718C96.3574 119.582 96.2073 119.472 96.0401 119.395C95.873 119.318 95.6921 119.274 95.508 119.267C95.3176 119.264 95.1284 119.299 94.9518 119.37C94.7751 119.441 94.6146 119.547 94.4797 119.682C94.3448 119.816 94.2384 119.977 94.1666 120.153C94.0948 120.329 94.0593 120.519 94.062 120.709C94.0504 121.08 94.1861 121.441 94.4395 121.713C94.693 121.985 95.0437 122.145 95.415 122.159C95.6059 122.17 95.7968 122.14 95.9754 122.072C96.154 122.004 96.3162 121.899 96.4514 121.763C96.5866 121.628 96.6917 121.466 96.7599 121.287C96.828 121.109 96.8577 120.918 96.847 120.727Z" fill="black" stroke="black" stroke-width="0.47" stroke-miterlimit="10"></path><path d="M73.665 124.656C71.715 124.872 69.8049 122.876 69.8409 120.721C69.8223 120.208 69.9073 119.697 70.0908 119.218C70.2742 118.738 70.5524 118.301 70.9086 117.932C71.2649 117.562 71.6918 117.269 72.1641 117.068C72.6364 116.867 73.1443 116.764 73.6574 116.764C74.1706 116.764 74.6785 116.867 75.1508 117.068C75.6231 117.269 76.0501 117.562 76.4063 117.932C76.7625 118.301 77.0406 118.738 77.2241 119.218C77.4075 119.697 77.4925 120.208 77.4739 120.721C77.4729 123.038 75.576 124.86 73.665 124.656ZM73.629 122.156C73.82 122.159 74.0097 122.123 74.1866 122.051C74.3635 121.979 74.5239 121.871 74.6583 121.735C74.7926 121.599 74.8981 121.438 74.9683 121.26C75.0385 121.082 75.0721 120.892 75.067 120.701C75.0588 120.329 74.9097 119.974 74.6498 119.707C74.39 119.441 74.0387 119.283 73.6669 119.265C73.4762 119.267 73.2877 119.306 73.1124 119.382C72.9371 119.457 72.7784 119.566 72.6456 119.703C72.5128 119.84 72.4085 120.002 72.3387 120.179C72.2689 120.357 72.235 120.546 72.2389 120.737C72.2354 120.922 72.2686 121.106 72.3368 121.278C72.4051 121.449 72.5069 121.606 72.6363 121.738C72.7657 121.87 72.9201 121.975 73.0905 122.047C73.2609 122.119 73.444 122.156 73.629 122.156Z" fill="black" stroke="black" stroke-width="0.47" stroke-miterlimit="10"></path><path d="M33.549 85.46C33.549 86.376 33.557 87.292 33.549 88.208C33.538 89.266 33.14 89.708 32.149 89.708C30.349 89.7213 28.549 89.7213 26.749 89.708C25.768 89.702 25.393 89.308 25.386 88.268C25.372 86.384 25.372 84.5 25.386 82.616C25.394 81.538 25.757 81.166 26.808 81.157C28.5807 81.1417 30.3541 81.1417 32.1281 81.157C33.1761 81.165 33.5399 81.58 33.5439 82.71C33.5509 83.628 33.549 84.544 33.549 85.46ZM31.1689 85.414C31.1499 83.497 31.399 83.658 29.479 83.659C27.535 83.659 27.7719 83.471 27.7679 85.468C27.7679 87.445 27.594 87.226 29.454 87.221C31.339 87.216 31.1629 87.473 31.1689 85.414Z" fill="black" stroke="black" stroke-width="0.47" stroke-miterlimit="10"></path><path d="M140.108 89.714C139.185 89.714 138.262 89.729 137.339 89.714C137.159 89.729 136.978 89.7035 136.809 89.6393C136.64 89.5751 136.487 89.4738 136.363 89.343C136.238 89.2122 136.144 89.055 136.088 88.8832C136.032 88.7114 136.015 88.5292 136.039 88.35C136.022 86.4167 136.022 84.4833 136.039 82.55C136.047 81.65 136.479 81.184 137.339 81.172C139.21 81.1473 141.081 81.1473 142.952 81.172C143.82 81.182 144.233 81.619 144.245 82.543C144.268 84.4763 144.268 86.4097 144.245 88.343C144.232 89.3 143.803 89.706 142.883 89.718C141.963 89.73 141.031 89.716 140.108 89.714ZM140.141 83.657C138.421 83.657 138.421 83.657 138.42 85.41C138.42 87.224 138.42 87.231 140.144 87.224C142.037 87.216 141.876 87.471 141.87 85.441C141.864 83.478 142.1 83.666 140.141 83.657Z" fill="black" stroke="black" stroke-width="0.47" stroke-miterlimit="10"></path><path d="M124.394 119.538C124.394 120.847 124.402 122.155 124.394 123.464C124.387 124.333 124.042 124.727 123.217 124.736C121.244 124.759 119.27 124.761 117.296 124.742C116.423 124.734 116.032 124.292 116.029 123.363C116.022 120.824 116.006 118.285 116.034 115.746C116.069 114.649 116.526 113.607 117.31 112.839C118.093 112.07 119.143 111.634 120.241 111.62C121.338 111.632 122.387 112.072 123.164 112.847C123.94 113.623 124.382 114.671 124.396 115.768C124.405 117.025 124.4 118.281 124.394 119.538ZM122.018 118.738C122.018 117.824 122.041 116.909 122.012 115.996C122.02 115.759 121.98 115.524 121.896 115.303C121.811 115.082 121.683 114.88 121.519 114.709C121.355 114.538 121.159 114.402 120.942 114.308C120.725 114.214 120.491 114.165 120.254 114.163C120.01 114.16 119.768 114.206 119.542 114.299C119.317 114.392 119.112 114.53 118.941 114.704C118.77 114.878 118.636 115.085 118.547 115.312C118.459 115.539 118.416 115.782 118.424 116.026C118.399 117.88 118.424 119.735 118.413 121.589C118.413 122.06 118.613 122.255 119.042 122.254C119.815 122.254 120.588 122.242 121.36 122.262C121.844 122.275 122.033 122.053 122.026 121.562C122.008 120.616 122.018 119.676 122.018 118.735V118.738Z" fill="black" stroke="black" stroke-width="0.47" stroke-miterlimit="10"></path><path d="M53.5162 119.586C53.5162 120.817 53.5302 122.048 53.5162 123.278C53.4992 124.378 53.1382 124.743 52.1092 124.746C50.2352 124.752 48.3608 124.752 46.4861 124.746C45.5161 124.741 45.0662 124.281 45.0612 123.255C45.0482 120.873 45.0322 118.49 45.0612 116.108C45.0401 115.123 45.348 114.16 45.9363 113.37C46.5247 112.58 47.3597 112.01 48.3091 111.748C49.2917 111.503 50.33 111.629 51.226 112.101C52.122 112.572 52.813 113.357 53.1672 114.306C53.385 114.918 53.4995 115.562 53.5062 116.212C53.5582 117.335 53.5202 118.463 53.5202 119.588L53.5162 119.586ZM51.1252 118.801H51.1302C51.1302 117.965 51.1362 117.129 51.1302 116.293C51.1182 115.006 50.4691 114.219 49.3981 114.176C49.1349 114.165 48.8723 114.209 48.6275 114.307C48.3826 114.404 48.1611 114.552 47.9773 114.741C47.7936 114.929 47.6516 115.155 47.561 115.402C47.4703 115.649 47.433 115.913 47.4512 116.176C47.4102 117.976 47.4512 119.776 47.4382 121.582C47.4382 122.052 47.6331 122.251 48.0641 122.249C48.8641 122.249 49.6642 122.24 50.4572 122.249C50.9292 122.255 51.1372 122.032 51.1312 121.538C51.1172 120.629 51.1252 119.715 51.1252 118.8V118.801Z" fill="black" stroke="black" stroke-width="0.47" stroke-miterlimit="10"></path><path d="M29.4548 103.648C30.3798 103.648 31.3049 103.634 32.2299 103.648C32.4103 103.629 32.5926 103.652 32.7631 103.714C32.9335 103.776 33.0877 103.876 33.214 104.006C33.3403 104.137 33.4354 104.294 33.4922 104.466C33.549 104.638 33.5659 104.821 33.5419 105.001C33.5585 106.965 33.5585 108.929 33.5419 110.894C33.5349 111.749 33.1589 112.177 32.3489 112.194C30.4249 112.226 28.4999 112.223 26.5759 112.203C26.4136 112.218 26.25 112.196 26.0973 112.139C25.9446 112.082 25.8066 111.991 25.6935 111.874C25.5804 111.757 25.4949 111.615 25.4436 111.461C25.3923 111.306 25.3763 111.142 25.3968 110.98C25.3762 108.964 25.3762 106.948 25.3968 104.931C25.3713 104.757 25.387 104.579 25.4425 104.412C25.498 104.245 25.5918 104.093 25.7165 103.969C25.8413 103.844 25.9934 103.751 26.1606 103.696C26.3279 103.641 26.5058 103.626 26.6799 103.652C27.5999 103.638 28.5298 103.649 29.4548 103.648ZM29.5259 109.71C31.3779 109.71 31.1649 109.848 31.1669 107.979C31.1669 105.842 31.3459 106.157 29.4089 106.147C27.6189 106.137 27.7568 105.929 27.7668 107.869C27.7778 109.9 27.5079 109.7 29.5259 109.71Z" fill="black" stroke="black" stroke-width="0.47" stroke-miterlimit="10"></path><path d="M140.129 112.2C139.181 112.2 138.229 112.221 137.284 112.194C136.438 112.17 136.043 111.759 136.034 110.87C136.016 108.937 136.016 107.001 136.034 105.064C136.043 104.128 136.495 103.664 137.379 103.656C139.201 103.643 141.023 103.643 142.845 103.656C143.813 103.663 144.226 104.067 144.245 105.085C144.27 106.993 144.27 108.902 144.245 110.812C144.234 111.796 143.845 112.185 142.905 112.205C141.965 112.225 141.058 112.205 140.134 112.205L140.129 112.2ZM140.101 106.146C138.421 106.146 138.421 106.146 138.42 107.776C138.42 109.715 138.42 109.717 140.26 109.714C142.077 109.714 141.87 109.845 141.869 108.043C141.869 105.855 142.066 106.17 140.1 106.142L140.101 106.146Z" fill="black" stroke="black" stroke-width="0.47" stroke-miterlimit="10"></path></g></svg>