<svg width="auto" height="auto" viewBox="0 0 172 172" fill="none" xmlns="http://www.w3.org/2000/svg"><mask id="mask0_19_93" maskUnits="userSpaceOnUse" x="0" y="0" width="172" height="172"><path d="M172 0H0V172H172V0Z" fill="white"></path></mask><g mask="url(#mask0_19_93)"><path d="M63.929 48.8C63.929 48.8 63.929 50.453 61.615 53.1H48.885C46.571 50.455 46.5709 48.8 46.5709 48.8C45.6549 42.088 53.888 39.083 55.171 38.656C55.1943 38.6366 55.2237 38.626 55.254 38.626C55.2843 38.626 55.3136 38.6366 55.3369 38.656C56.6119 39.085 64.845 42.09 63.929 48.8Z" stroke="black" stroke-width="3" stroke-miterlimit="10"></path><path d="M54.9 39.1L55 33" stroke="black" stroke-width="3" stroke-miterlimit="10" stroke-linecap="round"></path><path d="M125.929 48.8C125.929 48.8 125.929 50.453 123.615 53.1H110.885C108.571 50.455 108.571 48.8 108.571 48.8C107.655 42.088 115.888 39.083 117.171 38.656C117.194 38.6366 117.224 38.626 117.254 38.626C117.284 38.626 117.314 38.6366 117.337 38.656C118.612 39.085 126.845 42.09 125.929 48.8Z" stroke="black" stroke-width="3" stroke-miterlimit="10"></path><path d="M116.9 39.1L117 33" stroke="black" stroke-width="3" stroke-miterlimit="10" stroke-linecap="round"></path><path d="M124.5 54.5H48.5V148.5H124.5V54.5Z" stroke="black" stroke-width="3" stroke-miterlimit="10"></path><path d="M111.5 54.5H60.5V148.5H111.5V54.5Z" stroke="black" stroke-width="3" stroke-miterlimit="10"></path><path d="M111.5 74.5H60.5V88.5H111.5V74.5Z" stroke="black" stroke-width="3" stroke-miterlimit="10"></path><path d="M48.5 81.5H12.5V95.5H48.5V81.5Z" stroke="black" stroke-width="3" stroke-miterlimit="10"></path><path d="M48.5 95.5H18.5V148.5H48.5V95.5Z" stroke="black" stroke-width="3" stroke-miterlimit="10"></path><path d="M48.5 69.5H22.5V81.5H48.5V69.5Z" stroke="black" stroke-width="3" stroke-miterlimit="10"></path><path d="M99.986 110.568H100V146.5H74V110.568H74.014C74.007 110.394 74 110.214 74 110.04C74 104.497 79.818 100 87 100C94.182 100 100 104.5 100 110.04C100 110.214 99.993 110.394 99.986 110.568Z" stroke="black" stroke-width="3" stroke-miterlimit="10"></path><path d="M40.992 122.675H41V148.769H27V122.675H27.008C27.008 122.548 27 122.418 27 122.291C26.9609 121.347 27.1131 120.406 27.4472 119.522C27.7814 118.639 28.2907 117.832 28.9446 117.151C29.5985 116.469 30.3833 115.927 31.2521 115.557C32.1209 115.186 33.0556 114.995 34 114.995C34.9445 114.995 35.8792 115.186 36.7479 115.557C37.6167 115.927 38.4016 116.469 39.0554 117.151C39.7093 117.832 40.2186 118.639 40.5528 119.522C40.887 120.406 41.0391 121.347 41 122.291C41 122.418 41 122.548 40.992 122.675Z" stroke="black" stroke-width="3" stroke-miterlimit="10"></path><path d="M27.5 104.5H38.5" stroke="black" stroke-width="3" stroke-miterlimit="10" stroke-linecap="round"></path><path d="M68.5 64.5H103.5" stroke="black" stroke-width="3" stroke-miterlimit="10" stroke-linecap="round"></path><path d="M125.5 95.5H161.5V81.5H125.5V95.5Z" stroke="black" stroke-width="3" stroke-miterlimit="10"></path><path d="M125.5 148.5H155.5V95.5H125.5V148.5Z" stroke="black" stroke-width="3" stroke-miterlimit="10"></path><path d="M125.5 81.5H151.5V69.5H125.5V81.5Z" stroke="black" stroke-width="3" stroke-miterlimit="10"></path><path d="M133.008 122.675H133V148.769H147V122.675H146.992C146.992 122.548 147 122.418 147 122.291C147.039 121.347 146.887 120.406 146.553 119.522C146.219 118.639 145.709 117.832 145.055 117.151C144.402 116.469 143.617 115.927 142.748 115.557C141.879 115.186 140.944 114.995 140 114.995C139.056 114.995 138.121 115.186 137.252 115.557C136.383 115.927 135.598 116.469 134.945 117.151C134.291 117.832 133.781 118.639 133.447 119.522C133.113 120.406 132.961 121.347 133 122.291C133 122.418 133 122.548 133.008 122.675Z" stroke="black" stroke-width="3" stroke-miterlimit="10"></path><path d="M146.5 104.5H135.5" stroke="black" stroke-width="3" stroke-miterlimit="10" stroke-linecap="round"></path></g></svg>