<svg width="auto" height="auto" viewBox="0 0 172 172" fill="none" xmlns="http://www.w3.org/2000/svg"><mask id="mask0_19_347" maskUnits="userSpaceOnUse" x="0" y="0" width="172" height="172"><path d="M172 0H0V172H172V0Z" fill="white"></path></mask><g mask="url(#mask0_19_347)"><path d="M151.8 151.7V145.341L150.21 145.249V129.145L152.263 129.038V123.612H150.306C150.306 122.212 150.368 120.935 150.291 119.665C150.267 118.751 150.054 117.852 149.665 117.024C149.276 116.197 148.72 115.459 148.032 114.857C146.348 113.345 144.145 112.542 141.883 112.615C140.583 112.652 139.283 112.622 137.947 112.622V107.422H144.784V98.122C143.813 98.122 142.893 98.081 141.978 98.135C141.699 98.1755 141.415 98.1179 141.174 97.972C140.932 97.8261 140.749 97.6009 140.656 97.335C139.756 95.574 138.744 93.871 137.826 92.12C137.549 91.6294 137.388 91.0823 137.354 90.52C137.313 86.974 137.331 83.428 137.335 79.882C137.335 79.575 137.371 79.269 137.397 78.843H140.877V72.089L139.263 72C139.178 71.58 139.11 71.236 139.041 70.892C138.098 66.227 135.384 63.029 130.741 62.005C128.127 61.5881 125.475 61.4686 122.834 61.649C121.454 61.6632 120.092 61.9537 118.826 62.5033C117.561 63.0529 116.418 63.8505 115.466 64.849C114.946 65.372 114.478 65.949 113.866 66.634C113.866 65.334 113.824 64.249 113.881 63.167C113.919 62.467 113.664 62.306 113.003 62.319C110.829 62.358 108.654 62.308 106.481 62.35C106.218 62.375 105.954 62.3149 105.728 62.1786C105.501 62.0424 105.325 61.8371 105.224 61.593C103.787 59.07 102.374 56.527 100.786 54.099C100.001 52.939 99.0361 51.912 97.927 51.057C96.0731 49.6849 93.8727 48.8582 91.574 48.67V44.55H89.49C89.51 44.402 89.498 44.329 89.528 44.29C91.263 42.076 90.861 40.202 88.497 38.607C87.4902 37.8149 86.5489 36.9431 85.682 36H85.453L85.505 36.111C84.397 37.044 83.347 38.058 82.168 38.89C81.755 39.1481 81.4004 39.4894 81.1268 39.8923C80.8533 40.2952 80.6669 40.7508 80.5794 41.2298C80.492 41.7089 80.5055 42.2009 80.6191 42.6745C80.7326 43.1481 80.9438 43.5927 81.239 43.98C81.345 44.125 81.448 44.271 81.627 44.523L79.427 44.623V48.623C79.055 48.709 78.81 48.777 78.56 48.823C76.4386 49.1705 74.4284 50.0114 72.6915 51.278C70.9545 52.5445 69.5394 54.2014 68.56 56.115C67.593 57.877 66.66 59.664 65.799 61.478C65.6926 61.7718 65.4874 62.0195 65.2185 62.1788C64.9496 62.338 64.6338 62.3989 64.325 62.351C62.504 62.299 60.68 62.361 58.858 62.319C58.176 62.303 57.949 62.547 57.968 63.201C58 64.236 57.977 65.274 57.977 66.527C57.66 66.194 57.497 66.052 57.37 65.884C55.9048 63.821 53.6806 62.424 51.186 62C48.5659 61.624 45.9153 61.5048 43.272 61.644C40.9024 61.7433 38.6297 62.6116 36.7976 64.1176C34.9656 65.6237 33.6739 67.6854 33.118 69.991C32.939 70.655 32.834 71.339 32.679 72.091H31.048V78.863H34.5C34.5301 79.0234 34.5515 79.1853 34.564 79.348C34.564 83.532 34.5623 87.7167 34.559 91.902C34.5532 92.219 34.4774 92.5307 34.337 92.815C33.573 94.359 32.752 95.876 32.015 97.432C31.9301 97.6695 31.764 97.8694 31.5461 97.9963C31.3282 98.1233 31.0724 98.1692 30.824 98.126C30.068 98.084 29.309 98.115 28.524 98.115V107.459H34.532V112.3C33.745 112.3 33.016 112.284 32.289 112.3C31.332 112.264 30.3738 112.311 29.425 112.441C27.3277 112.764 25.4244 113.852 24.082 115.496C22.7396 117.139 22.0531 119.221 22.155 121.341C22.149 122.093 22.155 122.846 22.155 123.691H20.276V129.038L22.2 129.151V145.086L20.362 145.2V151.758H18.815C18.809 152.212 18.803 152.658 18.798 153.094H153.2C153.2 152.632 153.2 152.163 153.206 151.694L151.8 151.7ZM150.846 125.119V127.619H137.939V125.119H150.846ZM148.7 129.55V144.965H146.11V129.55H148.7ZM137.993 114.041C140.505 114.215 143.023 113.613 145.432 114.804C146.34 115.167 147.131 115.773 147.718 116.555C148.306 117.337 148.667 118.266 148.763 119.239C148.89 120.656 148.787 122.093 148.787 123.592H143.414V116.092H137.993V114.041ZM141.908 117.548V123.021H132.494V117.548H141.908ZM139.563 98.076H113.579V92.252C113.589 91.9984 113.586 91.7443 113.57 91.491C113.384 89.813 113.448 89.518 114.999 88.956C116.439 88.3699 117.953 87.9885 119.499 87.823C122.306 87.6705 125.118 87.6615 127.926 87.796C129.598 87.7774 131.245 88.1972 132.704 89.0134C134.163 89.8296 135.382 91.0138 136.241 92.448C137.345 94.257 138.399 96.1 139.563 98.076ZM112.128 90.006C112.128 90.483 112.045 90.812 111.461 90.806C107.753 90.793 104.046 90.794 100.338 90.785C100.228 90.7634 100.121 90.7267 100.021 90.676V84.364C100.316 84.351 100.621 84.325 100.921 84.325C104.309 84.325 107.697 84.343 111.085 84.308C111.851 84.3 112.171 84.479 112.139 85.308C112.082 86.875 112.116 88.441 112.128 90.006ZM58.679 87.772C56.3335 86.6289 53.7213 86.145 51.122 86.372C51.289 84.678 50.712 83.063 51.808 81.513C52.246 80.893 52.097 79.858 52.236 78.862H61.512V72.044C61.1057 72.0672 60.6984 72.0612 60.293 72.026C60.104 71.998 59.944 71.783 59.771 71.653C59.929 71.553 60.086 71.353 60.245 71.353C62.66 71.333 65.074 71.339 67.745 71.339C64.845 74.558 63.471 78.357 61.58 81.852C61.171 82.608 60.764 82.992 59.911 82.844C58.951 82.678 58.596 83.071 58.662 84.055C58.74 85.224 58.679 86.4 58.679 87.772ZM90.679 63.863V65.956H81.492V63.863H90.679ZM83.687 60.463C83.3552 60.2938 83.0759 60.0371 82.8794 59.7207C82.6829 59.4043 82.5767 59.0402 82.5722 58.6678C82.5676 58.2954 82.665 57.9288 82.8537 57.6077C83.0425 57.2866 83.3154 57.0232 83.643 56.846C84.082 56.546 84.589 56.337 85.005 56.01C85.4099 55.6562 85.7923 55.2775 86.15 54.876C87.15 55.626 88.087 56.282 88.973 56.996C89.2757 57.1841 89.5226 57.4497 89.6883 57.7652C89.8539 58.0808 89.9322 58.4349 89.9151 58.7909C89.8979 59.1469 89.786 59.4918 89.5908 59.79C89.3957 60.0882 89.1243 60.3288 88.805 60.487C88.022 60.9236 87.1395 61.1506 86.2431 61.1461C85.3466 61.1415 84.4665 60.9055 83.688 60.461L83.687 60.463ZM93.163 67.582C95.8481 67.6838 98.4579 68.4979 100.725 69.9408C102.992 71.3837 104.834 73.4034 106.063 75.793C107.318 78.04 108.42 80.374 109.64 82.762H94.467V77.518H77.158V82.778H62.749C64.918 78.754 66.243 74.345 69.849 71.34C72.4284 69.0419 75.7225 67.7052 79.174 67.556C83.835 67.44 88.515 67.307 93.164 67.58L93.163 67.582ZM98.531 89.929C98.536 90.411 98.451 90.709 97.859 90.708C89.679 90.692 81.4993 90.685 73.32 90.687C73.2108 90.6615 73.1045 90.6246 73.003 90.577C73.003 88.777 72.978 86.992 73.037 85.212C73.043 85.012 73.52 84.68 73.787 84.672C74.998 84.634 76.212 84.708 77.425 84.709C82.985 84.717 88.5446 84.717 94.104 84.709C95.2846 84.709 96.465 84.685 97.645 84.637C98.302 84.609 98.555 84.85 98.538 85.523C98.5 86.99 98.518 88.459 98.532 89.927L98.531 89.929ZM78.589 82.784V78.933H92.918V82.784H78.589ZM60.116 85.091C60.116 84.605 60.249 84.319 60.822 84.322C64.362 84.337 67.903 84.33 71.599 84.33C71.599 86.391 71.617 88.33 71.569 90.267C71.564 90.453 71.14 90.783 70.909 90.785C67.557 90.819 64.209 90.803 60.854 90.815C60.314 90.815 60.112 90.58 60.115 90.065C60.125 88.4057 60.1256 86.747 60.117 85.089L60.116 85.091ZM60.189 92.328H112.067V98.043H60.19L60.189 92.328ZM110.389 81.112C109.038 78.335 107.489 75.653 105.978 72.957C105.596 72.3986 105.167 71.8744 104.695 71.39H112.052C112.069 71.909 112.069 71.909 110.383 72.145V78.794H119.276C119.057 79.4108 118.997 80.0727 119.099 80.719C119.202 81.3653 119.466 81.9756 119.865 82.494C120.165 82.949 119.981 83.729 119.997 84.362C120.012 84.962 119.997 85.569 119.997 86.024L113.528 87.758V83C113.315 82.917 113.22 82.841 113.144 82.856C111.668 83.148 111.014 82.383 110.394 81.11L110.389 81.112ZM125.733 81.922C125.084 82.2756 124.356 82.4608 123.617 82.4608C122.878 82.4608 122.15 82.2756 121.501 81.922C121.213 81.7963 120.963 81.5983 120.775 81.3473C120.586 81.0962 120.466 80.8006 120.426 80.4892C120.385 80.1779 120.426 79.8614 120.545 79.5707C120.663 79.2799 120.855 79.0247 121.101 78.83C121.936 78.166 122.811 77.552 123.651 76.93C124.509 77.595 125.429 78.261 126.293 78.991C126.508 79.1955 126.668 79.4505 126.758 79.7327C126.849 80.0149 126.868 80.3153 126.813 80.6065C126.757 80.8978 126.63 81.1706 126.442 81.4C126.255 81.6294 126.013 81.8082 125.738 81.92L125.733 81.922ZM125.749 83.796V86.01H121.5V83.796H125.749ZM127.92 81.456C128.34 80.843 128.194 79.843 128.32 78.934H135.861V89.554C133.505 87.4276 130.435 86.265 127.261 86.297C127.418 84.636 126.857 83.013 127.925 81.454L127.92 81.456ZM123.013 63.056C125.655 63.056 128.319 62.745 130.924 63.504C132.749 64.0825 134.358 65.1944 135.545 66.6962C136.732 68.1981 137.441 70.0211 137.582 71.93H113.693C113.833 69.5443 114.873 67.3008 116.605 65.6534C118.336 64.0061 120.628 63.078 123.018 63.057L123.013 63.056ZM139.486 73.532V77.357C139.364 77.395 139.239 77.4208 139.112 77.434C135.152 77.44 131.191 77.463 127.231 77.413C126.708 77.3483 126.218 77.1206 125.831 76.762C125.101 76.149 124.463 75.428 123.67 74.635C123.084 75.3462 122.442 76.0093 121.75 76.618C121.193 77.064 120.519 77.3379 119.809 77.406C117.166 77.494 114.519 77.442 111.777 77.442V73.532H139.486ZM112.386 63.847V69.874H108.634C108.092 69.874 107.546 69.839 107.007 69.88C104.731 70.161 102.43 69.6102 100.528 68.329C98.286 66.8807 95.674 66.1096 93.005 66.108C92.7425 66.0854 92.4815 66.0486 92.223 65.998V63.847H112.386ZM83 39.9C83.4678 39.6469 83.9215 39.3685 84.359 39.066C84.7211 38.7309 85.0555 38.367 85.359 37.978C86.415 38.786 87.359 39.501 88.294 40.229C88.5566 40.3991 88.7734 40.6311 88.9253 40.9046C89.0771 41.1781 89.1595 41.4848 89.165 41.7976C89.1705 42.1104 89.0991 42.4198 88.957 42.6985C88.8149 42.9772 88.6064 43.2168 88.35 43.396C87.5609 43.9676 86.6188 44.2898 85.6449 44.3211C84.6711 44.3525 83.7102 44.0916 82.886 43.572C82.5745 43.3721 82.3202 43.095 82.1479 42.7675C81.9755 42.4401 81.8909 42.0736 81.9024 41.7037C81.9138 41.3338 82.021 40.9733 82.2134 40.6571C82.4057 40.341 82.6767 40.0802 83 39.9ZM80.922 46.081H90.107V48.481H80.922V46.081ZM75.375 51.375C76.912 50.6801 78.561 50.2659 80.244 50.152C83.944 49.988 87.661 49.992 91.358 50.192C93.063 50.2449 94.7274 50.7251 96.1986 51.5886C97.6697 52.4521 98.9005 53.6712 99.778 55.134C101.222 57.425 102.618 59.745 104.095 62.149H89.231C89.7306 61.7675 90.1987 61.3465 90.631 60.89C90.9042 60.554 91.1075 60.1667 91.229 59.751C91.3505 59.3353 91.3877 58.8995 91.3384 58.4692C91.2891 58.0389 91.1544 57.6228 90.942 57.2453C90.7297 56.8678 90.4441 56.5366 90.102 56.271C88.86 55.133 87.562 54.057 86.218 52.892C85.636 53.492 85.008 54.168 84.349 54.812C84.0376 55.1291 83.6875 55.4056 83.307 55.635C80.682 57.135 80.465 59.863 82.841 61.715L83.4 62.153H66.994C69.25 58.092 70.657 53.422 75.375 51.374V51.375ZM59.447 63.847H80.007V65.967C78.907 66.124 77.838 66.23 76.786 66.438C74.3006 66.9117 71.9553 67.9437 69.927 69.456C69.5161 69.7446 69.0289 69.905 68.527 69.917C65.846 69.96 63.164 69.917 60.482 69.951C59.706 69.961 59.399 69.736 59.427 68.917C59.486 67.264 59.447 65.61 59.447 63.847ZM36.193 66.842C37.0744 65.6556 38.2244 64.6949 39.5488 64.0388C40.8731 63.3826 42.3341 63.0495 43.812 63.067C46.3233 62.917 48.8436 63.0711 51.318 63.526C53.0538 63.8914 54.6311 64.7925 55.8275 66.1023C57.0238 67.412 57.7788 69.0643 57.986 70.826C58.0364 71.0064 58.0964 71.184 58.166 71.358C58.207 71.504 58.223 71.658 58.275 71.952H34.253C34.3782 70.0936 35.0536 68.3145 36.193 66.841V66.842ZM32.424 77.442V73.514H60.091V77.443C58.029 77.443 55.977 77.286 53.961 77.483C51.461 77.727 49.449 77.156 47.994 75.033C47.8763 74.9087 47.7459 74.7971 47.605 74.7C46.96 75.363 46.36 76.066 45.666 76.657C45.2662 77.0561 44.7508 77.3188 44.193 77.408C40.295 77.47 36.4 77.442 32.424 77.442ZM45.264 81.853C44.9651 81.6835 44.719 81.4345 44.553 81.1337C44.387 80.8329 44.3076 80.4919 44.3235 80.1487C44.3395 79.8055 44.4502 79.4734 44.6434 79.1893C44.8366 78.9051 45.1047 78.68 45.418 78.539C46.1602 78.0513 46.8734 77.5207 47.554 76.95C48.382 77.584 49.267 78.232 50.118 78.921C50.3247 79.0852 50.4905 79.2952 50.6024 79.5344C50.7142 79.7736 50.7689 80.0355 50.7623 80.2994C50.7558 80.5634 50.688 80.8222 50.5644 81.0555C50.4408 81.2889 50.2647 81.4903 50.05 81.644C49.3487 82.116 48.5309 82.3852 47.6864 82.4221C46.8419 82.4589 46.0037 82.262 45.264 81.853ZM49.645 83.804V86H45.394V83.8L49.645 83.804ZM43.679 82.353C43.8728 82.9189 43.936 83.5212 43.864 84.115C43.89 84.843 43.87 85.574 43.87 86.358C40.88 86.7385 38.1155 88.1469 36.05 90.342V78.886H43.194C42.9605 79.455 42.8823 80.0759 42.9675 80.6851C43.0528 81.2943 43.2983 81.8699 43.679 82.353ZM39.819 89.063C41.3319 88.2212 43.0326 87.7741 44.764 87.763C47.4486 87.751 50.133 87.751 52.817 87.763C54.6477 87.7153 56.4557 88.1775 58.039 89.098C58.193 89.1871 58.3269 89.3073 58.432 89.4508C58.5372 89.5944 58.6114 89.7583 58.65 89.932C58.704 92.515 58.693 95.1 58.695 97.684C58.6774 97.8188 58.6438 97.9511 58.595 98.078H33.226C34.854 94.543 36.232 91.011 39.819 89.063ZM29.878 105.933V99.56H143.445V105.933H29.878ZM107.593 141.85C107.284 141.777 106.997 141.629 106.758 141.419C106.586 141.288 106.394 141.219 106.219 141.111V141.133C105.529 140.616 104.689 140.007 103.877 139.364C103.803 139.291 103.745 139.204 103.705 139.109C103.664 139.013 103.643 138.911 103.643 138.807C103.625 131.714 103.614 124.621 103.61 117.529C103.581 117.491 103.575 114.691 103.589 113.291H103.568C103.568 112.335 103.534 111.512 103.592 110.696C103.606 110.504 103.892 110.262 104.112 110.164C104.617 109.963 105.076 109.661 105.461 109.276C105.846 108.892 106.149 108.434 106.351 107.929C106.418 107.804 106.512 107.696 106.628 107.614C106.744 107.532 106.877 107.478 107.017 107.456C108.642 107.415 110.268 107.434 112 107.434V141.893H107.714V141.864C107.674 141.859 107.633 141.857 107.593 141.85ZM80.321 121.816V141.734C79.512 142.014 79.221 141.716 78.812 141.115C78.196 140.37 77.4987 139.697 76.733 139.107L76.513 139.262V138.317C76.513 131.065 76.525 123.812 76.497 116.56C76.473 115.575 76.478 111.839 76.51 111.781C76.51 111.431 76.517 111.081 76.54 110.738C76.5744 110.616 76.6353 110.503 76.7182 110.408C76.8012 110.312 76.9042 110.235 77.02 110.184C77.5443 109.986 78.0214 109.681 78.4205 109.288C78.8196 108.894 79.1318 108.421 79.337 107.9C79.4072 107.777 79.5052 107.673 79.6231 107.595C79.7411 107.518 79.8757 107.469 80.016 107.453C84.2667 107.426 88.5176 107.426 92.769 107.453C92.9107 107.469 93.0467 107.518 93.166 107.596C93.2854 107.674 93.3847 107.779 93.456 107.902C93.6354 108.399 93.9157 108.853 94.2792 109.236C94.6426 109.619 95.0814 109.923 95.568 110.128C95.6683 110.186 95.7544 110.265 95.8198 110.361C95.8852 110.457 95.9283 110.566 95.946 110.68C95.964 111.043 95.969 111.409 95.969 111.78C96.003 111.78 96.006 115.824 95.979 116.651C95.9543 123.9 95.9543 131.149 95.979 138.397C95.9999 138.655 95.9359 138.913 95.7968 139.132C95.6576 139.35 95.4508 139.517 95.208 139.607C94.5236 139.994 93.9449 140.544 93.523 141.207C93.168 141.789 92.858 141.974 92.176 141.761V121.816H80.321ZM90.675 123.309V141.8H81.794V123.309H90.675ZM65.668 141.638C65.4079 141.74 65.1405 141.822 64.868 141.883H64.858L64.828 141.891C64.7229 141.905 64.6166 141.908 64.511 141.898C64.256 141.898 64.002 141.898 63.747 141.898C63.492 141.898 63.238 141.898 62.983 141.898C62.8781 141.886 62.7723 141.883 62.667 141.891L62.697 141.883H60.557V107.439C62.369 107.439 64.151 107.432 65.932 107.452C66.0203 107.462 66.1048 107.493 66.1784 107.543C66.2519 107.593 66.3121 107.661 66.354 107.739C66.5427 108.328 66.8666 108.864 67.2997 109.305C67.7327 109.746 68.263 110.08 68.848 110.279V111.357C68.868 111.633 68.875 113.438 68.869 114.798H68.916V115.781C68.916 123.286 68.9193 130.791 68.926 138.296C68.968 138.571 68.9158 138.851 68.778 139.092C68.6402 139.333 68.4248 139.521 68.167 139.624C67.4804 140.068 66.8466 140.589 66.278 141.177V141.166C66.1071 141.361 65.8999 141.522 65.668 141.638ZM69.642 108.864C69.2356 108.864 68.8388 108.74 68.5046 108.509C68.1703 108.278 67.9144 107.95 67.771 107.57H77.747C77.5963 107.97 77.3217 108.311 76.9632 108.543C76.6048 108.775 76.1814 108.887 75.755 108.861C73.717 108.893 71.679 108.889 69.642 108.864ZM75.105 110.439V139.106H70.405V110.439H75.105ZM69.765 140.727C71.842 140.707 73.922 140.66 75.994 140.758C76.6275 140.911 77.229 141.175 77.771 141.537L77.647 141.871H67.9C68.0488 141.507 68.3099 141.2 68.6452 140.994C68.9806 140.788 69.3729 140.695 69.765 140.727ZM96.733 108.862C96.3209 108.867 95.917 108.747 95.5757 108.516C95.2344 108.285 94.9721 107.955 94.824 107.57H104.759C104.61 107.974 104.334 108.319 103.972 108.553C103.611 108.786 103.183 108.896 102.753 108.865C100.747 108.894 98.7403 108.893 96.733 108.862ZM102.123 110.472V139.143H97.474V110.472H102.123ZM96.7 140.73C98.776 140.704 100.855 140.658 102.926 140.758C103.593 140.91 104.23 141.173 104.811 141.536L104.693 141.874H94.878C95.0208 141.515 95.2744 141.21 95.602 141.004C95.9296 140.798 96.3141 140.702 96.7 140.73ZM58.9 117.388H58.92V123.037H54.031V119.314H53.995C53.9955 119.331 53.9935 119.348 53.989 119.365C53.9831 119.342 53.9808 119.318 53.982 119.294C53.964 118.917 53.958 117.14 53.964 115.823H53.947V113.754H39.321V115.998H36.044V107.781H59.025V115.823H58.894C58.9 116.3 58.9 116.855 58.9 117.388ZM52.436 115.157V123.024H40.8V115.157H52.436ZM39.2 117.528V123.047H30.259V117.528H39.2ZM34.56 113.8V116.036H28.875V123.586H23.813C22.953 116.572 26.457 112.932 34.56 113.8ZM34.329 151.559H21.857V146.654H34.329V151.559ZM23.756 145.088V129.544H26.5V145.085L23.756 145.088ZM34.53 145.088H27.987V129.169H34.53V145.088ZM34.549 127.616H21.663V125.196H34.549V127.616ZM56.92 151.351H36.1V124.62H59.034V141.886H46.9V143.386H56.909V147.568H45.2V149.011H56.92V151.351ZM112.032 151.682H58.462V143.421H112.032V151.682ZM113.574 115.921C113.588 117.336 113.58 120.147 113.553 120.147C113.526 120.147 113.517 116.936 113.535 115.647V107.8H136.277V115.957H132.509C132.479 115.31 132.451 114.69 132.42 114.025H117.86C117.829 114.661 117.802 115.247 117.771 115.894C117.779 117.079 117.771 118.866 117.76 119.531V123.059H113.6V117.56H117.721C117.721 116.991 117.721 116.404 117.721 115.915L113.574 115.921ZM130.932 115.642V123.042H119.446V115.642H130.932ZM136.372 151.442H113.639V143.423H122.132V142.012H113.658V124.642H136.372V151.442ZM137.92 129.16H144.52V145.253H137.92V129.16ZM150.426 151.6H137.926V146.778H150.426V151.6Z" fill="black" stroke="black" stroke-miterlimit="10"></path><path d="M54.012 115.82C54.018 117.093 54.012 118.796 53.995 119.249L54.007 119.23H54.028V117.389H58.841C58.841 116.856 58.841 116.301 58.841 115.821L54.012 115.82Z" fill="black" stroke="black" stroke-miterlimit="10"></path><path d="M114.9 149.292V148.013H128.079V149.292H114.9Z" fill="black" stroke="black" stroke-miterlimit="10"></path><path d="M101.036 148.852V150.2H71.6V148.855L101.036 148.852Z" fill="black" stroke="black" stroke-miterlimit="10"></path></g></svg>