<svg width="auto" height="auto" viewBox="0 0 172 172" fill="none" xmlns="http://www.w3.org/2000/svg"><mask id="mask0_19_146" maskUnits="userSpaceOnUse" x="0" y="0" width="172" height="172"><path d="M172 0H0V172H172V0Z" fill="white"></path></mask><g mask="url(#mask0_19_146)"><path d="M69.176 85.251H20.96V150.397H69.176V85.251Z" stroke="black" stroke-width="3" stroke-miterlimit="10"></path><path d="M149.928 85.251H101.712V150.397H149.928V85.251Z" stroke="black" stroke-width="3" stroke-miterlimit="10"></path><path d="M66.7988 150.397H104.523" stroke="black" stroke-width="3" stroke-miterlimit="10"></path><path d="M20.9871 97.122H68.5371" stroke="black" stroke-width="3" stroke-miterlimit="10"></path><path d="M30.269 85.984V95.266" stroke="black" stroke-width="3" stroke-miterlimit="10"></path><path d="M41.407 85.984V96.194" stroke="black" stroke-width="3" stroke-miterlimit="10"></path><path d="M51.6169 85.984V96.194" stroke="black" stroke-width="3" stroke-miterlimit="10"></path><path d="M46.512 117.542V103.619" stroke="black" stroke-width="3" stroke-miterlimit="10"></path><path d="M58.115 117.542V103.619" stroke="black" stroke-width="3" stroke-miterlimit="10"></path><path d="M34.9102 117.542V103.619" stroke="black" stroke-width="3" stroke-miterlimit="10"></path><path d="M122.623 117.542V103.619" stroke="black" stroke-width="3" stroke-miterlimit="10"></path><path d="M134.226 117.542V103.619" stroke="black" stroke-width="3" stroke-miterlimit="10"></path><path d="M111.021 117.542V103.619" stroke="black" stroke-width="3" stroke-miterlimit="10"></path><path d="M61.8271 85.984V96.194" stroke="black" stroke-width="3" stroke-miterlimit="10"></path><path d="M101.739 97.122H149.289" stroke="black" stroke-width="3" stroke-miterlimit="10"></path><path d="M111.021 85.984V95.266" stroke="black" stroke-width="3" stroke-miterlimit="10"></path><path d="M72.9648 56.282V70.205" stroke="black" stroke-width="3" stroke-miterlimit="10"></path><path d="M99.8831 56.282V70.205" stroke="black" stroke-width="3" stroke-miterlimit="10"></path><path d="M122.159 85.984V96.194" stroke="black" stroke-width="3" stroke-miterlimit="10"></path><path d="M132.369 85.984V96.194" stroke="black" stroke-width="3" stroke-miterlimit="10"></path><path d="M142.579 85.984V96.194" stroke="black" stroke-width="3" stroke-miterlimit="10"></path><path d="M69.2529 90.625H101.739" stroke="black" stroke-width="3" stroke-miterlimit="10"></path><path d="M59.043 79.486H111.95" stroke="black" stroke-width="3" stroke-miterlimit="10"></path><path d="M59.043 71.133H111.95" stroke="black" stroke-width="3" stroke-miterlimit="10"></path><path d="M29.377 84.392V76.7H60.345" stroke="black" stroke-width="3" stroke-miterlimit="10"></path><path d="M145.738 84.392V76.7H112.877" stroke="black" stroke-width="3" stroke-miterlimit="10"></path><path d="M60.345 84.377V56.039H112.485V84.377" stroke="black" stroke-width="3" stroke-miterlimit="10"></path><path d="M115.662 47H56.2581V56.282H115.662V47Z" stroke="black" stroke-width="3" stroke-miterlimit="10"></path><path d="M96 116.614V149.1H74.822V116.614C74.822 109.439 79.56 103.619 85.411 103.619C91.262 103.619 96 109.439 96 116.614Z" stroke="black" stroke-width="3" stroke-miterlimit="10"></path></g></svg>