<svg width="auto" height="auto" viewBox="0 0 172 172" fill="none" xmlns="http://www.w3.org/2000/svg"><mask id="mask0_19_246" maskUnits="userSpaceOnUse" x="0" y="0" width="172" height="172"><path d="M172 0H0V172H172V0Z" fill="white"></path></mask><g mask="url(#mask0_19_246)"><path d="M155.62 135.909C154.978 136.428 154.311 136.914 153.62 137.365C152.537 138.003 151.384 138.519 150.291 139.141C148.043 140.549 145.444 141.296 142.791 141.296C140.138 141.296 137.539 140.549 135.291 139.141C133.663 138.006 131.798 137.257 129.837 136.952C127.166 136.726 124.501 137.444 122.306 138.982C120.632 140.103 118.732 140.84 116.74 141.143C114.749 141.445 112.715 141.304 110.784 140.731C109.235 140.262 107.759 139.578 106.4 138.7C102.473 136.321 98.5811 136.212 94.6921 138.67C89.1291 142.184 83.6201 142.137 78.0651 138.638C76.3845 137.47 74.3869 136.843 72.34 136.842C70.2932 136.841 68.2948 137.465 66.613 138.632C61.013 142.169 55.4651 142.163 49.8611 138.632C48.1834 137.457 46.1836 136.828 44.1351 136.833C42.0867 136.837 40.0896 137.474 38.417 138.657C36.6676 139.861 34.6785 140.673 32.586 141.036C30.4935 141.4 28.3471 141.307 26.2941 140.763C25.0957 140.385 23.9361 139.893 22.831 139.295C21.452 138.644 20.1211 137.89 18.7311 137.259C17.4911 136.696 16.915 135.695 17.331 134.59C17.4187 134.32 17.5641 134.073 17.7571 133.865C17.9502 133.657 18.1863 133.493 18.4489 133.386C18.7115 133.279 18.9945 133.23 19.2779 133.243C19.5613 133.256 19.8385 133.331 20.0901 133.462C21.7441 134.148 23.296 135.075 24.928 135.818C26.164 136.38 27.4561 136.818 28.7231 137.311L28.9781 136.923C28.7851 136.441 28.601 135.955 28.397 135.477C24.8217 127.106 21.2498 118.734 17.6811 110.359C17.3756 109.764 17.2317 109.1 17.264 108.432C17.464 107.143 18.4871 106.772 19.6841 106.774C22.9287 106.779 26.1734 106.779 29.4181 106.774C33.7001 106.774 37.9811 106.767 42.2621 106.774C44.4621 106.78 45.045 107.383 45.053 109.606C45.053 110.735 45.022 111.865 45.066 112.992C45.0358 113.311 45.0747 113.633 45.1799 113.936C45.285 114.239 45.4541 114.516 45.6757 114.748C45.8972 114.98 46.1661 115.161 46.4639 115.28C46.7618 115.399 47.0817 115.453 47.402 115.437C54.521 115.475 61.6411 115.444 68.7601 115.437C68.8421 115.437 68.9231 115.369 69.0881 115.296V102.247C67.4331 101.87 64.8491 102.847 64.9501 100.012C65.0411 97.473 67.4081 98.261 69.0731 97.985V93.522H34.2231C34.2231 95.622 34.2331 97.642 34.2231 99.663C34.2121 101.25 33.4571 102.134 32.1691 102.113C30.9461 102.092 30.1791 101.213 30.1771 99.72C30.1664 91.32 30.1664 82.92 30.1771 74.52C30.1771 72.783 30.918 72.01 32.634 72.007C42.458 71.9923 52.2821 71.9923 62.1061 72.007C63.6851 72.007 64.5651 72.807 64.5411 74.099C64.5171 75.356 63.6931 76.035 62.1481 76.061C61.5701 76.07 60.992 76.061 60.321 76.061V89.373H63.3281C67.1141 89.373 70.8991 89.367 74.6851 89.379C75.1786 89.3635 75.672 89.4164 76.1511 89.536C76.5987 89.6392 76.9904 89.9087 77.2468 90.2899C77.5032 90.6711 77.6052 91.1355 77.532 91.589C77.5383 92.0495 77.3656 92.4944 77.0504 92.8302C76.7352 93.1659 76.302 93.3663 75.842 93.389C75.0095 93.437 74.1751 93.4426 73.342 93.406V115.378H92.9781C93.0051 114.925 93.0561 114.452 93.0571 113.978C93.0631 109.598 93.0571 105.218 93.0641 100.839C93.0691 98.705 93.6851 98.087 95.7991 98.072C97.7261 98.057 99.6521 98.072 101.739 98.072C101.739 95.985 101.731 94.055 101.739 92.125C101.751 90.025 102.381 89.384 104.498 89.383C115.538 89.3757 126.579 89.3757 137.62 89.383C139.792 89.383 140.458 90.057 140.465 92.204C140.471 94.093 140.465 95.982 140.465 98.073C142.387 98.073 144.214 98.073 146.041 98.073C148.581 98.078 149.127 98.629 149.128 101.184C149.128 102.984 149.128 104.784 149.128 106.77C150.34 106.77 151.45 106.819 152.554 106.757C153.129 106.676 153.716 106.748 154.254 106.967C154.792 107.185 155.264 107.541 155.62 108V109.354C153.28 114.02 150.874 118.654 148.62 123.361C146.242 128.323 143.58 133.037 138.807 136.318C139.073 136.478 139.351 136.615 139.64 136.728C141.019 137.156 142.471 137.294 143.905 137.133C145.34 136.973 146.725 136.517 147.975 135.794C149.32 134.981 150.716 134.256 152.154 133.622C153.92 132.881 154.433 133.094 155.623 134.552L155.62 135.909ZM150.162 110.829H148.448C138.356 110.829 128.258 111.013 118.173 110.729C114.7 110.629 112.716 111.497 111.598 114.851C110.441 118.323 107.732 119.583 104.098 119.568C85.5801 119.493 67.0621 119.534 48.5431 119.533C48.0481 119.533 47.551 119.538 47.058 119.498C45.4162 119.419 43.8686 118.708 42.7393 117.513C41.6101 116.319 40.9868 114.734 41.0001 113.09C40.9811 112.383 41.0001 111.675 41.0001 110.953H22.3221L33.3801 136.794C34.6801 136.063 35.7801 135.361 36.9431 134.807C38.2092 134.133 39.5451 133.599 40.9271 133.215C45.2931 132.226 49.2421 133.292 53.0021 135.695C56.4021 137.866 59.9931 137.717 63.5021 135.738C64.4487 135.129 65.4308 134.578 66.4431 134.086C68.6222 133.077 71.024 132.644 73.4185 132.829C75.8129 133.014 78.1197 133.81 80.118 135.142C81.9372 136.462 84.1251 137.178 86.3729 137.188C88.6206 137.199 90.8149 136.503 92.646 135.199C94.0436 134.299 95.5813 133.637 97.196 133.242C99.0162 132.791 100.908 132.706 102.761 132.993C104.614 133.28 106.391 133.933 107.99 134.913C109.43 135.82 110.994 136.511 112.634 136.965C115.86 137.765 118.691 136.557 121.423 134.842C125.308 132.404 129.499 132.29 133.755 133.76C134.075 133.899 134.426 133.953 134.772 133.915C135.119 133.878 135.45 133.751 135.733 133.546C140.922 130.246 143.433 125.033 145.883 119.534H144.132C136.112 119.534 128.092 119.534 120.071 119.534C119.576 119.552 119.081 119.526 118.591 119.458C118.125 119.382 117.702 119.141 117.397 118.781C117.093 118.42 116.927 117.963 116.929 117.491C116.932 117.018 117.103 116.563 117.411 116.205C117.72 115.848 118.145 115.612 118.612 115.541C119.104 115.481 119.6 115.459 120.095 115.477C127.935 115.477 135.775 115.477 143.614 115.477C148.266 115.477 148.266 115.477 150.099 111.201C150.127 111.078 150.148 110.954 150.162 110.829ZM56.1 84.748C55.3 84.748 54.6751 84.767 54.0511 84.748C53.7811 84.7684 53.5097 84.7349 53.2528 84.6493C52.9959 84.5638 52.7586 84.428 52.5547 84.2499C52.3508 84.0718 52.1844 83.8549 52.0651 83.6118C51.9459 83.3687 51.8761 83.1043 51.86 82.834C51.8565 82.5516 51.9099 82.2714 52.0171 82.0101C52.1243 81.7489 52.2831 81.5119 52.484 81.3134C52.6849 81.115 52.9238 80.9591 53.1863 80.855C53.4489 80.751 53.7298 80.701 54.0121 80.708C54.7061 80.662 55.4051 80.699 56.0831 80.699V76.155H34.3121V89.285H56.1V84.748ZM119.019 93.548H105.87V97.96H119.015L119.019 93.548ZM136.337 93.609H123.2V97.989H136.331L136.337 93.609ZM144.996 102.227H131.907V106.7H144.992L144.996 102.227ZM110.338 102.235H97.1891V106.662H110.334L110.338 102.235ZM114.538 106.689H127.638V102.21H114.538V106.689ZM97.1821 115.389C100.113 115.389 102.973 115.432 105.83 115.348C106.113 115.304 106.383 115.202 106.624 115.049C106.865 114.895 107.072 114.692 107.23 114.454C107.912 113.38 108.43 112.197 109.071 110.93H97.1791L97.1821 115.389Z" fill="black" stroke="white" stroke-width="0.75" stroke-miterlimit="10"></path><path d="M155.62 146.747C154.984 147.275 154.32 147.768 153.63 148.223C152.549 148.862 151.389 149.364 150.299 149.99C145.299 152.865 140.246 152.982 135.324 149.976C132.413 148.198 129.449 147.221 126.1 148.089C124.933 148.419 123.823 148.923 122.805 149.583C117.378 152.967 111.948 153.053 106.529 149.657C104.743 148.411 102.615 147.747 100.437 147.755C98.2596 147.763 96.1373 148.443 94.3601 149.702C89.1421 152.978 83.8171 153.044 78.5801 149.757C76.745 148.464 74.554 147.772 72.3091 147.776C70.0642 147.78 67.8756 148.479 66.0451 149.779C63.7622 151.356 61.0548 152.203 58.2804 152.209C55.5059 152.215 52.7949 151.38 50.5051 149.813C46.1831 147.107 42.0691 147.128 37.7341 149.854C32.7131 153.011 27.5341 152.91 22.3981 149.926C21.1981 149.226 19.9241 148.656 18.6591 148.081C18.4003 148 18.16 147.87 17.952 147.696C17.7439 147.522 17.5722 147.309 17.4468 147.069C17.3214 146.829 17.2446 146.566 17.221 146.296C17.1973 146.026 17.2273 145.754 17.3091 145.496C17.3823 145.234 17.5107 144.99 17.6859 144.782C17.861 144.573 18.0788 144.405 18.3246 144.287C18.5704 144.17 18.8384 144.107 19.1107 144.102C19.383 144.097 19.6532 144.15 19.9031 144.258C21.5289 144.905 23.1082 145.663 24.6301 146.527C28.2891 148.61 31.9641 148.718 35.4911 146.452C37.1878 145.253 39.1166 144.422 41.1536 144.012C43.1907 143.603 45.2908 143.624 47.3191 144.075C48.9772 144.48 50.5581 145.153 51.9991 146.068C56.1301 148.668 60.1591 148.747 64.2991 146.145C69.6731 142.766 75.0841 142.815 80.4441 146.189C82.1909 147.415 84.2733 148.073 86.4076 148.073C88.5418 148.073 90.6242 147.415 92.3711 146.189C97.7851 142.779 103.228 142.801 108.638 146.205C110.364 147.422 112.423 148.078 114.536 148.085C116.648 148.091 118.711 147.447 120.444 146.24C125.953 142.767 131.455 142.806 136.956 146.275C138.676 147.461 140.717 148.095 142.806 148.091C144.896 148.087 146.934 147.447 148.65 146.254C149.759 145.568 150.925 144.979 152.135 144.493C153.935 143.77 154.398 143.943 155.622 145.393L155.62 146.747Z" fill="black" stroke="white" stroke-width="0.75" stroke-miterlimit="10"></path><path d="M42.9581 102.1C42.1951 102.1 41.4271 102.15 40.6691 102.088C40.1857 102.078 39.7258 101.878 39.3889 101.531C39.0521 101.184 38.8653 100.718 38.8691 100.235C38.8283 99.9975 38.8373 99.7543 38.8954 99.5205C38.9535 99.2867 39.0595 99.0675 39.2067 98.8768C39.3539 98.6861 39.5391 98.528 39.7506 98.4125C39.962 98.2971 40.1951 98.2267 40.4351 98.206C42.1765 98.0683 43.9261 98.0707 45.6671 98.213C45.9066 98.2359 46.1386 98.3089 46.3481 98.4274C46.5576 98.5458 46.7398 98.7069 46.8829 98.9003C47.0261 99.0937 47.127 99.3151 47.179 99.55C47.2311 99.785 47.2331 100.028 47.1851 100.264C47.1865 100.503 47.1409 100.739 47.0508 100.96C46.9607 101.181 46.828 101.382 46.6601 101.551C46.4922 101.72 46.2926 101.855 46.0726 101.947C45.8526 102.039 45.6166 102.087 45.3781 102.088C44.5791 102.154 43.7671 102.1 42.9581 102.1Z" fill="black" stroke="white" stroke-width="0.75" stroke-miterlimit="10"></path><path d="M55.9662 102.1C55.2032 102.1 54.4361 102.148 53.6781 102.088C53.1949 102.079 52.7349 101.879 52.3979 101.533C52.0609 101.187 51.8741 100.721 51.8781 100.238C51.8368 100.001 51.8451 99.7574 51.9027 99.5235C51.9602 99.2896 52.0658 99.0703 52.2125 98.8792C52.3592 98.6882 52.544 98.5298 52.7552 98.4139C52.9663 98.298 53.1992 98.2272 53.4392 98.206C55.1802 98.0681 56.9294 98.0698 58.6701 98.211C58.9096 98.2339 59.1417 98.3069 59.3511 98.4254C59.5605 98.5438 59.7427 98.7049 59.8858 98.8984C60.0288 99.0918 60.1296 99.3132 60.1815 99.5481C60.2335 99.7831 60.2354 100.026 60.1872 100.262C60.1906 100.501 60.1466 100.737 60.0576 100.959C59.9687 101.18 59.8367 101.382 59.6692 101.552C59.5017 101.722 59.3022 101.856 59.0821 101.949C58.862 102.041 58.6258 102.088 58.3872 102.088C57.5872 102.154 56.7742 102.1 55.9662 102.1Z" fill="black" stroke="white" stroke-width="0.75" stroke-miterlimit="10"></path><path d="M81.9881 124.194C82.2574 124.177 82.5275 124.216 82.7807 124.309C83.034 124.402 83.2651 124.547 83.459 124.735C83.6529 124.922 83.8054 125.149 83.9067 125.399C84.008 125.649 84.0558 125.917 84.0472 126.187C84.0509 126.708 83.8515 127.209 83.4913 127.585C83.1311 127.961 82.6384 128.182 82.1182 128.2C81.8485 128.206 81.5804 128.158 81.3295 128.059C81.0786 127.96 80.8499 127.812 80.6567 127.624C80.4636 127.436 80.3098 127.211 80.2045 126.963C80.0991 126.714 80.0443 126.448 80.0432 126.178C80.0392 125.92 80.0865 125.663 80.1824 125.423C80.2782 125.183 80.4207 124.965 80.6016 124.78C80.7825 124.596 80.9982 124.449 81.2362 124.348C81.4742 124.248 81.7298 124.195 81.9881 124.194Z" fill="black" stroke="white" stroke-width="0.75" stroke-miterlimit="10"></path><path d="M99.4201 124.194C99.6895 124.192 99.9566 124.244 100.205 124.347C100.454 124.45 100.68 124.603 100.869 124.795C101.058 124.987 101.206 125.215 101.305 125.465C101.404 125.716 101.452 125.984 101.445 126.253C101.416 126.774 101.191 127.265 100.815 127.626C100.438 127.987 99.9388 128.192 99.4171 128.2C99.1473 128.201 98.8802 128.146 98.6321 128.04C98.3841 127.934 98.1602 127.779 97.9742 127.583C97.7881 127.388 97.6439 127.157 97.5502 126.904C97.4565 126.651 97.4153 126.381 97.4291 126.112C97.4284 125.854 97.4799 125.598 97.5806 125.36C97.6814 125.122 97.8292 124.907 98.0152 124.728C98.2012 124.549 98.4216 124.409 98.6631 124.317C98.9045 124.226 99.162 124.184 99.4201 124.194Z" fill="black" stroke="white" stroke-width="0.75" stroke-miterlimit="10"></path><path d="M58.0531 126.168C58.0674 126.689 57.8749 127.195 57.5177 127.575C57.1605 127.956 56.6674 128.179 56.1461 128.197C55.6019 128.209 55.0752 128.005 54.6801 127.631C54.2851 127.256 54.0537 126.741 54.0361 126.197C54.0364 125.676 54.2391 125.176 54.6015 124.802C54.9639 124.428 55.4576 124.209 55.9781 124.192C56.2472 124.173 56.5173 124.21 56.7712 124.301C57.0251 124.392 57.2571 124.535 57.4524 124.721C57.6477 124.907 57.8021 125.132 57.9055 125.381C58.009 125.63 58.0592 125.898 58.0531 126.168Z" fill="black" stroke="white" stroke-width="0.75" stroke-miterlimit="10"></path><path d="M66.7242 126.153C66.7408 126.674 66.5518 127.181 66.1979 127.563C65.8441 127.946 65.3539 128.175 64.8332 128.199C64.5635 128.208 64.2948 128.164 64.0422 128.069C63.7897 127.974 63.5584 127.83 63.3616 127.645C63.1649 127.461 63.0065 127.239 62.8956 126.993C62.7846 126.747 62.7233 126.482 62.7152 126.212C62.7052 125.691 62.901 125.187 63.2603 124.809C63.6195 124.431 64.1131 124.21 64.6342 124.194C64.9031 124.172 65.1736 124.207 65.4283 124.296C65.683 124.385 65.9162 124.526 66.113 124.711C66.3099 124.895 66.4659 125.119 66.5712 125.367C66.6764 125.616 66.7285 125.883 66.7242 126.153Z" fill="black" stroke="white" stroke-width="0.75" stroke-miterlimit="10"></path><path d="M75.373 126.2C75.379 126.721 75.1788 127.224 74.816 127.598C74.4533 127.973 73.9573 128.189 73.436 128.2C73.1662 128.203 72.8984 128.154 72.648 128.053C72.3976 127.953 72.1695 127.804 71.9767 127.615C71.784 127.426 71.6305 127.201 71.525 126.953C71.4195 126.705 71.3641 126.438 71.3621 126.168C71.3636 125.646 71.5711 125.147 71.9392 124.777C72.3074 124.408 72.8065 124.198 73.3281 124.195C73.5973 124.179 73.867 124.22 74.1196 124.314C74.3722 124.409 74.6022 124.556 74.7948 124.744C74.9874 124.933 75.1384 125.16 75.238 125.411C75.3376 125.662 75.3836 125.93 75.373 126.2Z" fill="black" stroke="white" stroke-width="0.75" stroke-miterlimit="10"></path><path d="M90.7401 124.194C91.0094 124.189 91.277 124.239 91.5265 124.34C91.7761 124.442 92.0023 124.593 92.1917 124.785C92.3811 124.976 92.5295 125.204 92.6281 125.455C92.7267 125.706 92.7733 125.974 92.7651 126.243C92.7437 126.764 92.5234 127.257 92.1496 127.621C91.7757 127.985 91.2767 128.192 90.7551 128.199C90.4854 128.201 90.2182 128.148 89.9697 128.043C89.7211 127.938 89.4965 127.784 89.3094 127.59C89.1224 127.395 88.9768 127.165 88.8815 126.913C88.7862 126.66 88.7432 126.391 88.7551 126.122C88.7533 125.863 88.8039 125.607 88.9037 125.369C89.0036 125.13 89.1507 124.915 89.3361 124.734C89.5216 124.554 89.7416 124.414 89.9828 124.321C90.2241 124.228 90.4817 124.185 90.7401 124.194Z" fill="black" stroke="white" stroke-width="0.75" stroke-miterlimit="10"></path><path d="M43.116 84.74C42.351 84.74 41.5859 84.765 40.8239 84.735C40.5736 84.7443 40.3239 84.7036 40.0896 84.615C39.8553 84.5265 39.641 84.392 39.4594 84.2194C39.2778 84.0469 39.1326 83.8398 39.0322 83.6102C38.9318 83.3807 38.8784 83.1335 38.8749 82.883C38.8305 82.6458 38.8359 82.402 38.8909 82.167C38.9458 81.9321 39.049 81.7111 39.1939 81.5182C39.3388 81.3253 39.5223 81.1647 39.7327 81.0466C39.9431 80.9284 40.1758 80.8553 40.4159 80.832C42.1564 80.6753 43.9072 80.6737 45.6479 80.827C45.8996 80.8504 46.1431 80.9282 46.3618 81.0549C46.5805 81.1816 46.769 81.3543 46.9145 81.561C47.0599 81.7677 47.1589 82.0035 47.2043 82.2521C47.2498 82.5007 47.2408 82.7562 47.1779 83.001C47.1495 83.4815 46.9342 83.9318 46.5779 84.2555C46.2217 84.5792 45.7529 84.7506 45.2719 84.733C44.5549 84.769 43.835 84.74 43.116 84.74Z" fill="black" stroke="white" stroke-width="0.75" stroke-miterlimit="10"></path></g></svg>